<?xml version="1.0" encoding="UTF-8"?>
<svg xmlns="http://www.w3.org/2000/svg" xmlns:xlink="http://www.w3.org/1999/xlink" width="2401" height="2626" viewBox="0 0 2401 2626">
<path fill-rule="nonzero" fill="rgb(0%, 0%, 0%)" fill-opacity="1" d="M 928.046875 0.140625 C 922.398438 0.171875 916.707031 3.808594 907.675781 10.820312 C 899.742188 16.980469 891.128906 22.308594 888.410156 22.71875 C 885.914062 23.128906 875.265625 20.871094 865.292969 17.589844 C 850.332031 13.078125 845.574219 12.460938 840.585938 14.109375 C 836.734375 15.539062 833.105469 15.539062 830.386719 14.109375 C 823.585938 10.820312 819.960938 11.640625 817.238281 17.179688 C 815.199219 20.871094 812.933594 22.308594 807.945312 22.308594 C 803.640625 22.308594 800.015625 23.949219 797.746094 26.820312 L 794.347656 31.328125 L 783.46875 26 C 773.722656 21.28125 769.191406 20.671875 740.40625 19.640625 L 708.222656 18.621094 L 700.742188 25.179688 C 693.261719 31.738281 692.582031 31.949219 668.332031 32.96875 C 638.640625 34.199219 627.308594 37.898438 625.039062 46.308594 C 622.320312 56.359375 619.828125 57.589844 606.679688 56.148438 C 588.320312 54.101562 572.457031 59.019531 557.953125 71.53125 C 547.980469 80.148438 544.582031 81.789062 537.328125 81.789062 C 532.566406 81.789062 525.089844 80.351562 520.328125 78.511719 C 510.355469 74.820312 483.386719 76.25 469.105469 81.378906 C 461.171875 84.25 459.8125 84.25 453.015625 80.96875 C 448.933594 78.921875 440.773438 72.359375 434.878906 66.199219 C 429.214844 60.050781 422.640625 55.121094 420.375 55.121094 C 414.707031 55.121094 409.269531 63.121094 407.457031 74 C 405.191406 87.738281 379.804688 125.070312 366.433594 134.300781 C 357.59375 140.25 330.167969 150.5 313.851562 153.578125 C 301.382812 156.039062 286.878906 161.371094 281.4375 165.46875 C 276.453125 169.160156 276.226562 176.339844 280.53125 183.929688 C 283.253906 188.859375 283.25 191.730469 280.757812 202.390625 C 279.171875 209.570312 276.226562 216.960938 274.183594 219.011719 C 269.199219 223.929688 269.652344 237.269531 275.089844 244.851562 C 281.664062 253.878906 281.210938 268.03125 273.960938 276.851562 C 271.011719 280.75 265.574219 287.519531 262.171875 292.230469 C 252.199219 305.359375 225 327.308594 211.402344 333.050781 C 204.601562 335.710938 195.3125 338.179688 190.550781 338.179688 C 175.59375 338.179688 166.753906 342.890625 161.542969 353.96875 C 147.941406 382.691406 142.5 389.859375 123.914062 401.761719 C 109.863281 410.78125 104.652344 421.449219 103.066406 444.839844 L 101.703125 464.109375 L 94.226562 466.160156 C 89.921875 467.191406 84.707031 470.878906 81.984375 474.371094 C 79.265625 477.859375 74.28125 483.390625 70.878906 486.878906 C 67.480469 490.160156 61.589844 500.621094 57.734375 509.851562 C 47.535156 535.28125 42.320312 543.488281 30.308594 553.539062 C 21.242188 561.128906 19.203125 564.410156 17.84375 572.410156 C 15.578125 586.359375 21.472656 601.121094 33.9375 612.199219 C 40.058594 617.53125 43.90625 622.660156 43.90625 625.738281 C 43.90625 628.199219 44.589844 633.738281 45.269531 637.839844 C 46.402344 644.199219 45.722656 646.25 39.601562 651.789062 C 34.160156 656.710938 32.800781 659.578125 33.707031 662.859375 C 35.296875 667.78125 47.761719 679.480469 53.199219 681.121094 C 55.921875 681.941406 55.921875 682.761719 53.199219 687.480469 C 50.933594 691.171875 50.480469 696.300781 51.613281 706.140625 C 53.199219 718.238281 52.746094 720.289062 47.082031 729.109375 C 40.28125 739.570312 37.335938 750.859375 35.070312 776.078125 L 33.707031 792.488281 L 22.832031 798.851562 C 6.058594 808.691406 0.847656 814.03125 0.847656 820.589844 C 0.847656 828.390625 4.246094 834.128906 13.539062 841.929688 C 20.792969 848.078125 21.246094 849.101562 21.246094 862.839844 C 21.246094 870.839844 20.113281 882.121094 18.75 887.660156 C 14.445312 906.328125 24.417969 920.691406 43.457031 923.351562 C 57.734375 925.609375 63.628906 930.941406 65.441406 944.269531 C 66.800781 954.730469 67.480469 955.960938 74.503906 958.429688 C 80.625 960.890625 83.574219 964.371094 90.144531 976.480469 C 94.453125 984.679688 98.304688 993.300781 98.757812 995.550781 C 99.210938 998.421875 101.476562 999.859375 106.007812 1000.269531 C 110.089844 1000.679688 116.664062 1004.980469 124.824219 1012.160156 C 137.0625 1023.238281 137.0625 1023.441406 134.570312 1030.621094 C 130.035156 1042.730469 133.207031 1050.308594 148.394531 1063.640625 C 155.875 1070.210938 164.261719 1079.03125 166.980469 1083.339844 C 170.152344 1088.460938 174.007812 1091.539062 178.539062 1092.570312 C 183.753906 1093.800781 186.246094 1096.058594 188.058594 1100.769531 C 191.683594 1110.820312 210.5 1126.820312 231.125 1137.28125 C 252.882812 1148.359375 264.667969 1158.609375 268.746094 1169.890625 C 271.464844 1177.28125 272.597656 1178.101562 280.078125 1178.710938 C 286.199219 1179.121094 289.371094 1180.761719 291.183594 1183.839844 C 294.582031 1189.789062 297.53125 1191.429688 304.558594 1191.429688 C 307.730469 1191.429688 313.621094 1193.28125 317.699219 1195.53125 C 321.78125 1197.789062 326.542969 1199.628906 328.582031 1199.628906 C 332.207031 1199.628906 355.550781 1189.378906 367.792969 1182.199219 C 372.777344 1179.328125 381.390625 1177.070312 389.550781 1176.25 C 398.164062 1175.429688 405.644531 1173.378906 409.949219 1170.511719 C 418.335938 1164.769531 432.386719 1163.738281 463.4375 1166.410156 C 489.503906 1168.660156 505.371094 1173.589844 515.796875 1182.609375 L 521.914062 1187.738281 L 528.941406 1183.230469 C 533.019531 1180.558594 540.726562 1177.691406 546.394531 1176.871094 C 551.835938 1175.839844 560.671875 1172.359375 565.882812 1169.070312 C 571.097656 1165.789062 579.484375 1162.101562 584.242188 1161.070312 C 589.003906 1159.839844 595.347656 1156.769531 598.066406 1154.511719 C 601.921875 1151.230469 608.496094 1149.378906 623.226562 1147.738281 C 641.585938 1145.488281 643.398438 1144.871094 644.53125 1140.148438 C 645.664062 1135.851562 647.933594 1134.820312 660.398438 1132.769531 C 675.585938 1130.101562 746.753906 1129.28125 758.992188 1131.738281 C 763.753906 1132.558594 766.015625 1134.410156 766.46875 1137.691406 C 766.921875 1140.558594 770.324219 1143.640625 775.761719 1146.308594 C 784.601562 1150.199219 796.164062 1160.871094 796.617188 1165.378906 C 796.84375 1166.820312 797.070312 1172.769531 797.296875 1178.921875 C 797.523438 1187.328125 798.652344 1190.609375 802.054688 1192.859375 C 814.972656 1201.070312 824.265625 1205.789062 827.4375 1205.789062 C 829.480469 1205.789062 837.640625 1202.511719 845.574219 1198.609375 C 859.398438 1191.839844 860.984375 1191.429688 882.289062 1191.429688 L 904.726562 1191.429688 L 918.550781 1204.96875 C 938.722656 1225.070312 944.617188 1236.960938 945.523438 1261.171875 C 946.203125 1277.371094 945.527344 1284.339844 940.765625 1300.339844 C 937.59375 1311.011719 934.417969 1325.160156 933.511719 1331.929688 C 932.605469 1338.699219 929.429688 1351.210938 926.257812 1359.621094 C 923.085938 1368.03125 920.136719 1380.949219 919.457031 1388.328125 C 918.097656 1404.121094 922.859375 1416.429688 938.042969 1436.539062 C 943.257812 1443.308594 950.285156 1453.148438 953.683594 1458.480469 C 956.859375 1463.820312 964.789062 1473.460938 971.136719 1480.019531 C 977.253906 1486.378906 982.921875 1493.761719 983.375 1496.429688 C 984.054688 1499.089844 984.960938 1503.191406 985.640625 1505.859375 C 986.320312 1508.730469 989.496094 1511.808594 994.027344 1513.660156 C 999.011719 1515.5 1001.730469 1518.171875 1002.191406 1521.660156 C 1002.640625 1524.53125 1004.910156 1528.628906 1007.179688 1530.890625 C 1016.238281 1540.121094 1025.308594 1555.5 1025.308594 1562.058594 C 1025.308594 1567.390625 1026.671875 1569.441406 1030.96875 1571.289062 C 1034.140625 1572.519531 1036.640625 1574.160156 1036.640625 1574.980469 C 1036.640625 1575.808594 1034.140625 1578.058594 1030.96875 1579.910156 C 1023.269531 1584.421875 1023.71875 1588.320312 1034.371094 1602.46875 C 1039.359375 1609.03125 1043.441406 1616.621094 1043.441406 1619.289062 C 1043.441406 1621.75 1047.96875 1632.414062 1053.640625 1642.875 C 1065.191406 1664.207031 1065.878906 1668.921875 1059.078125 1678.769531 C 1051.601562 1690.050781 1052.5 1700.714844 1063.160156 1721.636719 C 1068.140625 1731.6875 1074.710938 1746.042969 1077.429688 1753.429688 C 1085.820312 1774.757812 1081.289062 1785.628906 1059.078125 1797.527344 C 1049.558594 1802.652344 1040.71875 1818.039062 1039.359375 1831.984375 C 1038.910156 1837.933594 1036.640625 1844.292969 1034.820312 1846.34375 C 1032.558594 1848.597656 1030.289062 1857.828125 1028.480469 1871.363281 C 1026.210938 1889.414062 1024.859375 1894.132812 1018.960938 1902.132812 C 1015.109375 1907.464844 1011.480469 1915.667969 1010.800781 1920.386719 C 1003.550781 1976.996094 1002.191406 2006.53125 1005.589844 2018.839844 C 1006.71875 2022.121094 1012.390625 2029.09375 1018.28125 2034.222656 C 1025.988281 2040.992188 1030.289062 2046.9375 1033.238281 2054.9375 C 1035.28125 2061.089844 1039.359375 2068.472656 1042.308594 2071.347656 C 1048.648438 2077.910156 1056.128906 2094.320312 1058.171875 2106.214844 C 1060.890625 2123.855469 1066.558594 2134.933594 1081.96875 2154.621094 C 1099.191406 2176.363281 1101.460938 2182.105469 1098.058594 2193.796875 C 1094.210938 2206.308594 1095.121094 2219.027344 1101.460938 2237.691406 C 1106.21875 2252.253906 1107.128906 2257.382812 1105.988281 2270.304688 C 1104.859375 2282.8125 1105.539062 2288.148438 1109.171875 2297.375 C 1111.660156 2303.941406 1113.699219 2312.144531 1113.699219 2315.632812 C 1113.699219 2327.324219 1121.179688 2359.523438 1125.480469 2366.703125 C 1138.179688 2387.625 1144.980469 2396.445312 1151.101562 2399.519531 C 1160.621094 2404.238281 1173.308594 2432.542969 1172.859375 2448.335938 C 1172.628906 2461.257812 1178.75 2476.027344 1186.230469 2479.515625 C 1188.941406 2480.746094 1193.710938 2486.695312 1196.878906 2492.4375 C 1199.828125 2498.382812 1204.808594 2506.179688 1207.980469 2510.074219 C 1212.289062 2515.410156 1213.429688 2519.714844 1213.429688 2528.535156 C 1213.429688 2542.6875 1212.070312 2544.738281 1202.089844 2545.558594 C 1196.648438 2545.96875 1193.929688 2547.402344 1193.480469 2549.863281 C 1191.671875 2557.863281 1195.75 2568.121094 1203.449219 2575.710938 C 1212.070312 2584.324219 1212.96875 2588.425781 1207.53125 2592.527344 C 1204.128906 2594.992188 1204.359375 2595.605469 1208.890625 2598.886719 C 1211.609375 2600.9375 1217.730469 2603.195312 1222.488281 2603.8125 C 1228.839844 2604.835938 1234.050781 2607.707031 1241.980469 2615.089844 C 1248.101562 2620.628906 1254.679688 2625.140625 1256.488281 2625.140625 C 1258.53125 2625.140625 1264.648438 2622.476562 1270.308594 2619.195312 C 1279.828125 2613.453125 1299.101562 2608.734375 1317.910156 2607.707031 C 1322.441406 2607.296875 1329.46875 2605.042969 1333.320312 2602.375 C 1338.078125 2599.09375 1342.839844 2597.859375 1348.28125 2598.269531 C 1363.238281 2599.296875 1375.480469 2598.886719 1386.589844 2597.449219 C 1393.390625 2596.425781 1403.359375 2596.835938 1412.648438 2598.476562 C 1427.839844 2600.941406 1428.070312 2600.9375 1444.839844 2594.167969 C 1457.078125 2589.042969 1464.558594 2587.402344 1472.941406 2587.609375 C 1482.230469 2587.8125 1485.410156 2586.785156 1491.53125 2581.863281 C 1497.421875 2577.351562 1501.050781 2576.121094 1507.839844 2576.324219 C 1515.101562 2576.53125 1518.71875 2575.09375 1527.558594 2568.53125 C 1548.640625 2552.738281 1580.820312 2523.609375 1586.269531 2515.203125 C 1590.800781 2508.226562 1593.519531 2506.382812 1601.898438 2504.332031 C 1609.160156 2502.691406 1613.691406 2500.027344 1617.539062 2495.308594 C 1640.210938 2467.207031 1656.75 2444.644531 1667.859375 2426.59375 C 1678.289062 2409.980469 1682.140625 2405.46875 1686.898438 2404.441406 C 1697.78125 2402.390625 1698.460938 2401.777344 1698.460938 2395.214844 C 1698.460938 2391.519531 1701.859375 2382.910156 1706.160156 2376.140625 C 1714.550781 2362.191406 1720.671875 2340.246094 1723.390625 2313.992188 C 1724.96875 2297.171875 1725.429688 2296.351562 1734.71875 2287.738281 C 1746.511719 2276.867188 1765.320312 2267.636719 1782.769531 2264.355469 C 1792.738281 2262.507812 1798.410156 2259.84375 1806.570312 2253.074219 L 1817.449219 2244.253906 L 1817.679688 2224.972656 C 1817.898438 2212.667969 1819.261719 2202.410156 1821.53125 2196.667969 C 1826.519531 2184.976562 1826.289062 2179.644531 1820.851562 2169.59375 C 1817.679688 2164.054688 1816.539062 2159.339844 1817.449219 2154.828125 C 1818.359375 2150.316406 1817.449219 2145.183594 1814.269531 2139.03125 C 1811.78125 2133.90625 1809.519531 2126.726562 1809.519531 2123.035156 C 1809.519531 2118.523438 1807.699219 2115.035156 1803.851562 2111.957031 C 1791.378906 2102.113281 1799.769531 2084.679688 1818.578125 2081.605469 C 1837.171875 2078.527344 1840.789062 2076.269531 1843.738281 2067.246094 C 1846.011719 2060.679688 1850.769531 2055.144531 1864.589844 2044.066406 C 1874.339844 2036.070312 1887.480469 2023.761719 1893.609375 2016.582031 C 1906.070312 2002.019531 1921.03125 1993.199219 1939.609375 1989.507812 C 1949.589844 1987.457031 1955.25 1984.378906 1969.980469 1972.691406 C 1988.800781 1957.921875 1990.609375 1955.460938 1991.96875 1942.949219 C 1992.421875 1937.203125 1995.820312 1932.691406 2007.378906 1922.027344 C 2027.101562 1903.363281 2030.269531 1897.414062 2028.230469 1882.851562 C 2027.328125 1876.492188 2026.878906 1861.726562 2027.101562 1849.828125 C 2028.460938 1780.089844 2028.691406 1777.015625 2032.539062 1770.042969 C 2037.75 1761.019531 2035.71875 1754.453125 2025.289062 1748.507812 C 2003.078125 1735.585938 1993.109375 1721.839844 1993.109375 1703.789062 C 1993.109375 1699.484375 1991.070312 1692.101562 1988.800781 1687.382812 C 1986.308594 1682.460938 1983.359375 1671.589844 1982 1663.179688 C 1979.28125 1646.976562 1980.640625 1638.566406 1987.210938 1629.953125 C 1994.46875 1620.71875 1990.609375 1608 1977.46875 1596.71875 C 1969.308594 1589.550781 1968.628906 1584.011719 1974.96875 1572.929688 C 1980.410156 1563.089844 1986.070312 1560.210938 1999.679688 1559.808594 C 2010.101562 1559.601562 2010.101562 1559.601562 2010.78125 1552.011719 C 2011.691406 1541.960938 2008.289062 1536.628906 1999.898438 1534.988281 C 1991.96875 1533.351562 1991.519531 1531.289062 1997.410156 1524.320312 C 1999.898438 1521.660156 2002.628906 1515.089844 2003.308594 1509.761719 C 2006.25 1488.019531 2006.929688 1486.578125 2017.128906 1477.351562 C 2022.570312 1472.21875 2027.101562 1466.890625 2027.101562 1465.25 C 2027.101562 1463.808594 2033.671875 1456.230469 2041.828125 1448.640625 C 2049.988281 1441.050781 2056.558594 1433.25 2056.558594 1431.410156 C 2056.558594 1427.511719 2076.738281 1406.179688 2093.730469 1392.441406 C 2099.859375 1387.308594 2108.921875 1377.671875 2113.910156 1370.898438 C 2131.808594 1346.699219 2182.359375 1303.011719 2207.289062 1290.089844 C 2225.199219 1280.859375 2233.578125 1273.46875 2239.019531 1262.191406 C 2242.871094 1254.398438 2249.898438 1247.011719 2266.671875 1233.070312 C 2289.789062 1213.789062 2293.421875 1208.660156 2299.988281 1187.328125 C 2302.25 1179.941406 2307.238281 1171.738281 2314.5 1163.738281 C 2328.769531 1147.738281 2331.269531 1143.429688 2333.308594 1130.710938 C 2334.210938 1124.769531 2336.480469 1116.980469 2338.519531 1113.289062 C 2340.328125 1109.390625 2343.5 1102.210938 2345.539062 1097.488281 C 2349.628906 1086.410156 2369.339844 1054.421875 2380.21875 1041.089844 C 2390.878906 1027.75 2394.050781 1018.929688 2394.28125 1001.699219 C 2394.28125 993.300781 2395.859375 985.289062 2397.679688 982.21875 C 2399.488281 979.351562 2400.851562 973.398438 2400.851562 968.890625 C 2400.851562 964.371094 2399.488281 958.429688 2397.679688 955.558594 C 2395.859375 952.679688 2394.5 947.558594 2394.28125 944.070312 C 2394.28125 937.710938 2388.378906 930.941406 2383.171875 930.941406 C 2381.578125 930.941406 2376.601562 933.191406 2372.070312 936.070312 C 2357.558594 945.089844 2328.769531 954.121094 2319.03125 952.679688 C 2313.359375 951.859375 2307.019531 952.679688 2299.078125 955.558594 C 2292.738281 957.808594 2282.761719 959.660156 2276.640625 959.660156 C 2267.121094 959.660156 2264.628906 960.679688 2257.378906 967.039062 L 2248.761719 974.628906 L 2230.410156 973.398438 C 2214.089844 972.171875 2209.78125 972.578125 2190.96875 978.121094 C 2166.488281 985.300781 2149.71875 986.109375 2144.28125 980.578125 C 2142.238281 978.53125 2138.839844 972.171875 2136.800781 966.21875 C 2131.820312 952.679688 2127.058594 948.578125 2115.5 948.988281 C 2108.921875 949.191406 2105.980469 948.371094 2104.390625 945.710938 C 2101.21875 940.371094 2105.519531 935.039062 2113 935.039062 C 2121.390625 935.039062 2125.46875 930.53125 2123.429688 923.351562 C 2122.75 920.070312 2121.390625 914.121094 2120.710938 909.820312 C 2119.800781 903.25 2118.21875 901.410156 2112.101562 898.941406 C 2107.789062 897.511719 2103.710938 894.019531 2102.808594 891.558594 C 2101.898438 888.890625 2098.269531 882.941406 2094.871094 878.230469 C 2091.238281 873.511719 2088.300781 868.789062 2088.300781 867.769531 C 2088.300781 864.28125 2080.359375 859.570312 2070.160156 857.101562 C 2064.5 855.871094 2058.378906 854.429688 2056.109375 853.820312 C 2054.070312 853.199219 2050.898438 849.308594 2049.089844 845.210938 C 2045.691406 837.621094 2029.140625 823.261719 2014.640625 815.058594 C 2011.011719 812.800781 2003.980469 808.078125 1999.21875 804.390625 C 1994.691406 800.691406 1989.480469 797.621094 1987.660156 797.621094 C 1982.21875 797.621094 1974.519531 786.949219 1975.878906 781.210938 C 1977.691406 773.210938 1965.679688 728.699219 1956.378906 709.429688 C 1948.910156 693.628906 1948.449219 693.019531 1940.75 693.019531 C 1935.078125 693.019531 1933.949219 691.988281 1932.820312 686.859375 C 1931.679688 682.140625 1930.089844 680.710938 1926.238281 680.710938 C 1910.378906 680.710938 1900.179688 660.398438 1900.179688 628.820312 C 1900.179688 605.019531 1897.460938 593.941406 1886.128906 571.589844 C 1874.339844 549.03125 1865.5 537.949219 1857.570312 536.519531 C 1842.378906 533.640625 1831.28125 516.210938 1836.71875 503.289062 C 1838.070312 500.210938 1838.980469 495.289062 1838.980469 492.011719 C 1838.980469 487.289062 1837.851562 485.648438 1833.320312 484.621094 C 1827.199219 483.191406 1823.121094 478.269531 1823.121094 471.910156 C 1823.121094 466.980469 1806.121094 437.25 1799.320312 430.480469 C 1796.371094 427.609375 1792.519531 422.480469 1790.710938 418.988281 C 1788.671875 415.710938 1783 408.941406 1778.011719 404.429688 C 1768.949219 396.429688 1768.71875 395.609375 1768.71875 382.269531 C 1768.71875 369.558594 1768.269531 368.121094 1761.691406 363.199219 C 1733.808594 341.050781 1704.351562 291 1714.089844 281.570312 C 1715.230469 280.539062 1711.148438 269.871094 1703.890625 255.519531 C 1697.101562 242.191406 1691.660156 230.5 1691.660156 229.679688 C 1691.660156 228.648438 1694.378906 228.238281 1698 228.648438 C 1707.070312 229.878906 1702.308594 228.238281 1675.339844 221.269531 C 1650.179688 214.699219 1646.328125 214.910156 1639.75 222.089844 C 1638.171875 223.730469 1633.859375 225.78125 1630.011719 226.390625 C 1625.480469 227.421875 1621.621094 230.289062 1618.679688 234.808594 C 1616.179688 238.699219 1612.328125 242.800781 1610.058594 243.820312 C 1603.941406 246.691406 1592.160156 246.289062 1579.011719 242.800781 C 1572.660156 241.160156 1562.019531 238.699219 1555.441406 237.671875 C 1548.640625 236.441406 1540.261719 233.570312 1536.859375 231.320312 C 1533.230469 228.851562 1521.441406 225.371094 1509.660156 223.320312 C 1498.101562 221.269531 1486.988281 218.808594 1484.949219 218.191406 C 1482.460938 217.371094 1480.191406 218.191406 1478.148438 221.058594 C 1473.621094 227.621094 1470.21875 226.390625 1462.511719 215.109375 C 1458.890625 209.570312 1453.898438 204.648438 1451.859375 204.03125 C 1449.820312 203.621094 1436.21875 202.601562 1421.941406 201.78125 C 1388.398438 200.140625 1387.949219 199.929688 1387.949219 191.730469 C 1387.949219 183.730469 1382.28125 178.191406 1371.859375 176.351562 C 1366.871094 175.53125 1363.238281 173.058594 1360.75 168.960938 C 1355.078125 159.53125 1345.339844 159.53125 1333.78125 168.960938 C 1327.660156 173.878906 1319.949219 177.578125 1309.75 180.238281 C 1291.851562 184.960938 1289.359375 186.601562 1285.949219 195.621094 C 1283.910156 201.160156 1284.371094 204.441406 1288.21875 214.289062 C 1290.710938 220.859375 1292.75 228.441406 1292.75 231.109375 C 1292.75 239.929688 1285.730469 249.980469 1275.75 255.109375 C 1262.609375 262.078125 1254.679688 261.671875 1241.53125 253.058594 C 1218.640625 238.078125 1217.511719 237.671875 1202.769531 237.671875 C 1189.398438 237.671875 1178.96875 235.011719 1150.640625 224.339844 C 1142.03125 220.859375 1133.421875 210.808594 1129.570312 199.730469 C 1123.671875 182.910156 1119.820312 180.449219 1093.75 178.808594 C 1077.441406 177.578125 1075.851562 177.171875 1068.820312 170.398438 C 1062.25 164.25 1058.621094 162.808594 1045.019531 160.550781 C 1035.960938 159.121094 1024.171875 157.890625 1018.511719 157.679688 C 1001.28125 157.480469 991.535156 154.191406 986.320312 146.191406 C 981.5625 139.019531 978.84375 137.988281 973.402344 141.070312 C 971.136719 142.5 967.960938 141.480469 963.429688 137.988281 C 959.804688 135.320312 956.175781 133.070312 955.042969 133.070312 C 954.136719 133.070312 952.097656 130.398438 950.511719 127.121094 C 946.65625 118.511719 951.417969 110.300781 961.84375 107.230469 C 966.828125 105.789062 970.453125 102.921875 972.042969 99.429688 C 973.402344 96.558594 976.800781 92.25 979.523438 89.988281 C 987.90625 83.019531 986.320312 72.96875 975.441406 63.328125 C 967.507812 56.359375 966.378906 54.101562 966.378906 46.308594 C 966.378906 39.128906 967.960938 35.441406 974.535156 27.851562 C 982.242188 18.820312 983.148438 14.109375 976.800781 14.109375 C 975.214844 14.109375 971.589844 16.359375 968.640625 19.230469 L 963.203125 24.359375 L 951.871094 14.308594 C 940.792969 4.71875 934.449219 0.109375 928.046875 0.140625 Z M 928.046875 0.140625 "/>
<path fill-rule="nonzero" fill="rgb(0%, 0%, 0%)" fill-opacity="1" d="M 1981.089844 1580.320312 C 1978.371094 1582.78125 1979.28125 1586.679688 1984.039062 1591.601562 L 1988.339844 1596.519531 L 1988.570312 1591.191406 C 1988.570312 1585.441406 1983.589844 1578.058594 1981.089844 1580.320312 Z M 1981.089844 1580.320312 "/>
<path fill-rule="nonzero" fill="rgb(0%, 0%, 0%)" fill-opacity="1" d="M 2324.011719 1802.65625 C 2321.75 1802.65625 2316.308594 1806.347656 2311.769531 1810.859375 C 2307.238281 1815.371094 2303.609375 1819.882812 2303.609375 1820.703125 C 2303.609375 1821.726562 2306.109375 1824.394531 2309.28125 1826.855469 C 2312.460938 1829.316406 2314.949219 1832.398438 2314.949219 1833.832031 C 2314.949219 1837.730469 2292.738281 1855.980469 2287.980469 1855.980469 C 2281.628906 1855.980469 2276.421875 1861.519531 2276.421875 1868.085938 C 2276.421875 1871.367188 2274.148438 1875.675781 2270.75 1878.546875 C 2267.121094 1881.621094 2265.089844 1885.519531 2265.089844 1889.417969 C 2265.089844 1895.160156 2264.628906 1895.363281 2258.058594 1894.132812 C 2249.671875 1892.699219 2242.421875 1895.773438 2242.421875 1900.902344 C 2242.421875 1905.824219 2237.199219 1909.722656 2231.769531 1908.902344 C 2228.820312 1908.488281 2227.460938 1909.722656 2227.011719 1913.414062 C 2225.878906 1921.003906 2220.890625 1924.898438 2205.019531 1930.640625 C 2197.089844 1933.511719 2187.339844 1937.617188 2183.039062 1940.078125 C 2178.960938 1942.335938 2173.289062 1944.179688 2170.800781 1944.179688 C 2168.078125 1944.179688 2163.320312 1946.027344 2159.921875 1948.488281 C 2156.519531 1950.746094 2151.078125 1953.410156 2147.679688 1954.230469 C 2142.46875 1955.460938 2141.558594 1956.898438 2140.878906 1963.871094 C 2140.429688 1968.792969 2138.160156 1973.921875 2134.761719 1977 C 2127.511719 1984.175781 2123.199219 1992.382812 2118.890625 2007.765625 C 2114.589844 2022.941406 2115.71875 2028.683594 2124.789062 2037.914062 C 2128.410156 2041.605469 2131.808594 2047.347656 2132.71875 2050.425781 C 2133.398438 2053.503906 2134.988281 2058.628906 2136.121094 2061.910156 C 2139.96875 2072.78125 2138.390625 2086.113281 2132.5 2094.933594 C 2124.558594 2106.832031 2122.75 2110.320312 2120.03125 2119.960938 C 2118.441406 2125.703125 2113.679688 2132.675781 2105.519531 2140.46875 C 2098.949219 2147.03125 2091.699219 2155.234375 2089.660156 2158.929688 C 2083.539062 2169.800781 2084.890625 2183.132812 2093.960938 2198.515625 C 2099.398438 2208.359375 2102.351562 2216.769531 2103.929688 2228.460938 C 2108.699219 2262.304688 2110.28125 2266.199219 2124.328125 2278.097656 C 2131.359375 2284.042969 2140.199219 2289.582031 2144.050781 2290.605469 C 2159.46875 2294.503906 2185.078125 2286.300781 2211.589844 2269.277344 C 2227.910156 2258.816406 2229.269531 2256.5625 2234.488281 2229.488281 C 2236.53125 2218.820312 2240.148438 2208.566406 2244.460938 2202 C 2248.769531 2195.230469 2252.621094 2184.570312 2254.890625 2173.082031 C 2257.378906 2161.1875 2260.78125 2151.953125 2264.628906 2146.824219 C 2268.941406 2140.878906 2270.519531 2135.546875 2270.980469 2127.339844 C 2271.429688 2117.90625 2272.558594 2115.035156 2278.230469 2109.496094 C 2284.570312 2103.753906 2288.878906 2094.9375 2298.179688 2069.296875 C 2299.988281 2064.375 2304.070312 2057.8125 2307.238281 2054.734375 C 2314.269531 2047.964844 2316.988281 2038.121094 2317.21875 2018.839844 C 2317.21875 2000.789062 2321.75 1986.433594 2331.949219 1973.101562 C 2338.519531 1964.488281 2339.878906 1961 2339.878906 1951.769531 C 2339.878906 1938.640625 2341.238281 1937 2348.488281 1941.308594 C 2356.429688 1946.023438 2361.179688 1943.566406 2359.371094 1935.566406 C 2358.691406 1932.078125 2359.140625 1924.082031 2360.5 1917.722656 C 2363 1907.261719 2362.769531 1905.414062 2358.238281 1897.414062 C 2353.929688 1889.824219 2353.480469 1885.722656 2353.699219 1865.625 C 2354.160156 1844.085938 2353.929688 1841.832031 2348.488281 1833.421875 C 2345.320312 1828.292969 2341.921875 1821.113281 2341.011719 1817.625 C 2339.429688 1810.445312 2330.589844 1802.65625 2324.011719 1802.65625 Z M 2324.011719 1802.65625 "/>
</svg>
