<svg width="44" height="44" viewBox="0 0 44 44" fill="none" xmlns="http://www.w3.org/2000/svg">
<g opacity="0.88">
<g opacity="0.88">
<path d="M31.511 17.0294C30.8187 17.6986 30.2714 18.503 29.903 19.3926C29.5346 20.2822 29.353 21.238 29.3694 22.2007C29.353 23.1634 29.5346 24.1192 29.903 25.0088C30.2714 25.8984 30.8187 26.7028 31.511 27.372C32.1842 28.0624 32.991 28.6085 33.8822 28.9768C34.7734 29.3452 35.7303 29.5281 36.6946 29.5144C37.6549 29.5288 38.608 29.3461 39.4949 28.9776C40.3819 28.6091 41.1838 28.0626 41.8512 27.372C43.1538 26.112 43.9181 24.3968 43.984 22.5858C43.984 22.4514 43.9928 22.3258 43.9928 22.2004V22.0123C43.9836 21.0811 43.7896 20.1611 43.4219 19.3056C43.0543 18.4501 42.5204 17.6761 41.8512 17.0285C41.1848 16.3369 40.3829 15.7901 39.4957 15.4223C38.6084 15.0545 37.6549 14.8735 36.6946 14.8908C35.7303 14.8744 34.7729 15.0557 33.8814 15.4235C32.9899 15.7913 32.1832 16.3379 31.511 17.0294ZM36.6949 19.2972C37.0806 19.2859 37.4646 19.3541 37.8229 19.4975C38.1812 19.6409 38.5062 19.8564 38.7777 20.1307C39.0528 20.3981 39.2703 20.7189 39.417 21.0734C39.5636 21.4279 39.6363 21.8086 39.6305 22.1922C39.6364 22.5771 39.5638 22.9592 39.4172 23.3152C39.2706 23.6711 39.053 23.9934 38.7777 24.2625C38.5064 24.5389 38.182 24.7575 37.8241 24.9054C37.4662 25.0533 37.0821 25.1272 36.6949 25.1229C36.3142 25.1269 35.9369 25.0526 35.5862 24.9046C35.2355 24.7566 34.919 24.538 34.6564 24.2625C34.3812 23.9933 34.1638 23.671 34.0172 23.3151C33.8706 22.9591 33.798 22.5771 33.8039 22.1922C33.7981 21.8087 33.8707 21.428 34.0173 21.0735C34.1639 20.719 34.3814 20.3982 34.6564 20.1307C34.9192 19.8572 35.2363 19.6417 35.5874 19.4982C35.9385 19.3546 36.3157 19.2862 36.6949 19.2972Z" fill="#FE6300"/>
</g>
<g opacity="0.88">
<path d="M31.5309 6.53723C30.8393 7.2058 30.2925 8.0094 29.9245 8.89814C29.5565 9.78688 29.3751 10.7418 29.3917 11.7036C29.3751 12.6653 29.5565 13.6202 29.9245 14.509C30.2925 15.3977 30.8393 16.2013 31.5309 16.8699C32.2034 17.5596 33.0094 18.105 33.8997 18.473C34.79 18.8409 35.746 19.0236 36.7092 19.01C37.6685 19.0244 38.6206 18.8419 39.5067 18.4738C40.3927 18.1057 41.1939 17.5598 41.8606 16.8699C43.1618 15.6112 43.9253 13.8978 43.9911 12.0886C43.9911 11.9542 43.9998 11.8289 43.9998 11.7036V11.5154C43.9906 10.5853 43.7968 9.66631 43.4296 8.81174C43.0623 7.95716 42.529 7.18403 41.8606 6.53723C41.1949 5.84628 40.3938 5.30001 39.5075 4.93254C38.6211 4.56508 37.6685 4.38431 36.7092 4.40151C35.746 4.38503 34.7896 4.56603 33.899 4.93334C33.0084 5.30066 32.2024 5.8465 31.5309 6.53723ZM36.7095 8.80266C37.0948 8.79144 37.4784 8.85956 37.8363 9.0028C38.1942 9.14605 38.5188 9.36135 38.79 9.63533C39.0648 9.90247 39.2821 10.223 39.4285 10.5771C39.575 10.9313 39.6475 11.3116 39.6416 11.6948C39.6475 12.0793 39.5751 12.461 39.4287 12.8166C39.2822 13.1721 39.0649 13.4942 38.79 13.763C38.519 14.0391 38.195 14.2575 37.8375 14.4052C37.48 14.5529 37.0963 14.6268 36.7095 14.6226C36.3292 14.6266 35.9522 14.5524 35.6019 14.4045C35.2516 14.2566 34.9354 14.0383 34.6731 13.763C34.3983 13.4941 34.181 13.172 34.0346 12.8165C33.8882 12.4609 33.8157 12.0793 33.8214 11.6948C33.8156 11.3116 33.8882 10.9313 34.0346 10.5771C34.1811 10.223 34.3984 9.9025 34.6731 9.63533C34.9357 9.36231 35.2526 9.14728 35.6033 9.00408C35.954 8.86088 36.3308 8.79266 36.7095 8.80383V8.80266Z" fill="#FE6300"/>
</g>
<g opacity="0.88">
<path d="M16.839 17.0294C16.1467 17.6986 15.5994 18.503 15.231 19.3926C14.8626 20.2822 14.681 21.238 14.6974 22.2007C14.681 23.1634 14.8626 24.1193 15.231 25.0089C15.5994 25.8984 16.1467 26.7028 16.839 27.372C17.5122 28.0624 18.319 28.6085 19.2102 28.9768C20.1014 29.3452 21.0583 29.5281 22.0226 29.5144C22.9829 29.5288 23.936 29.3461 24.8229 28.9776C25.7099 28.6091 26.5118 28.0627 27.1793 27.372C28.482 26.1122 29.2463 24.3969 29.312 22.5858C29.312 22.4514 29.3211 22.3258 29.3211 22.2004V22.0123C29.3119 21.0811 29.1179 20.1611 28.7502 19.3056C28.3826 18.4501 27.8487 17.6761 27.1795 17.0285C26.5131 16.3369 25.7112 15.7901 24.824 15.4223C23.9367 15.0545 22.9832 14.8735 22.0229 14.8908C21.0585 14.8743 20.1011 15.0556 19.2095 15.4234C18.318 15.7913 17.5112 16.3378 16.839 17.0294ZM22.0229 19.2972C22.4086 19.2859 22.7925 19.3541 23.1508 19.4975C23.509 19.6409 23.834 19.8564 24.1054 20.1307C24.3805 20.3981 24.5981 20.7189 24.7447 21.0734C24.8914 21.4279 24.964 21.8086 24.9582 22.1922C24.9641 22.5771 24.8916 22.9592 24.7449 23.3152C24.5983 23.6711 24.3807 23.9934 24.1054 24.2625C23.8342 24.5388 23.5099 24.7575 23.152 24.9054C22.7941 25.0532 22.41 25.1272 22.0229 25.1229C21.6422 25.1269 21.2649 25.0526 20.9142 24.9046C20.5635 24.7566 20.2471 24.538 19.9844 24.2625C19.7093 23.9934 19.4918 23.671 19.3452 23.3151C19.1986 22.9592 19.1261 22.5771 19.1319 22.1922C19.1261 21.8087 19.1987 21.428 19.3453 21.0735C19.4919 20.719 19.7094 20.3982 19.9844 20.1307C20.2472 19.8572 20.5643 19.6417 20.9154 19.4982C21.2665 19.3546 21.6437 19.2862 22.0229 19.2972Z" fill="#FE6300"/>
</g>
<g opacity="0.88">
<path d="M16.8367 6.53723C16.1451 7.20579 15.5983 8.0094 15.2303 8.89814C14.8623 9.78688 14.6809 10.7418 14.6974 11.7036C14.6809 12.6653 14.8623 13.6202 15.2303 14.509C15.5983 15.3977 16.1451 16.2013 16.8367 16.8699C17.5092 17.5596 18.3152 18.105 19.2055 18.473C20.0958 18.8409 21.0517 19.0236 22.015 19.01C22.9743 19.0244 23.9263 18.8419 24.8123 18.4738C25.6983 18.1057 26.4994 17.5598 27.1661 16.8699C28.4673 15.6112 29.2308 13.8978 29.2966 12.0886C29.2966 11.9542 29.3056 11.8289 29.3056 11.7036V11.5154C29.2963 10.5853 29.1024 9.6663 28.7352 8.81173C28.3679 7.95716 27.8346 7.18404 27.1661 6.53723C26.5004 5.84629 25.6994 5.30002 24.8131 4.93256C23.9268 4.56509 22.9743 4.38431 22.015 4.40151C21.0517 4.38503 20.0953 4.56603 19.2047 4.93334C18.3141 5.30066 17.5082 5.8465 16.8367 6.53723ZM22.0153 8.80266C22.4006 8.79142 22.7841 8.85953 23.1421 9.00278C23.5 9.14602 23.8246 9.36133 24.0958 9.63533C24.3706 9.90246 24.5879 10.2229 24.7344 10.5771C24.8809 10.9312 24.9535 11.3116 24.9477 11.6948C24.9536 12.0793 24.881 12.461 24.7346 12.8166C24.5881 13.1722 24.3707 13.4942 24.0958 13.763C23.8248 14.0391 23.5008 14.2575 23.1433 14.4052C22.7858 14.5529 22.4021 14.6269 22.0153 14.6226C21.6351 14.6266 21.2581 14.5523 20.9079 14.4045C20.5576 14.2566 20.2415 14.0383 19.9792 13.763C19.7043 13.4941 19.4871 13.172 19.3407 12.8165C19.1943 12.4609 19.1217 12.0793 19.1275 11.6948C19.1217 11.3116 19.1943 10.9313 19.3407 10.5771C19.4872 10.223 19.7044 9.9025 19.9792 9.63533C20.2418 9.36235 20.5586 9.14734 20.9092 9.00414C21.2599 8.86093 21.6367 8.7927 22.0153 8.80383V8.80266Z" fill="#FE6300"/>
</g>
<g opacity="0.88">
<path d="M2.14259 17.0294C1.45032 17.6986 0.902984 18.503 0.534584 19.3926C0.166184 20.2822 -0.0154223 21.238 0.00102523 22.2007C-0.0154223 23.1634 0.166184 24.1192 0.534584 25.0088C0.902984 25.8984 1.45032 26.7028 2.14259 27.372C2.81581 28.0624 3.62263 28.6085 4.51383 28.9768C5.40503 29.3452 6.36193 29.5281 7.32616 29.5144C8.28649 29.5288 9.23957 29.3461 10.1265 28.9776C11.0134 28.6091 11.8154 28.0626 12.4828 27.372C13.7854 26.112 14.5497 24.3968 14.6156 22.5858C14.6156 22.4514 14.6244 22.3258 14.6244 22.2004V22.0123C14.6152 21.0811 14.4211 20.1611 14.0535 19.3056C13.6859 18.4501 13.152 17.6761 12.4828 17.0285C11.8164 16.3369 11.0145 15.7901 10.1273 15.4223C9.24001 15.0545 8.28647 14.8735 7.32616 14.8908C6.36189 14.8744 5.40449 15.0557 4.51298 15.4235C3.62147 15.7913 2.81476 16.3378 2.14259 17.0294ZM7.32644 19.2972C7.71217 19.2859 8.09608 19.3541 8.45433 19.4975C8.81259 19.6409 9.13754 19.8565 9.40898 20.1307C9.68403 20.3981 9.90153 20.7189 10.0481 21.0734C10.1947 21.4279 10.2673 21.8087 10.2615 22.1922C10.2675 22.5771 10.1949 22.9592 10.0484 23.3151C9.90179 23.6711 9.68424 23.9934 9.40898 24.2625C9.13773 24.5388 8.81343 24.7575 8.45556 24.9053C8.09769 25.0532 7.71363 25.1272 7.32644 25.1229C6.94583 25.1269 6.56847 25.0526 6.21779 24.9046C5.86712 24.7566 5.55064 24.538 5.28802 24.2625C5.01277 23.9934 4.79522 23.6711 4.64864 23.3151C4.50207 22.9592 4.42953 22.5771 4.43548 22.1922C4.42965 21.8087 4.50227 21.4279 4.64888 21.0734C4.79548 20.7189 5.01297 20.3981 5.28802 20.1307C5.5508 19.8572 5.86791 19.6417 6.21899 19.4982C6.57006 19.3546 6.94731 19.2862 7.32644 19.2972Z" fill="#FE6300"/>
</g>
<g opacity="0.88">
<path d="M2.14055 6.53723C1.44888 7.20576 0.902055 8.00935 0.534002 8.89809C0.16595 9.78683 -0.015466 10.7418 0.0010323 11.7036C-0.0154485 12.6653 0.165969 13.6203 0.53402 14.509C0.902072 15.3977 1.4489 16.2013 2.14055 16.8699C2.81311 17.5596 3.61911 18.105 4.5094 18.473C5.39969 18.8409 6.35562 19.0236 7.31885 19.01C8.27815 19.0243 9.23021 18.8418 10.1162 18.4737C11.0022 18.1056 11.8033 17.5598 12.47 16.8699C13.7711 15.6112 14.5346 13.8977 14.6004 12.0886C14.6004 11.9542 14.6092 11.8289 14.6092 11.7036V11.5154C14.6 10.5853 14.4061 9.66632 14.0389 8.81175C13.6717 7.95718 13.1384 7.18405 12.47 6.53723C11.8043 5.8463 11.0033 5.30004 10.117 4.93258C9.23069 4.56511 8.27815 4.38433 7.31885 4.40151C6.35562 4.38503 5.39921 4.56602 4.50861 4.93334C3.61802 5.30065 2.8121 5.8465 2.14055 6.53723ZM7.31914 8.80266C7.70448 8.79142 8.08802 8.85953 8.44592 9.00277C8.80383 9.14602 9.12846 9.36133 9.39964 9.63533C9.67443 9.90247 9.89172 10.2229 10.0382 10.5771C10.1846 10.9312 10.2571 11.3116 10.2513 11.6948C10.2572 12.0793 10.1847 12.461 10.0383 12.8165C9.89188 13.1721 9.67458 13.4942 9.39964 13.763C9.12867 14.0391 8.80469 14.2575 8.44717 14.4052C8.08965 14.5529 7.70595 14.6269 7.31914 14.6226C6.9389 14.6266 6.5619 14.5524 6.21158 14.4045C5.86125 14.2567 5.54509 14.0383 5.28277 13.763C5.00782 13.4942 4.79052 13.1721 4.6441 12.8165C4.49768 12.461 4.42521 12.0793 4.43112 11.6948C4.42526 11.3116 4.49778 10.9312 4.64423 10.5771C4.79068 10.2229 5.00798 9.90247 5.28277 9.63533C5.54537 9.36229 5.86223 9.14725 6.21295 9.00405C6.56367 8.86084 6.94047 8.79264 7.31914 8.80383V8.80266Z" fill="#FE6300"/>
</g>
</g>
<path d="M17.6133 38.9754C19.0969 38.964 20.0143 38.2158 20.0257 37.1055C20.0029 36.0523 19.1536 35.6558 17.9531 35.1463C17.3077 34.8982 16.979 34.6946 16.979 34.3548C16.979 33.9583 17.4207 33.8339 17.8058 33.8453C18.3758 33.9123 18.9185 34.127 19.38 34.4682L19.7779 33.3469C19.228 32.8945 18.5406 32.6428 17.8286 32.6331C16.5261 32.6106 15.5521 33.3469 15.5415 34.3887C15.5415 35.3628 16.073 35.8156 17.8853 36.4838C18.4404 36.6991 18.6668 36.9142 18.6668 37.1748C18.6668 37.5712 18.2479 37.7977 17.6136 37.7977C16.8784 37.7504 16.1821 37.4504 15.6429 36.9484L15.0764 37.9572C15.7574 38.6137 16.6674 38.9789 17.6133 38.9754ZM24.4426 32.6445C24.043 32.6225 23.6449 32.71 23.2914 32.8976C22.9379 33.0852 22.6423 33.3658 22.4366 33.7091V32.7567H21.0222V41.3878H22.4366V37.843C22.643 38.1853 22.9385 38.4652 23.2915 38.6527C23.6446 38.8402 24.0419 38.9283 24.4411 38.9076C26.2306 38.9076 27.4536 37.5826 27.4536 35.7931V35.7703C27.4551 33.9922 26.2432 32.6445 24.4426 32.6445ZM26.0168 35.7817C26.0258 36.012 25.9883 36.2416 25.9064 36.457C25.8245 36.6724 25.7 36.869 25.5403 37.0351C25.3806 37.2012 25.189 37.3333 24.977 37.4235C24.765 37.5138 24.537 37.5603 24.3066 37.5603C24.0762 37.5603 23.8482 37.5138 23.6362 37.4235C23.4242 37.3333 23.2326 37.2012 23.0729 37.0351C22.9132 36.869 22.7887 36.6724 22.7068 36.457C22.6249 36.2416 22.5874 36.012 22.5964 35.7817V35.759C22.589 35.5293 22.6282 35.3005 22.7117 35.0864C22.7952 34.8723 22.9212 34.6773 23.0821 34.5133C23.243 34.3492 23.4355 34.2195 23.6479 34.1319C23.8604 34.0443 24.0884 34.0007 24.3181 34.0036C24.5475 33.9983 24.7755 34.0405 24.9878 34.1276C25.2001 34.2147 25.392 34.3447 25.5516 34.5096C25.7112 34.6745 25.8349 34.8706 25.915 35.0856C25.9951 35.3006 26.0299 35.5299 26.0171 35.759L26.0168 35.7817ZM31.5322 38.8962C31.9465 38.908 32.3588 38.8353 32.744 38.6825C33.1292 38.5298 33.4792 38.3001 33.7728 38.0076C34.0663 37.7152 34.2972 37.3659 34.4514 36.9813C34.6056 36.5966 34.6798 36.1846 34.6695 35.7703V35.7479C34.6591 34.9207 34.3224 34.1312 33.7328 33.551C33.1432 32.9709 32.3483 32.6471 31.5211 32.6501C30.6939 32.6531 29.9014 32.9826 29.316 33.5671C28.7306 34.1515 28.3997 34.9435 28.3953 35.7706V35.782C28.3853 36.1957 28.4597 36.607 28.6141 36.9909C28.7685 37.3747 28.9996 37.7231 29.2932 38.0146C29.5869 38.3061 29.9369 38.5346 30.3218 38.6862C30.7068 38.8378 31.1187 38.9092 31.5322 38.8962ZM31.5436 37.5482C31.3133 37.5498 31.085 37.5049 30.8724 37.4161C30.6598 37.3273 30.4674 37.1965 30.3066 37.0315C30.1459 36.8665 30.0201 36.6707 29.9368 36.4559C29.8536 36.2411 29.8146 36.0117 29.8222 35.7814V35.759C29.8132 35.5287 29.8507 35.299 29.9326 35.0837C30.0145 34.8683 30.139 34.6717 30.2987 34.5056C30.4584 34.3395 30.65 34.2074 30.862 34.1172C31.0739 34.0269 31.302 33.9804 31.5324 33.9804C31.7628 33.9804 31.9908 34.0269 32.2028 34.1172C32.4148 34.2074 32.6064 34.3395 32.7661 34.5056C32.9258 34.6717 33.0503 34.8683 33.1322 35.0837C33.214 35.299 33.2516 35.5287 33.2426 35.759V35.7817C33.2545 36.0112 33.2193 36.2406 33.139 36.4559C33.0588 36.6711 32.9352 36.8676 32.776 37.0332C32.6167 37.1988 32.4252 37.3299 32.2132 37.4185C32.0012 37.5071 31.7733 37.5512 31.5436 37.5482ZM35.78 38.7826H37.1958V35.7367C37.1958 34.8194 38.0904 34.0267 39.0984 34.0267H39.2681V32.6787C38.8346 32.6694 38.4078 32.7865 38.0397 33.0158C37.6717 33.2451 37.3783 33.5765 37.1955 33.9697V32.7567H35.7794L35.78 38.7826ZM42.6318 38.907C43.085 38.9056 43.5329 38.8092 43.9466 38.6239V37.4465C43.6415 37.5383 43.3252 37.5875 43.0067 37.5926C42.9048 37.6013 42.8023 37.5871 42.7067 37.551C42.611 37.5148 42.5247 37.4577 42.4541 37.3838C42.3835 37.3099 42.3303 37.2212 42.2985 37.124C42.2667 37.0268 42.2571 36.9238 42.2704 36.8224V34.0942H43.9466V32.7567H42.269V31.0703H40.8531V32.7567H40.0833V34.0942H40.8534V37.1067C40.8531 38.3414 41.5327 38.9076 42.6312 38.9076L42.6318 38.907Z" fill="#FE6300"/>
</svg>
