<svg viewBox="0 0 32 32" xmlns="http://www.w3.org/2000/svg">
	<path d="M4.95991 29.0242C9.84297 29.0242 12.2815 23.7684 14.3832 18.5126C16.2838 13.7881 18.1134 9.30024 21.6043 8.05051C21.6787 8.01011 21.7391 7.94851 21.7775 7.87372C21.816 7.79894 21.8308 7.71445 21.8199 7.63126C21.8091 7.54807 21.7731 7.47003 21.7167 7.40732C21.6603 7.3446 21.5861 7.30012 21.5038 7.27966C15.1635 7.01395 12.181 14.0451 9.91096 19.6046C7.87733 24.5247 6.55311 26.8372 4.69093 26.8372C3.23074 26.8372 2.45335 25.7306 2.45335 23.7888C2.45335 17.6395 10.7682 4.83861 22.0447 4.83861C25.8075 4.83861 28.0451 6.21097 28.0451 8.45638C28.0451 11.604 25.0272 13.9809 19.2662 15.3211C18.8583 15.4204 18.7223 15.6131 18.7223 15.8554C18.7223 16.0978 18.8938 16.2905 19.2662 16.492C20.8919 17.295 21.5718 18.568 21.5718 20.0747C21.5718 22.5537 19.7391 25.532 17.5696 25.532C17.3474 25.534 17.1275 25.4882 16.9252 25.3977C17.1301 25.0056 17.2318 24.5687 17.2208 24.1275C17.2208 23.0559 16.3724 22.1508 15.4236 22.1508C15.195 22.1534 14.9693 22.201 14.7596 22.2909C14.5499 22.3808 14.3605 22.5112 14.2024 22.6744C14.0444 22.8376 13.921 23.0303 13.8393 23.2412C13.7577 23.4521 13.7195 23.677 13.727 23.9027C13.727 25.8474 15.5596 27.2197 18.2021 27.2197C22.3728 27.2197 25.3553 24.2064 25.3553 20.7229C25.3553 18.679 24.1729 17.038 22.0004 16.1007C28.2372 15.2247 32 12.4859 32 8.56734C32 5.25324 28.5742 2.97571 23.2536 2.97571C9.83115 2.97571 0 13.9254 0 23.0997C0.0118234 26.7817 1.84149 29.0242 4.95991 29.0242Z" fill="#FFFFFF"/>
</svg>