<?xml version="1.0" encoding="UTF-8"?>
<svg version="1.1" xmlns="http://www.w3.org/2000/svg" width="2000" height="346">
<path d="M0 0 C18.48 0 36.96 0 56 0 C56.33 38.28 56.66 76.56 57 116 C60.3 113.03 63.6 110.06 67 107 C69.55484056 105.36947167 71.80255725 104.01705633 74.5 102.75 C75.16870117 102.42700928 75.83740234 102.10401855 76.52636719 101.77124023 C81.63262589 99.40856372 86.84354758 97.60621471 92.25 96.0625 C92.94544922 95.86301758 93.64089844 95.66353516 94.35742188 95.45800781 C104.53799403 92.79663737 115.14896177 92.84772939 125.60546875 92.8671875 C126.7689534 92.86623077 127.93243805 92.86527405 129.13117981 92.86428833 C131.577444 92.8636123 134.02371003 92.86542599 136.4699707 92.86962891 C140.16036131 92.87496079 143.85062886 92.86967664 147.54101562 92.86328125 C180.72254337 92.85097315 180.72254337 92.85097315 196.625 95.75 C198.08764282 96.0133313 198.08764282 96.0133313 199.57983398 96.28198242 C217.1689979 99.60220048 233.55865653 105.91490019 247 118 C247.62261719 118.52980469 248.24523437 119.05960937 248.88671875 119.60546875 C264.83733391 134.12232075 270.90870618 158.47070608 272.13130188 179.22940063 C272.64238523 190.90035878 272.57723969 202.590482 272.52148438 214.26977539 C272.49867968 219.09612334 272.51223499 223.92158976 272.53525734 228.74790764 C272.67088633 262.26777525 272.09392713 294.47928571 247.09765625 319.9375 C229.88545318 335.70655312 207.5756534 341.97015998 185 345 C183.33807617 345.25910156 183.33807617 345.25910156 181.64257812 345.5234375 C175.31116228 346.30368549 168.9320844 346.18535612 162.5625 346.203125 C161.87269043 346.20595238 161.18288086 346.20877975 160.47216797 346.21169281 C156.81623972 346.22661801 153.16035019 346.23588761 149.50439453 346.24023438 C145.77758335 346.24568721 142.05114336 346.26966637 138.32444763 346.29820633 C135.41574154 346.31707578 132.50712021 346.32205116 129.59835815 346.32357025 C127.57146935 346.32796987 125.54462639 346.34649671 123.51782227 346.36553955 C99.22185759 346.30832107 76.01407879 338.61815386 58 322 C57.67 321.34 57.34 320.68 57 320 C56.90912109 321.93166016 56.90912109 321.93166016 56.81640625 323.90234375 C56.73201753 325.58074159 56.6473687 327.25912636 56.5625 328.9375 C56.52318359 329.78763672 56.48386719 330.63777344 56.44335938 331.51367188 C56.38051758 332.72700195 56.38051758 332.72700195 56.31640625 333.96484375 C56.27974854 334.7137085 56.24309082 335.46257324 56.20532227 336.23413086 C56 338 56 338 55 339 C36.85 339 18.7 339 0 339 C0 227.13 0 115.26 0 0 Z M66.125 154.6875 C58.91702074 163.58944081 55.69452535 175.61281459 55.70947266 186.90625 C55.70275543 187.6522496 55.69603821 188.39824921 55.68911743 189.16685486 C55.67026284 191.61130615 55.66621868 194.05548069 55.6640625 196.5 C55.65762249 198.22143663 55.65089327 199.94287221 55.64389038 201.66430664 C55.63194637 205.26858043 55.62820624 208.87275862 55.62939453 212.47705078 C55.62959677 217.05143662 55.60238045 221.62519457 55.56785011 226.19943237 C55.54538612 229.75668029 55.541563 233.31378223 55.54261398 236.87109375 C55.54028391 238.55487211 55.53161045 240.23865615 55.51594925 241.92236328 C55.38682537 257.24695976 56.63398977 272.79749189 67 285 C86.11783959 303.36137832 116.69367129 302.45092343 141.546875 302.15234375 C174.87028673 301.58941709 174.87028673 301.58941709 203.875 286.875 C219.17280474 269.78623275 217.18690836 243.40179802 217.18530273 222.01806641 C217.18748586 218.77102474 217.20568872 215.52432549 217.22460938 212.27734375 C217.38910809 180.78007904 217.38910809 180.78007904 204 153 C194.72825507 143.91747435 180.76249576 139.94722084 168.125 138.8125 C167.25915283 138.73354492 166.39330566 138.65458984 165.5012207 138.57324219 C112.14998243 133.71865088 112.14998243 133.71865088 66.125 154.6875 Z " fill="#1C1A16" transform="translate(489,0)"/>
<path d="M0 0 C3.43762634 0.0053557 6.87512177 0.00002694 10.31274414 -0.00634766 C26.34797335 -0.01270809 42.30946895 -0.00553816 58.13500977 2.88037109 C59.11155518 3.05665039 60.08810059 3.23292969 61.09423828 3.41455078 C84.25681195 7.7951613 106.34240009 17.66999503 120.16235352 37.50146484 C129.51417499 52.37395446 133.64290275 69.20648707 133.63026428 86.69812012 C133.63154592 87.77418038 133.63154592 87.77418038 133.63285345 88.87197924 C133.63448744 91.25175587 133.62902131 93.63146044 133.62353516 96.01123047 C133.62325281 97.72667438 133.62341195 99.44211841 133.62397766 101.15756226 C133.62426378 105.79744708 133.61839706 110.43730588 133.6114037 115.07718468 C133.60513925 119.93251792 133.60456392 124.78785181 133.6033783 129.64318848 C133.60027409 138.8298297 133.59207298 148.01645898 133.58202881 157.20309496 C133.57083938 167.66499032 133.56535009 178.12688626 133.56033337 188.58878613 C133.5498896 210.10265444 133.53230781 231.61651201 133.51000977 253.13037109 C125.69548225 253.15563672 117.88096518 253.17320215 110.06640625 253.18530273 C107.40559495 253.19034492 104.74478645 253.19717845 102.08398438 253.20581055 C98.26895461 253.21788118 94.45396133 253.22360039 90.63891602 253.22802734 C88.84207115 253.23576927 88.84207115 253.23576927 87.00892639 253.2436676 C85.35732765 253.2437809 85.35732765 253.2437809 83.67236328 253.24389648 C82.21009056 253.2472274 82.21009056 253.2472274 80.71827698 253.25062561 C78.51000977 253.13037109 78.51000977 253.13037109 77.51000977 252.13037109 C77.42349366 250.71466986 77.40296073 249.29477609 77.41235352 247.87646484 C77.41557617 247.02246094 77.41879883 246.16845703 77.42211914 245.28857422 C77.43049805 244.39074219 77.43887695 243.49291016 77.44750977 242.56787109 C77.45202148 241.66617188 77.4565332 240.76447266 77.46118164 239.83544922 C77.47300752 237.60035796 77.48948756 235.36539673 77.51000977 233.13037109 C77.0859082 233.72205078 76.66180664 234.31373047 76.22485352 234.92333984 C67.35907473 246.86778467 57.21993654 250.51155494 42.66726685 252.69657898 C33.83189901 253.75107561 24.84539324 253.43780101 15.96313477 253.43115234 C13.78041504 253.4350488 11.59769606 253.43938539 9.41497803 253.44413757 C4.8561354 253.45156479 0.29737027 253.45133438 -4.26147461 253.44604492 C-10.05849825 253.44026028 -15.85520134 253.45717443 -21.65217209 253.4803896 C-26.15649217 253.49523475 -30.660737 253.49598399 -35.16507721 253.49287987 C-37.30016971 253.49338785 -39.43526703 253.4985254 -41.57033539 253.50869179 C-66.94235231 253.61468475 -92.01826865 250.38959194 -111.39233398 232.31396484 C-127.01263295 216.05372811 -129.04854675 193.53341543 -128.93603516 172.04370117 C-128.92747893 169.56459476 -128.95652897 167.087771 -128.98803711 164.60888672 C-129.06899893 145.97246644 -125.53250001 128.21232187 -112.48999023 114.13037109 C-89.33070011 91.79954338 -54.68130417 88.99153292 -24.07983398 88.96240234 C-22.20854576 88.95740974 -22.20854576 88.95740974 -20.29945374 88.95231628 C-17.67327235 88.94728299 -15.04708464 88.94490684 -12.42089844 88.94506836 C-8.46269841 88.94289047 -4.50478145 88.92471909 -0.54663086 88.90576172 C55.53388667 88.78129842 55.53388667 88.78129842 76.51000977 108.13037109 C76.61027328 103.52634756 76.68212109 98.92298477 76.72973633 94.31811523 C76.74962341 92.75778102 76.77674329 91.19751901 76.81176758 89.63745117 C77.06078882 78.24472932 76.93439589 66.60228712 69.76000977 57.06787109 C56.71678749 43.82801733 31.09255547 46.08422814 14.15332031 45.89160156 C-20.96359197 44.93934794 -20.96359197 44.93934794 -52.22436523 58.61865234 C-56.76106361 63.32379249 -58.59767165 68.97477006 -60.48999023 75.13037109 C-67.05543623 73.18321387 -73.59383966 71.16665419 -80.11108398 69.06396484 C-80.97766129 68.78440445 -81.84423859 68.50484406 -82.73707581 68.21681213 C-84.54807457 67.63177211 -86.3588588 67.0460676 -88.16943359 66.4597168 C-90.02000946 65.86131424 -91.87125709 65.26498548 -93.72314453 64.6706543 C-96.41643138 63.80625079 -99.10770104 62.93581867 -101.79858398 62.06396484 C-102.62668076 61.79933945 -103.45477753 61.53471405 -104.30796814 61.2620697 C-105.07629471 61.01163406 -105.84462128 60.76119843 -106.63623047 60.50317383 C-107.31000229 60.28572006 -107.98377411 60.0682663 -108.67796326 59.84422302 C-110.48999023 59.13037109 -110.48999023 59.13037109 -113.48999023 57.13037109 C-112.7778119 43.12419725 -106.93018707 32.24640709 -97.05249023 22.63037109 C-83.77579547 11.10270199 -67.06927445 5.94025964 -50.05249023 2.88037109 C-49.14821289 2.71698242 -48.24393555 2.55359375 -47.31225586 2.38525391 C-31.65211295 -0.21737084 -15.82495959 -0.02929088 0 0 Z M-68.48999023 147.13037109 C-73.30168423 154.26766474 -73.10659329 162.19824172 -73.01147461 170.46899414 C-72.98999371 172.6925111 -73.01136786 174.91281054 -73.03686523 177.13623047 C-73.05488755 186.28938662 -72.45444039 192.87583922 -65.92749023 199.88037109 C-44.27493713 215.87740659 -1.42132013 209.63687971 23.76000977 208.25537109 C24.877491 208.19656265 24.877491 208.19656265 26.01754761 208.13656616 C51.16608457 207.06635089 51.16608457 207.06635089 72.51000977 195.13037109 C78.06448647 188.44232772 77.81447419 181.89406315 77.94750977 173.56787109 C77.99327148 172.42511719 78.0390332 171.28236328 78.08618164 170.10498047 C78.19334475 161.95592482 76.67808479 156.51118233 71.51000977 150.13037109 C52.93160204 131.94001781 21.38812496 134.50748364 -2.56524658 134.68084717 C-5.72613015 134.69693621 -8.88671518 134.68687267 -12.04760647 134.67672825 C-15.14069485 134.6697111 -18.23361099 134.67762557 -21.32667732 134.68998528 C-22.7804199 134.69442917 -24.23418142 134.69490019 -25.68792534 134.69091988 C-40.41006853 134.66943439 -57.70323905 135.84191055 -68.48999023 147.13037109 Z " fill="#1C1A16" transform="translate(1528.489990234375,92.86962890625)"/>
<path d="M0 0 C2.00426749 0.00195366 4.00849125 0.00000155 6.01275635 -0.00341797 C45.39388061 -0.06614597 45.39388061 -0.06614597 61.44122314 3.25195312 C62.50292725 3.47004639 63.56463135 3.68813965 64.6585083 3.9128418 C78.84807699 7.0003769 90.62933522 11.88455802 101.94122314 21.12695312 C103.07624268 21.92359375 103.07624268 21.92359375 104.23419189 22.73632812 C105.07917236 23.4246875 105.07917236 23.4246875 105.94122314 24.12695312 C105.94122314 24.78695312 105.94122314 25.44695312 105.94122314 26.12695312 C106.60122314 26.12695312 107.26122314 26.12695312 107.94122314 26.12695312 C109.4661649 27.99043195 110.83747649 29.83080903 112.19122314 31.81445312 C112.59236328 32.40170166 112.99350342 32.9889502 113.40679932 33.59399414 C126.25713513 52.89911881 129.29514589 74.540022 129.17169189 97.21289062 C129.17049566 98.69121256 129.17004787 100.16953527 129.17030334 101.64785767 C129.16875738 104.7083224 129.16060416 107.76866699 129.14703369 110.82910156 C129.12983408 114.75771897 129.12622633 118.68620794 129.12697887 122.61485863 C129.12670801 125.6499047 129.12124377 128.68492254 129.11397743 131.71995926 C129.11079384 133.17049573 129.10882408 134.62103539 129.10808372 136.07157516 C129.10592882 138.08141992 129.09640434 140.09125278 129.08648682 142.10107422 C129.08267502 143.24385834 129.07886322 144.38664246 129.07493591 145.5640564 C128.94122314 148.12695312 128.94122314 148.12695312 127.94122314 149.12695312 C125.24791545 149.22479724 122.58026146 149.25689107 119.88652039 149.24720764 C118.60504508 149.24848928 118.60504508 149.24848928 117.29768139 149.24979681 C114.41248375 149.25145424 111.52734324 149.24592596 108.64215088 149.24047852 C106.58291627 149.24019667 104.52368157 149.24035432 102.46444702 149.24092102 C96.85517227 149.24120912 91.2459187 149.23531047 85.63664889 149.22834706 C79.78163684 149.2221155 73.92662435 149.22150988 68.0716095 149.22032166 C56.97581554 149.21720775 45.88003137 149.20899358 34.78424174 149.19897217 C22.15568141 149.18781285 9.52712062 149.18230104 -3.10144341 149.17727673 C-29.08722667 149.16681101 -55.07300121 149.14921044 -81.05877686 149.12695312 C-80.92691712 152.13384617 -80.78784131 155.14012354 -80.64471436 158.14648438 C-80.60854004 158.98828247 -80.57236572 159.83008057 -80.53509521 160.6973877 C-80.17393171 168.08693601 -79.01037029 174.97426846 -77.05877686 182.12695312 C-76.85510498 182.90425781 -76.65143311 183.6815625 -76.44158936 184.48242188 C-74.34758232 191.16514802 -69.68388999 196.74774567 -63.74627686 200.43945312 C-38.29645171 213.10855468 0.16153483 209.1117966 27.62872314 207.31445312 C28.77421631 207.24444092 29.91970947 207.17442871 31.09991455 207.10229492 C45.18800419 206.0734356 60.26249794 203.28690881 69.94122314 192.12695312 C72.18935007 188.57021501 74.12922469 184.92254079 75.94122314 181.12695312 C81.59068643 181.7785233 86.82673929 183.11733203 92.26934814 184.74414062 C93.14017029 185.0019632 94.01099243 185.25978577 94.90820312 185.52542114 C96.73770265 186.069165 98.5664079 186.61558779 100.39434814 187.16455078 C103.19336818 188.00259536 105.99672478 188.82484549 108.80059814 189.64648438 C110.58213408 190.17807914 112.36339424 190.71059919 114.14434814 191.24414062 C115.40061005 191.60993729 115.40061005 191.60993729 116.68225098 191.98312378 C117.46026062 192.21991852 118.23827026 192.45671326 119.03985596 192.70068359 C119.72267639 192.90418427 120.40549683 193.10768494 121.10900879 193.31735229 C123.21652857 194.24860238 124.41938045 195.41769921 125.94122314 197.12695312 C120.90995686 215.74263839 111.73958848 230.02981352 94.85919189 239.93554688 C73.30320318 251.39101516 49.78994389 253.60965042 25.75372314 253.52539062 C23.67405089 253.52741973 21.59437934 253.53033804 19.51470947 253.53408813 C15.18838627 253.53847223 10.86225081 253.53220831 6.53594971 253.51806641 C1.04642277 253.50097712 -4.44266381 253.51083957 -9.93217468 253.5287838 C-14.21697182 253.53972853 -18.50166799 253.53612684 -22.78646851 253.52840042 C-24.80825861 253.52642779 -26.83005851 253.52875167 -28.85183716 253.53583908 C-44.90135952 253.57978225 -61.25443088 252.87747284 -76.49627686 247.31445312 C-77.23450684 247.05438477 -77.97273682 246.79431641 -78.7333374 246.52636719 C-100.04209482 238.82334314 -116.14111437 225.71078093 -126.05877686 205.12695312 C-134.1555993 186.41616137 -135.21724592 167.21984326 -135.22674561 147.14648438 C-135.22997 145.52284213 -135.2333349 143.89920015 -135.23683167 142.27555847 C-135.24278182 138.887719 -135.24467587 135.49990487 -135.24407959 132.11206055 C-135.24397828 127.82057098 -135.25761752 123.52924799 -135.2748518 119.23779774 C-135.28609859 115.88727608 -135.28799495 112.53679308 -135.28746986 109.1862545 C-135.2886315 107.6065889 -135.29294778 106.02692167 -135.30080223 104.44727516 C-135.42833719 76.14920427 -130.94812464 49.10431342 -110.85565186 27.76367188 C-95.99774744 13.75656925 -76.98499302 6.61913503 -57.24627686 2.87695312 C-55.98678223 2.63211182 -55.98678223 2.63211182 -54.70184326 2.38232422 C-36.73393248 -0.78610174 -18.16318928 -0.03104155 0 0 Z M-72.30877686 60.18945312 C-82.14529165 72.46454679 -81.05877686 88.32651703 -81.05877686 103.12695312 C-29.90877686 103.12695312 21.24122314 103.12695312 73.94122314 103.12695312 C74.98818442 79.05985843 74.98818442 79.05985843 64.94122314 58.12695312 C38.41177015 36.16367104 -47.97015318 35.35914008 -72.30877686 60.18945312 Z " fill="#1C1A16" transform="translate(922.0587768554688,92.873046875)"/>
<path d="M0 0 C34.81734345 -0.04030303 34.81734345 -0.04030303 49.36132812 -0.04882812 C59.42000842 -0.0547713 69.47868036 -0.06177348 79.53735352 -0.07543945 C86.86167932 -0.08538575 94.18599837 -0.0918533 101.51033074 -0.09408849 C105.39090787 -0.09539569 109.2714657 -0.09848212 113.15203667 -0.10573006 C116.80039557 -0.11248942 120.44872711 -0.11461713 124.09709167 -0.11310768 C126.08288419 -0.11351637 128.0686737 -0.118912 130.05445862 -0.12442017 C131.2254007 -0.1230455 132.39634277 -0.12167084 133.60276794 -0.12025452 C134.62687995 -0.12117631 135.65099195 -0.1220981 136.70613766 -0.12304783 C139 -0 139 -0 140 1 C140.09417773 3.08619022 140.11742878 5.17560477 140.11352539 7.26391602 C140.11364593 7.92815299 140.11376646 8.59238997 140.11389065 9.27675533 C140.11314176 11.43583921 140.10551468 13.59483773 140.09765625 15.75390625 C140.09664917 17.06999878 140.09564209 18.38609131 140.09460449 19.74206543 C140.08935248 24.68221909 140.07539139 29.62236037 140.0625 34.5625 C140.041875 45.596875 140.02125 56.63125 140 68 C164.09 68.33 188.18 68.66 213 69 C211.88032315 73.47870741 210.63405424 74.77851415 207.5 78.0625 C204.09203123 81.69490933 200.81492573 85.36827865 197.6875 89.25 C192.49791961 95.6730194 187.06759444 101.87647979 181.64648438 108.10351562 C179.06362591 111.07855189 176.49943086 114.0694406 173.9375 117.0625 C173.44660889 117.63589111 172.95571777 118.20928223 172.44995117 118.80004883 C171.46114797 119.95530518 170.47245951 121.11065976 169.48388672 122.26611328 C166.99104476 125.17894046 164.49537234 128.08934061 162 131 C160.9999866 132.16665518 159.99998659 133.33332184 159 134.5 C153 141.5 153 141.5 151.49926758 143.25073242 C150.50154805 144.41481977 149.50398886 145.57904456 148.5065918 146.7434082 C145.97301257 149.70069887 143.43649863 152.65538369 140.89453125 155.60546875 C136.30393447 160.93835322 131.74238602 166.28185945 127.3125 171.75 C123.76137934 176.12651627 120.04202602 180.3083146 116.24609375 184.47265625 C113.93812402 187.06962393 111.74444137 189.73404013 109.5625 192.4375 C106.48663412 196.24087503 103.31246834 199.90082652 100 203.5 C95.9708579 207.88246686 92.17522134 212.39816973 88.4296875 217.0234375 C85.57130994 220.52517979 82.67375358 223.99026983 79.75 227.4375 C79.2545166 228.02893799 78.7590332 228.62037598 78.24853516 229.22973633 C75.40914269 232.56241713 72.53650374 235.37343609 69 238 C63.25238394 231.7964144 57.71690299 225.51169581 52.3984375 218.93359375 C46.63540042 211.88466729 40.63779204 205.02722811 34.66015625 198.16015625 C33.54415908 196.87770141 32.42827315 195.59514975 31.3125 194.3125 C30.76529297 193.68351807 30.21808594 193.05453613 29.65429688 192.40649414 C25.71174435 187.85936141 21.89595569 183.22091606 18.109375 178.54296875 C15.25934977 175.107105 12.25280881 171.82587171 9.24609375 168.52734375 C6.93812402 165.93037607 4.74444137 163.26595987 2.5625 160.5625 C-0.51336588 156.75912497 -3.68753166 153.09917348 -7 149.5 C-11.01974536 145.12829537 -14.79988195 140.62213114 -18.53125 136.00390625 C-21.40037224 132.51283821 -24.34644461 129.09621768 -27.3125 125.6875 C-27.86365479 125.05392578 -28.41480957 124.42035156 -28.98266602 123.76757812 C-30.10178159 122.48151545 -31.22100376 121.19554552 -32.34033203 119.90966797 C-38.52958869 112.78810787 -44.69242134 105.65016307 -50.625 98.3125 C-53.65803332 94.57194173 -56.80167057 90.98123244 -60.0625 87.4375 C-73 73.32570423 -73 73.32570423 -73 69 C-48.91 69 -24.82 69 0 69 C0 46.23 0 23.46 0 0 Z " fill="#1C1A16" transform="translate(254,0)"/>
<path d="M0 0 C4.01671494 0.52352689 5.59104839 2.37654769 8.1875 5.375 C8.97511719 6.27992187 9.76273438 7.18484375 10.57421875 8.1171875 C13.67641222 11.8038522 16.71966559 15.53541996 19.75 19.28125 C21.93501569 21.92147729 24.19171391 24.4672972 26.5 27 C29.52282421 30.31989486 32.42512161 33.69764112 35.25 37.1875 C40.99259423 44.27601475 47.00416223 51.12605326 53 58 C59.74470781 65.7324911 66.43401966 73.48053159 72.890625 81.45703125 C75.02986806 84.0360076 77.24424937 86.52256353 79.5 89 C82.52282421 92.31989486 85.42512161 95.69764112 88.25 99.1875 C93.46518515 105.62711993 98.91331752 111.85455403 104.35351562 118.10351562 C106.93637409 121.07855189 109.50056914 124.0694406 112.0625 127.0625 C112.55339111 127.63589111 113.04428223 128.20928223 113.55004883 128.80004883 C114.53885203 129.95530518 115.52754049 131.11065976 116.51611328 132.26611328 C118.50944256 134.59527164 120.50462094 136.92284178 122.5 139.25024414 C123.49370354 140.4094032 124.48719589 141.56874335 125.48046875 142.72827148 C128.08861756 145.77268466 130.70012265 148.81413597 133.31640625 151.8515625 C133.85974609 152.48320312 134.40308594 153.11484375 134.96289062 153.765625 C136.00093012 154.97223501 137.03993595 156.17801461 138.08007812 157.3828125 C145 165.43232382 145 165.43232382 145 168 C120.91 168 96.82 168 72 168 C72 190.77 72 213.54 72 237 C25.8 237 -20.4 237 -68 237 C-68 214.23 -68 191.46 -68 168 C-92.09 168 -116.18 168 -141 168 C-139.83771573 163.35086293 -137.60193904 160.90562377 -134.5 157.4375 C-133.39867264 156.18192465 -132.29842197 154.92540411 -131.19921875 153.66796875 C-130.38203369 152.73670166 -130.38203369 152.73670166 -129.54833984 151.78662109 C-127.41142409 149.32084539 -125.35994573 146.79028222 -123.3125 144.25 C-119.76137934 139.87348373 -116.04202602 135.6916854 -112.24609375 131.52734375 C-109.93812402 128.93037607 -107.74444137 126.26595987 -105.5625 123.5625 C-102.48663412 119.75912497 -99.31246834 116.09917348 -96 112.5 C-91.98025464 108.12829537 -88.20011805 103.62213114 -84.46875 99.00390625 C-79.97577164 93.5369753 -75.29253937 88.23324209 -70.64648438 82.89648438 C-68.06362591 79.92144811 -65.49943086 76.9305594 -62.9375 73.9375 C-62.20116333 73.07741333 -62.20116333 73.07741333 -61.44995117 72.19995117 C-60.46114797 71.04469482 -59.47245951 69.88934024 -58.48388672 68.73388672 C-55.99104476 65.82105954 -53.49537234 62.91065939 -51 60 C-49.9999866 58.83334482 -48.99998659 57.66667816 -48 56.5 C-30 35.5 -30 35.5 -28.49926758 33.74926758 C-27.50154805 32.58518023 -26.50398886 31.42095544 -25.5065918 30.2565918 C-22.97301257 27.29930113 -20.43649863 24.34461631 -17.89453125 21.39453125 C-11.8252547 14.34430358 -5.84790359 7.23604232 0 0 Z " fill="#1C1A16" transform="translate(141,108)"/>
<path d="M0 0 C18.48 0 36.96 0 56 0 C56 32.67 56 65.34 56 99 C79.43 99 102.86 99 127 99 C127 113.85 127 128.7 127 144 C103.57 144 80.14 144 56 144 C56.09067348 167.01473939 56.09067348 167.01473939 56.20898438 190.02929688 C56.2633915 199.41982237 56.31480784 208.81029418 56.34643555 218.20092773 C56.3694879 225.04127317 56.40296598 231.8814767 56.44870156 238.72170943 C56.47253678 242.33992848 56.49132879 245.95800785 56.49761391 249.57630348 C56.5048451 253.62634731 56.53536352 257.6759082 56.56762695 261.72583008 C56.56619186 262.91122879 56.56475677 264.0966275 56.5632782 265.31794739 C56.67179626 274.98886748 57.73281701 284.62649927 64.1640625 292.28125 C77.71650936 304.96864706 102.95750718 301.41986827 119.9375 301.625 C122.56706919 301.66325299 125.19662684 301.70230876 127.82617188 301.7421875 C134.21738221 301.83887143 140.60849395 301.9190679 147 302 C147 316.52 147 331.04 147 346 C126.967878 346.16043524 126.967878 346.16043524 118.32617188 346.1953125 C112.46526317 346.21908013 106.60460807 346.24697328 100.74389648 346.30175781 C96.01057626 346.34571898 91.27752857 346.36924132 86.5440197 346.37950897 C84.75219377 346.38681132 82.9603801 346.40106622 81.16867256 346.42292023 C66.46153685 346.59491741 51.66811652 345.4122918 38.5 338.1875 C37.84185303 337.84058105 37.18370605 337.49366211 36.50561523 337.13623047 C31.21484953 334.27505123 26.40465213 331.12186318 22 327 C21.25492188 326.30777344 20.50984375 325.61554688 19.7421875 324.90234375 C3.94639086 308.86559428 -0.17708198 286.60991808 -0.11352539 264.90454102 C-0.11367142 263.59654037 -0.11381744 262.28853973 -0.1139679 260.94090271 C-0.11425371 257.37116924 -0.10839191 253.80146967 -0.10139394 250.23174405 C-0.09512443 246.49482475 -0.09455376 242.75790459 -0.09336853 239.02098083 C-0.0902658 231.95217942 -0.08206671 224.88339356 -0.07201904 217.81459898 C-0.060825 209.763806 -0.05533917 201.71301227 -0.05032361 193.66221344 C-0.03988318 177.10813177 -0.0215509 160.5540715 0 144 C-9.24 144 -18.48 144 -28 144 C-28 129.15 -28 114.3 -28 99 C-18.76 99 -9.52 99 0 99 C0 66.33 0 33.66 0 0 Z " fill="#1C1A16" transform="translate(1095,0)"/>
<path d="M0 0 C1.95296907 0.00560845 3.90594241 0.00987263 5.85891724 0.01286316 C10.95192509 0.02421372 16.04466851 0.05359445 21.13757324 0.0869751 C27.27349891 0.12334272 33.40951394 0.13688383 39.54551697 0.15433502 C48.82479833 0.18323934 58.10350163 0.24079437 67.3828125 0.29296875 C67.3828125 14.15296875 67.3828125 28.01296875 67.3828125 42.29296875 C63.09539062 42.34195313 58.80796875 42.3909375 54.390625 42.44140625 C50.94770715 42.48601957 47.50482591 42.5325108 44.06195068 42.58026123 C40.44107727 42.62996997 36.8202314 42.676457 33.19921875 42.71484375 C29.70423228 42.75202376 26.20947505 42.79846658 22.71468735 42.85103226 C20.74859948 42.87827612 18.78238952 42.89620338 16.81619263 42.91390991 C4.643849 43.11207345 -6.83201329 44.46482938 -16.6171875 52.29296875 C-17.2771875 52.29296875 -17.9371875 52.29296875 -18.6171875 52.29296875 C-18.88402344 52.83050781 -19.15085937 53.36804687 -19.42578125 53.921875 C-20.30165643 55.66501019 -21.19178077 57.40100405 -22.08984375 59.1328125 C-22.61449219 60.15503906 -23.13914062 61.17726562 -23.6796875 62.23046875 C-24.20691406 63.25011719 -24.73414063 64.26976562 -25.27734375 65.3203125 C-29.96078863 75.71127912 -28.20795237 88.65285546 -28.6171875 99.29296875 C-5.1871875 99.29296875 18.2428125 99.29296875 42.3828125 99.29296875 C44.09236918 102.71208211 43.52427496 106.6253197 43.515625 110.38671875 C43.51658173 111.28918335 43.51753845 112.19164795 43.51852417 113.12145996 C43.51920529 115.03133209 43.51735571 116.94120653 43.51318359 118.85107422 C43.50783439 121.78097718 43.51313087 124.71072683 43.51953125 127.640625 C43.51887046 129.49348992 43.51758927 131.34635475 43.515625 133.19921875 C43.51764923 134.07944702 43.51967346 134.95967529 43.52175903 135.86657715 C43.4977708 142.06305215 43.4977708 142.06305215 42.3828125 144.29296875 C18.9528125 144.29296875 -4.4771875 144.29296875 -28.6171875 144.29296875 C-28.6171875 210.95296875 -28.6171875 277.61296875 -28.6171875 346.29296875 C-46.7671875 346.29296875 -64.9171875 346.29296875 -83.6171875 346.29296875 C-83.6171875 279.63296875 -83.6171875 212.97296875 -83.6171875 144.29296875 C-93.1871875 144.29296875 -102.7571875 144.29296875 -112.6171875 144.29296875 C-112.6171875 129.44296875 -112.6171875 114.59296875 -112.6171875 99.29296875 C-103.0471875 99.29296875 -93.4771875 99.29296875 -83.6171875 99.29296875 C-83.66939453 95.88984375 -83.66939453 95.88984375 -83.72265625 92.41796875 C-83.74621556 90.1604945 -83.76433814 87.9030352 -83.78198242 85.64550781 C-83.7968433 84.10572941 -83.81713789 82.56599152 -83.84350586 81.02636719 C-84.22864784 57.91784839 -79.30477965 36.89826971 -63.01171875 19.60546875 C-57.02259864 13.82152241 -50.39399261 9.96786899 -42.8671875 6.54296875 C-42.26060303 6.26106689 -41.65401855 5.97916504 -41.02905273 5.6887207 C-27.71523164 -0.05197543 -14.20604146 -0.12117034 0 0 Z " fill="#1C1A16" transform="translate(1361.6171875,-0.29296875)"/>
<path d="M0 0 C17.16 0 34.32 0 52 0 C52.33 10.56 52.66 21.12 53 32 C55.31 29.03 57.62 26.06 60 23 C70.97556801 9.9603107 87.65783548 1.77737608 104.60083008 0.16333008 C130.86495383 -1.62467224 161.15755899 -0.12889855 182 17.8125 C187.58245606 23.23828447 192.03236148 28.67821554 193.75390625 36.3671875 C192.87352402 40.60944387 192.21876464 41.01868743 188.828125 43.46484375 C186.98437924 44.64713128 185.12385088 45.80353126 183.25 46.9375 C182.29456299 47.54287598 181.33912598 48.14825195 180.35473633 48.77197266 C178.45212629 49.97720077 176.54374877 51.17337789 174.62939453 52.35986328 C171.26339902 54.4594694 167.97542606 56.65535316 164.6875 58.875 C163.125 59.91666667 161.5625 60.95833333 160 62 C158.23164884 60.26179119 156.60073478 58.52587255 155 56.625 C143.52991403 46.58867477 125.17571556 45.29118051 110.48828125 45.72265625 C95.65130573 46.9023038 79.20976186 50.02721225 69 62 C58.26736759 76.28724357 55.70480513 91.27604775 55.68115234 108.70922852 C55.67184098 110.28689582 55.66167054 111.86455825 55.65071106 113.44221497 C55.62353306 117.70186645 55.60829804 121.96148509 55.59528303 126.22120023 C55.57959882 130.68151675 55.55282559 135.14176672 55.5272522 139.60203552 C55.48055777 148.03779407 55.44376861 156.47356526 55.41057932 164.90938658 C55.37229179 174.51767621 55.32289909 184.12589886 55.27259517 193.73413193 C55.16941422 213.48937787 55.08157475 233.24465221 55 253 C36.85 253 18.7 253 0 253 C0 169.51 0 86.02 0 0 Z " fill="#1C1A16" transform="translate(1807,93)"/>
<path d="M0 0 C18.15 0 36.3 0 55 0 C55 83.49 55 166.98 55 253 C36.85 253 18.7 253 0 253 C0 169.51 0 86.02 0 0 Z " fill="#1C1A16" transform="translate(1707,93)"/>
<path d="M0 0 C18.15 0 36.3 0 55 0 C55 18.15 55 36.3 55 55 C36.85 55 18.7 55 0 55 C0 36.85 0 18.7 0 0 Z " fill="#1C1A16" transform="translate(1707,0)"/>
</svg>
