<svg xmlns="http://www.w3.org/2000/svg" width="78" height="36" fill="none"><path fill="#0B0B0B" d="M27.031 35.437H.664L6.761.564h26.367l-6.097 34.873Z"/><path fill="#B19661" d="m9.904 12.304-.56.336-.545-.138c-.025-.326.958-.661 1.106-.198Zm10.69 12.73a.224.224 0 0 0-.18.08 8.427 8.427 0 0 0-.375.518.21.21 0 0 1-.201.092c-.755-.097-1.494.216-2.22.387-.123.024-.31.057-.358-.103-.029-.134-.016-.269-.005-.404a.21.21 0 0 0-.188-.226c-.13-.012-.257.013-.32.154-.232.478-.28 1.027-.263 1.55.008.325.393.422.648.387 1.05-.157 2.09-.412 3.134-.604a.2.2 0 0 0 .156-.138c.136-.445.238-.904.386-1.347.089-.164-.061-.325-.214-.346Zm-2.882-2.39c.2.123.488-.03.526-.248.09-.396.142-.797.246-1.19a.054.054 0 0 1 .018-.029s2.158-.922 2.577-.635c.026.018.055.031.049.061l-.193.972a.094.094 0 0 0 .037.094c.102.072.335.21.407.007.206-.585.484-1.14.704-1.715a.052.052 0 0 0-.022-.062c-.567-.336-1.279-.217-1.894-.047a7.974 7.974 0 0 0-2.265 1.102.148.148 0 0 0-.054.077 8.112 8.112 0 0 0-.26 1.076v.012c-.014.18-.04.405.125.526h-.001ZM6.294 0 0 36h27.503l6.294-36H6.294Zm11.192 1.126c1.264 1.168 1.783 3.053-.644 6.029-1.427-.37-2.95-.923-5.876-.627.541-2.732-.542-4.393-1.982-5.402h8.502Zm-7.6 11.58c-.197.083-.383.22-.605.22-1.063-.016-2.502-1.355-2.502-1.355a.837.837 0 0 1 .756.156c.18.148.385.275.57.169.63-.363 1.234-.782 1.895-1.086.65-.28 1.474-.289 2.019.213.462.466 1 .837 1.567 1.15.456.252.937.477 1.453.567 0 0-.224.574.114 1.074-.083 0-.18-.007-.227-.089-.222-.321-.252-.401-.43-.564-.427-.429-1.024-.613-1.604-.725-.994-.19-2.06-.159-3.006.27Zm2.036 3.929c-.707.336-1.42.677-2.054 1.15a4.3 4.3 0 0 0-1.442 1.877c-.41 1.02-.528 2.119-.589 3.207-.003.063-.088.079-.114.02-.713-1.61-1.067-3.383-1.132-5.159-.024-.848.014-1.71.207-2.54a.06.06 0 0 1 .1-.03c.535.514 1.2.858 1.895 1.071.998.311 2.058.376 3.098.29.067-.005.09.085.03.114ZM7.232 1.126h.54c1.162.758 2.086 1.828 2.478 3.155.685 2.739-1.296 3.572-4.383 4.655l1.366-7.81Zm-5.9 33.748 3.006-17.191c.65 3.576 2.327 5.416 3.337 8.23.56 1.563.513 3.338.274 4.479-.302 1.435-1.132 2.758-2.849 4.482H1.333Zm11.702 0H6.477c.651-.67 1.248-1.46 1.619-2.345.764-1.826.54-3.185.779-5.47.259-2.52 1.237-3.952 2.19-5.822.442-.866.953-1.703 1.57-2.448.363-.433.763-.837 1.228-1.147l.324-.19s.311-.168.383.08c.095.333-.306.513-.554.686a6.562 6.562 0 0 0-2.15 2.116 6.21 6.21 0 0 0-.933 3.092c-.053 1.673.518 3.3 1.348 4.694.128.3 2.054 3.665.753 6.753Zm5.82 0h-4.98c.354-.704.634-1.447.82-2.218.246-1.006.375-2.108.012-3.091 1.102.303 2.291.42 3.406.065.7-.204 1.143-.31 1.916-1.035 1.007-1.167-.05-1.166-.05-1.166-.478-.016-.943.148-1.412.227-.607.122-1.225.221-1.842.231-.564.005-1.15-.047-1.656-.328-.623-.355-1.15-.87-1.61-1.434-2.548-3.43.166-6.559.166-6.559.234-.284.538-.509.87-.65.084-.042.205-.073.264-.004.041.075-.17.245-.284.338-.135.115-.14.313.008.377.16.06.34.063.5.124.337.13.653.324.948.545l.003.002c.29.194.433.429.776.472.308.041.846-.161 1.075-.395.24-.242.545-.383.845-.524.604-.28 1.23-.502 1.845-.757.276-.12.56-.235.805-.418.13.153.38.625.622.7.333.078.549-.03.89.028.444.427.697 1.02.895 1.61.328 1.06.425 2.193.386 3.31-.085 2.417-.836 4.793-2.032 6.868 0 0-1.168 1.904-3.185 3.681Zm7.144-6.924c-1.272 2.26-3.911 5.036-4.757 5.746 7.18-9.1 2.061-15.576 2.061-15.576.276-.91-.045-1.93-.372-2.175a.046.046 0 0 0-.051-.001c-.63.379-.84 1.275-1.167 1.373l-.016.002c-.198.004-.335-.173-.458-.31-.26-.341-.624-.565-.97-.798-.503-.317-1.023-.605-1.576-.806-.132-.053-.287-.094-.371-.221a.056.056 0 0 1-.008-.026c-.01-.202.257-.193.394-.209h.006c.91.005 1.702.59 2.607.621.358.004.726-.049 1.045-.238.178-.107.333-.29.333-.514-.016-.397-.215-.802-.567-.97-.256-.138-.571-.024-.82-.166-.138-.077-.169-.252-.15-.402.022-.23.089-.49-.045-.697-.175-.303-.534-.357-.83-.453-.64-.23-1.236-.57-1.801-.96-.206-.117-.49-.382-.556-.624-.07-.282-.026-.524.072-.805.147-.229.475-.098.563.12 0 0 .389 1.159.951 1.566.66.474.616-.656.616-.656-.031-1.932-2.61-3.275-2.61-3.275.445-1.156 1.626-2 2.837-2.227 1.211-.227 2.412-.091 3.759.361-1.23.178-2.482.576-3.341 1.48.957-.281 2.09-.074 3.002.333.886.396 1.86 1.262 2.553 2.364 1.391 2.21 1.486 4.934 1.422 7.522-.439-1.011-1.493-2.326-2.555-2.599 3.755 3.054 3.002 9.31.8 13.22Z"/><path fill="#fff" d="M45.61 12.316c0 2.383-1.37 4.88-5.706 4.88H33.18l2.764-15.82h6.216c2.035 0 4.206.646 4.206 3.654 0 2.54-1.486 3.765-3.233 4.01 1.526.246 2.477 1.27 2.477 3.276Zm-4.268-.379c0-1.025-.376-1.515-1.57-1.515h-1.24l-.685 3.966h1.26c1.77 0 2.235-1.292 2.235-2.45Zm.818-6.372c0-1.07-.53-1.381-1.35-1.381h-1.17l-.642 3.654h1.194c1.549 0 1.97-1.337 1.97-2.273Zm10.194-.803-.463 2.615h5.02l-.578 3.383h-5.008l-.568 3.047h5.508l-.583 3.387h-9.688l2.765-15.819h9.533l-.586 3.386h-5.353v.001Zm18.024 0h-3.65l-2.19 12.433H60.38l2.19-12.433h-3.672l.597-3.386h11.48l-.597 3.386Z"/><path fill="#B19661" d="M38.453 28.853h.066l3.582-9.845h5.683L45.02 34.823h-3.67l2.078-11.56h-.067l-4.312 11.56h-3.073l-.398-11.538h-.067l-1.923 11.538h-3.494l2.764-15.815h5.44l.155 9.845Zm30.217 0h.067l3.582-9.845h5.683l-2.765 15.815h-3.67l2.078-11.56h-.066l-4.312 11.56h-3.073l-.398-11.538h-.067l-1.923 11.538h-3.494l2.764-15.815h5.44l.155 9.845Zm-21.202.312c0-3.297 1.017-10.536 7.584-10.536 4.594 0 6.308 2.022 5.778 5.443l-3.832.063c.204-1.256-.351-2.403-1.901-2.455-2.852-.095-3.962 4.981-3.962 7.365 0 2.562 1.212 3.21 2.272 3.173 1.367-.049 2.265-.789 2.685-2.341l.199-1.024h-2.455l.509-3.008h6.346l-1.57 8.977h-3.092l.417-2.295c-.708 1.693-1.924 2.673-3.98 2.673-2.212 0-4.998-.712-4.998-6.035Z"/></svg>