<svg width="120" height="16" viewBox="0 0 120 16" fill="none" xmlns="http://www.w3.org/2000/svg">
<path d="M7.43506 4.06657H2.61694V0.266263H2.02997C0.843781 0.266263 0 1.10136 0 2.28744V13.531C0 14.8018 1.05167 15.8306 2.32346 15.8306H7.43506C10.9814 15.8306 13.476 13.3374 13.476 9.96067C13.476 6.58396 10.9814 4.06657 7.43506 4.06657ZM7.5818 13.4463H2.61694V6.45083H7.5818C9.63622 6.45083 10.9569 8.04841 10.9569 9.96067C10.9569 11.8729 9.63622 13.4463 7.5818 13.4463ZM21.5837 3.92133C17.2058 3.92133 14.7356 6.09985 14.7356 9.96067C14.7356 13.8215 17.2058 16 21.5837 16C24.1395 16 26.0105 15.2375 27.2578 13.8457L25.4724 12.2844C24.6164 13.1316 23.5403 13.7126 21.5714 13.7126C18.8567 13.7126 17.5482 12.829 17.2792 10.7837H28.4195V9.94856C28.444 6.09985 25.9738 3.92133 21.5837 3.92133ZM21.5837 6.19667C24.1395 6.19667 25.4479 6.98336 25.8148 8.77458H17.3648C17.7194 6.98336 19.0401 6.19667 21.5837 6.19667ZM33.2376 13.4463H39.4987V14.0272C39.4987 15.0802 38.7283 15.8306 37.6522 15.8306H33.2132C31.281 15.8306 29.8992 14.4387 29.8992 12.5265V2.28744C29.8992 1.10136 30.743 0.278366 31.9292 0.278366H32.5161V4.07867H39.0707V4.65961C39.0707 5.71256 38.3003 6.46293 37.2242 6.46293H32.5284V12.7443C32.5284 13.1558 32.8219 13.4463 33.2376 13.4463ZM60.8867 6.03933C60.8867 2.69894 58.3921 0.278366 55.017 0.278366H43.8888C42.2747 0.278366 40.9784 1.56127 40.9784 3.15885V13.531C40.9784 14.8018 42.0301 15.8306 43.3019 15.8306H45.2707V11.8245H54.9069C58.282 11.8245 60.8867 9.39183 60.8867 6.03933ZM45.2707 8.02421V4.06657H54.6012C55.6895 4.06657 56.5945 4.96218 56.5945 6.03933C56.5945 7.1407 55.6895 8.03631 54.6012 8.03631H45.2707V8.02421ZM68.7254 0C67.1479 0 65.7049 0.835098 64.9711 2.21483L57.4749 15.8306H60.9724C61.8161 15.8306 62.6232 15.3585 63.0268 14.6324L63.5771 13.6157C65.2891 13.5794 67.0133 13.5552 68.7254 13.5552C70.4129 13.5552 72.1127 13.5794 73.8125 13.6157L74.3628 14.6324C74.7663 15.3585 75.5734 15.8306 76.4172 15.8306H79.9758L72.4796 2.21483C71.7458 0.835098 70.2906 0 68.7254 0ZM68.7254 9.90015C67.5147 9.90015 66.5486 9.91225 65.5704 9.92436L68.6887 4.15129L71.807 9.91225C70.8531 9.90015 69.9115 9.90015 68.7254 9.90015ZM97.0837 12.1513C96.7291 11.7398 96.2522 11.4614 95.7141 11.3646C97.9031 10.3722 99.3705 8.25416 99.3705 6.03933C99.3705 2.69894 96.9003 0.278366 93.5496 0.278366H82.3971C80.7829 0.278366 79.4866 1.56127 79.4866 3.15885V12.7201L81.2109 15.8306H81.4432C82.7395 15.8306 83.7911 14.7897 83.7911 13.531V11.8245H91.1895L93.9165 14.9955C94.3567 15.5159 95.0049 15.8306 95.7019 15.8306H100.251L97.0837 12.1513ZM93.0727 8.02421H83.7667V4.06657H93.0727C94.1611 4.06657 95.066 4.96218 95.066 6.03933C95.066 7.1407 94.1733 8.02421 93.0727 8.02421Z" fill="white"/>
<path d="M103.418 15.8295H99.4073C99.126 15.8295 98.9793 15.4907 99.1749 15.2849L106.488 8.04739L99.1871 0.821973C98.9793 0.616224 99.126 0.277344 99.4195 0.277344H103.431C104.274 0.277344 105.081 0.604121 105.681 1.19716L112.614 8.05949L105.656 14.9097C105.069 15.4907 104.262 15.8295 103.418 15.8295Z" fill="white"/>
<path d="M114.278 6.37806L119.903 0.810743C120.111 0.604994 119.964 0.266113 119.67 0.266113H115.659C114.816 0.266113 114.009 0.592891 113.409 1.18593L110.267 4.29637L112.358 6.36596C112.896 6.91059 113.74 6.91059 114.278 6.37806Z" fill="white"/>
<path d="M110.266 11.7879L113.409 14.8984C114.008 15.4914 114.815 15.8182 115.659 15.8182H119.67C119.951 15.8182 120.098 15.4793 119.903 15.2736L114.277 9.70624C113.752 9.18581 112.896 9.18581 112.37 9.70624L110.266 11.7879Z" fill="white"/>
</svg>
