<svg width="84" height="32" viewBox="0 0 84 32" fill="none" xmlns="http://www.w3.org/2000/svg" class="MuiSvgIcon-root jss40" focusable="false" aria-hidden="true"><path fill-rule="evenodd" clip-rule="evenodd" d="M19.214 15.998l3.09 3.087c1.724 1.722 1.71 4.182.002 6.238-1.277 1.537-3.652 3.761-4.851 4.884-.234.219-.423.396-.55.518-.834.798-1.925 1.275-3.08 1.275H4.116A4.116 4.116 0 010 27.884V4.163A4.163 4.163 0 014.163 0h9.667c1.152 0 2.236.466 3.071 1.272.13.126.323.31.563.538 1.198 1.138 3.545 3.369 4.832 4.857 1.644 1.901 1.724 4.525 0 6.249a27907.46 27907.46 0 01-3.082 3.082zm-12.3 6.423c0 .532.43.962.962.962l7.733.003a.334.334 0 00.236-.57l-7.846-7.818a.332.332 0 01.249-.561h5.644a.885.885 0 00.885-.885v-2.987c0-.324-.128-.611-.358-.864-.23-.254-.765-.781-1.029-1.03a1.338 1.338 0 00-.926-.383H7.84a.925.925 0 00-.925.926V22.42z" fill="#84FFE5"></path><path d="M77.817 27.003h-3.221v-15.71h2.892l.231 2.175c0 .195.198.258.264.131l.064-.104c1.216-1.577 2.563-2.53 4.995-2.53h.592v3.056h-1.216c-2.99 0-4.602 1.676-4.602 4.404v8.578zM68.942 27.003c-2.662 0-4.075-1.215-4.075-4.01v-9.07H61.25v-2.63h1.677c2.038 0 2.268-1.183 2.268-3.253V6.396h2.892v4.897h4.305v2.63h-4.305v8.545c0 1.216.526 1.775 2.07 1.775h2.235v2.76h-3.45z" fill="#84FFE5"></path><path fill-rule="evenodd" clip-rule="evenodd" d="M53.969 10.965c-4.675 0-7.801 3.544-7.653 8.521.128 4.294 3.572 7.81 7.867 7.846 3.799.031 6.407-2.114 6.96-5.087a.118.118 0 00-.116-.138H58.29a.115.115 0 00-.109.077c-.51 1.437-1.752 2.42-3.818 2.42-2.58 0-4.279-1.558-4.733-4.09a.38.38 0 01.375-.445H61.09a.117.117 0 00.117-.11c.03-.46.058-.936.058-1.27 0-4.668-2.892-7.724-7.296-7.724zm4.177 6.37a.267.267 0 01-.263.302h-7.89a.267.267 0 01-.26-.33c.535-2.238 2.041-3.614 4.236-3.614 2.295 0 3.9 1.444 4.177 3.641zM32.588 25.188a.155.155 0 01.277-.1c1.212 1.476 2.871 2.244 4.883 2.244 4.24 0 7.198-3.385 7.198-8.183 0-4.799-2.958-8.184-7.1-8.184-2.073 0-3.7.766-4.753 2.237a.151.151 0 01-.275-.089V4.622h-3.221v22.382h2.796l.195-1.816zm9.071-6.04c0 3.386-1.643 5.39-4.371 5.39-2.827 0-4.47-2.004-4.47-5.39 0-3.384 1.643-5.39 4.47-5.39 2.728 0 4.371 2.006 4.371 5.39z" fill="#84FFE5"></path></svg>