<?xml version="1.0" encoding="UTF-8"?>
<svg width="562px" height="73px" viewBox="0 0 562 73" version="1.1" xmlns="http://www.w3.org/2000/svg" xmlns:xlink="http://www.w3.org/1999/xlink">
    <title>logo-bet-right</title>
    <defs>
        <linearGradient x1="73.4442188%" y1="-0.00299311583%" x2="73.4442188%" y2="106.542951%" id="linearGradient-1">
            <stop stop-color="#FF378B" offset="0%"></stop>
            <stop stop-color="#EB00FF" offset="100%"></stop>
        </linearGradient>
        <linearGradient x1="100%" y1="50%" x2="0%" y2="50%" id="linearGradient-2">
            <stop stop-color="#00FF47" offset="0%"></stop>
            <stop stop-color="#00F0FF" offset="100%"></stop>
        </linearGradient>
    </defs>
    <g id="Page-1" stroke="none" stroke-width="1" fill="none" fill-rule="evenodd">
        <g id="Desktop" transform="translate(-265.000000, -451.000000)" fill-rule="nonzero">
            <g id="logo-bet-right" transform="translate(265.000000, 451.000000)">
                <path d="M54.726,34.981 C58.744,36.384 61.892,38.59 64.17,41.597 C66.447,44.537 67.585,48.112 67.585,52.321 C67.585,58.469 65.107,63.213 60.151,66.555 C55.195,69.896 48.028,71.566 38.651,71.566 L0.674,71.566 L0.674,1.403 L36.642,1.403 C45.617,1.403 52.448,3.074 57.137,6.415 C61.825,9.689 64.17,14.133 64.17,19.746 C64.17,23.087 63.332,26.094 61.658,28.767 C60.05,31.373 57.74,33.444 54.726,34.981 Z M20.366,15.737 L20.366,29.268 L34.029,29.268 C40.727,29.268 44.076,26.996 44.076,22.452 C44.076,17.975 40.727,15.737 34.029,15.737 L20.366,15.737 Z M37.043,57.233 C44.009,57.233 47.492,54.861 47.492,50.116 C47.492,45.372 44.009,43 37.043,43 L20.366,43 L20.366,57.233 L37.043,57.233 Z" id="Path" fill="#FFFFFF"></path>
                <polygon id="Path-1" fill="#FFFFFF" points="128.993 56.231 128.993 71.566 72.531 71.566 72.531 1.403 127.687 1.403 127.687 16.739 92.222 16.739 92.222 28.566 123.467 28.566 123.467 43.401 92.222 43.401 92.222 56.231"></polygon>
                <polygon id="Path-2" fill="#FFFFFF" points="152.992 17.14 131.392 17.14 131.392 1.403 194.384 1.403 194.384 17.14 172.885 17.14 172.885 71.566 152.992 71.566"></polygon>
                <path d="M289.965,52.923 L279.114,52.923 L279.114,71.566 L259.222,71.566 L259.222,1.403 L291.371,1.403 C297.734,1.403 303.26,2.472 307.948,4.611 C312.637,6.682 316.254,9.689 318.799,13.632 C321.344,17.507 322.617,22.085 322.617,27.363 C322.617,32.442 321.411,36.886 319,40.694 C316.656,44.436 313.273,47.377 308.853,49.515 L324.023,71.566 L302.724,71.566 L289.965,52.923 Z M302.523,27.363 C302.523,24.089 301.485,21.55 299.409,19.746 C297.332,17.942 294.251,17.039 290.166,17.039 L279.114,17.039 L279.114,37.587 L290.166,37.587 C294.251,37.587 297.332,36.718 299.409,34.981 C301.485,33.177 302.523,30.638 302.523,27.363 Z" id="Path-3" fill="#FFFFFF"></path>
                <polygon id="Path-4" fill="#FFFFFF" points="329.572 1.403 349.465 1.403 349.465 71.566 329.572 71.566"></polygon>
                <path d="M405.043,34.981 L422.625,34.981 L422.625,64.049 C418.606,66.922 413.985,69.127 408.761,70.664 C403.536,72.201 398.312,72.969 393.088,72.969 C385.72,72.969 379.089,71.432 373.195,68.359 C367.301,65.218 362.68,60.875 359.331,55.328 C355.982,49.782 354.307,43.501 354.307,36.485 C354.307,29.468 355.982,23.187 359.331,17.641 C362.68,12.095 367.335,7.785 373.296,4.711 C379.257,1.57 385.988,0 393.49,0 C400.053,0 405.948,1.103 411.172,3.308 C416.396,5.513 420.75,8.687 424.232,12.83 L411.574,24.256 C406.818,19.044 401.125,16.438 394.494,16.438 C388.466,16.438 383.61,18.276 379.927,21.951 C376.243,25.559 374.401,30.404 374.401,36.485 C374.401,40.36 375.238,43.835 376.913,46.909 C378.587,49.916 380.931,52.288 383.945,54.025 C386.959,55.696 390.409,56.531 394.293,56.531 C398.111,56.531 401.694,55.763 405.043,54.226 L405.043,34.981 Z" id="Path-5" fill="#FFFFFF"></path>
                <polygon id="Path-6" fill="#FFFFFF" points="495.617 1.403 495.617 71.566 475.725 71.566 475.725 44.203 448.599 44.203 448.599 71.566 428.706 71.566 428.706 1.403 448.599 1.403 448.599 27.764 475.725 27.764 475.725 1.403"></polygon>
                <polygon id="Path-7" fill="#FFFFFF" points="520.6 17.14 499 17.14 499 1.403 561.992 1.403 561.992 17.14 540.492 17.14 540.492 71.566 520.6 71.566"></polygon>
                <g id="Logo-mark" transform="translate(209.000000, 1.000000)">
                    <path d="M17.744,-1.42108547e-14 C26.992,-1.42108547e-14 34.488,7.479 34.488,16.705 C34.488,25.931 26.992,33.41 17.744,33.41 C8.496,33.41 1,25.931 1,16.705 C1,7.479 8.496,-1.42108547e-14 17.744,-1.42108547e-14 Z M18.191,9.596 C16.919,9.596 15.726,9.938 14.697,10.531 C12.468,11.694 10.943,14.021 10.943,16.705 C10.943,20.551 14.069,23.668 17.924,23.668 C18.608,23.668 19.268,23.57 19.893,23.387 C22.936,22.626 25.191,19.875 25.191,16.596 C25.191,12.73 22.057,9.596 18.191,9.596 Z" id="Shape-copy" fill="url(#linearGradient-1)"></path>
                    <path d="M27.409,35.91 L35.167,43.65 L25.341,53.452 L35.168,63.256 L27.41,70.995 L17.583,61.191 L7.757,70.995 L-3.90798505e-14,63.256 L9.826,53.452 L5.68434189e-14,43.65 L7.758,35.91 L17.583,45.712 L27.409,35.91 Z" id="Combined-Shape" fill="url(#linearGradient-2)"></path>
                </g>
            </g>
        </g>
    </g>
</svg>