<svg width="70" height="29" viewBox="0 0 70 29" fill="none" xmlns="http://www.w3.org/2000/svg">
<path d="M5.12636 20.7376C5.03591 20.5823 4.92152 20.4386 4.86231 20.275C4.63298 19.641 4.7194 19.0163 4.99158 18.4194C5.38919 17.5476 6.06014 16.9173 6.84602 16.3954C7.57536 15.911 8.38158 15.6024 9.20675 15.3277C9.91372 15.0923 10.5949 14.7972 11.2027 14.3513C12.0933 13.6981 12.3697 12.6808 12.1291 11.8207C11.9054 11.021 11.3084 10.5809 10.5347 10.4246C8.82244 10.0788 7.32638 10.5115 6.12132 11.8035C5.29662 12.6877 4.87043 13.7768 4.59321 14.9337C4.26537 16.3017 4.22458 17.6937 4.28434 19.0881C4.35255 20.6803 4.56565 22.2581 4.8574 23.8249C4.86463 23.8636 4.8634 23.9039 4.86715 23.9585C4.79314 23.9617 4.7295 23.967 4.66586 23.967C3.33583 23.9675 2.00574 23.9636 0.675711 23.9719C0.497878 23.973 0.44017 23.9131 0.423116 23.7475C0.308381 22.6336 0.154627 21.5227 0.0778191 20.4064C0.00940102 19.4119 -0.0165873 18.4107 0.0106299 17.4144C0.0612442 15.563 0.359745 13.7522 1.09959 12.0369C1.90028 10.1804 3.13753 8.71568 4.95556 7.77952C5.83415 7.32713 6.76922 7.04814 7.74187 6.89261C8.51323 6.76928 9.29127 6.72024 10.0716 6.751C11.5693 6.81007 13.0004 7.11103 14.2526 7.99269C15.4507 8.83622 16.1632 9.99441 16.3557 11.4431C16.5358 12.7995 16.3019 14.0805 15.4788 15.2101C14.8261 16.1057 13.9423 16.7112 12.9275 17.1138C12.3329 17.3497 11.705 17.5018 11.092 17.6913C11.033 17.7096 10.9736 17.7268 10.9143 17.7445C10.9139 17.7596 10.9135 17.7748 10.9132 17.79C10.9705 17.8025 11.0275 17.8165 11.0852 17.8271C12.4474 18.0776 13.6653 18.6635 14.7705 19.4762C15.7027 20.1617 16.6009 20.8934 17.5135 21.6053C18.6684 22.5061 19.879 23.3121 21.2724 23.8047C22.1106 24.101 22.9724 24.2834 23.8605 24.347C25.7597 24.4832 27.593 24.2271 29.3332 23.4284C30.9511 22.6859 32.2607 21.5798 33.2308 20.0807C33.2686 20.0223 33.3105 19.9667 33.3566 19.9012C33.7151 20.115 33.9555 20.417 34.1377 20.7652C34.6068 21.6617 34.5928 22.5797 34.2248 23.5024C33.8362 24.4768 33.18 25.2504 32.3734 25.9031C31.0627 26.9635 29.5427 27.5612 27.9091 27.9016C26.6358 28.167 25.3458 28.2316 24.0509 28.1811C20.9147 28.059 18.1 27.0378 15.6478 25.0766C14.6569 24.2842 13.7178 23.4263 12.764 22.5882C11.8757 21.8078 10.9901 21.0259 9.93507 20.4693C9.04106 19.9976 8.09228 19.7373 7.07774 19.7871C6.52058 19.8144 5.9718 19.9166 5.52814 20.2987C5.39137 20.4165 5.28169 20.5658 5.12623 20.7375L5.12636 20.7376Z" fill="#FFB81C"/>
<path d="M58.0022 23.9674H57.7879C56.5468 23.9674 55.3057 23.9648 54.0646 23.9706C53.9146 23.9713 53.8356 23.923 53.764 23.7903C53.1189 22.5958 52.4632 21.407 51.8187 20.2123C51.7434 20.0728 51.6616 20.022 51.5038 20.0264C51.055 20.039 50.6055 20.0411 50.1566 20.0302C49.9852 20.026 49.9523 20.0883 49.953 20.244C49.9586 21.4083 49.9561 22.5725 49.9559 23.7368C49.9559 23.9667 49.9552 23.9672 49.7222 23.9672C48.7765 23.9674 47.831 23.9638 46.8854 23.9706C46.7244 23.9718 46.6751 23.9273 46.6753 23.763C46.6795 19.8742 46.6794 15.9854 46.6758 12.0966C46.6756 11.9403 46.712 11.8819 46.8809 11.8827C48.5061 11.8905 50.1319 11.8658 51.7564 11.8997C52.9708 11.925 54.1668 12.1104 55.2799 12.6398C56.1473 13.0523 56.8424 13.6517 57.1538 14.5902C57.6995 16.2352 57.2123 18.105 55.4346 19.1001C55.1473 19.2609 55.1203 19.3834 55.2947 19.6596C56.1617 21.0323 57.0283 22.4053 57.8946 23.7785C57.9253 23.8271 57.9517 23.8783 58.0023 23.9673L58.0022 23.9674ZM51.5667 14.8914C51.0824 14.8914 50.5981 14.8963 50.114 14.8886C49.9646 14.8862 49.9223 14.9386 49.9237 15.0829C49.9298 15.7147 49.9311 16.3467 49.9229 16.9785C49.921 17.1332 49.9634 17.1799 50.1214 17.1786C51.0012 17.1711 51.8815 17.1597 52.7609 17.1817C53.1734 17.192 53.4796 17.0368 53.7337 16.7391C54.0419 16.3781 54.1172 15.9697 53.9206 15.5365C53.7281 15.1122 53.3898 14.8882 52.9131 14.8908C52.4644 14.8933 52.0155 14.8914 51.5667 14.8914V14.8914Z" fill="#FFB81C"/>
<path d="M35.7957 17.9291C35.7957 15.9965 35.7956 14.064 35.7958 12.1315C35.7958 11.8869 35.7967 11.8863 36.0377 11.8863C39.1581 11.8862 42.2785 11.8862 45.3989 11.8863C45.6336 11.8863 45.6343 11.887 45.6343 12.1159C45.6347 12.9137 45.6347 13.7115 45.6343 14.5094C45.6343 14.743 45.6336 14.7437 45.403 14.7437C43.37 14.7439 41.337 14.7438 39.304 14.7439C39.1463 14.7439 39.0673 14.8246 39.0671 14.986C39.067 15.3878 39.0743 15.7899 39.0636 16.1915C39.0593 16.353 39.1062 16.4005 39.2703 16.4C41.1024 16.3944 42.9344 16.396 44.7664 16.3969C45.0994 16.3972 45.0617 16.3642 45.0624 16.6884C45.0641 17.4684 45.0578 18.2486 45.0669 19.0286C45.069 19.2044 45.0257 19.2589 44.8424 19.2582C42.9926 19.2513 41.1428 19.2563 39.293 19.2504C39.1189 19.2498 39.0568 19.2872 39.0624 19.474C39.0765 19.9523 39.074 20.4314 39.0633 20.9099C39.0596 21.0752 39.1119 21.1158 39.2723 21.1155C41.3407 21.1104 43.4092 21.1121 45.4776 21.1122C45.6491 21.1122 45.7349 21.1989 45.7351 21.3722C45.7352 22.1641 45.7309 22.9561 45.7386 23.7479C45.7401 23.9118 45.704 23.9716 45.5259 23.9713C42.3522 23.966 39.1786 23.9659 36.005 23.9714C35.8228 23.9718 35.7926 23.9043 35.793 23.7445C35.7972 21.8061 35.7957 19.8676 35.7957 17.9292V17.9291Z" fill="#FFB81C"/>
<path d="M68.2163 15.825C67.829 15.6229 67.4839 15.4167 67.1184 15.2573C66.2635 14.8846 65.3674 14.6678 64.4352 14.5961C63.767 14.5446 63.1013 14.5432 62.4439 14.6788C62.2285 14.7232 62.0093 14.8023 61.8213 14.9147C61.4984 15.1077 61.4885 15.5252 61.8241 15.6897C62.2003 15.874 62.6106 16.0039 63.019 16.1046C63.9168 16.3259 64.8297 16.4882 65.7227 16.7258C66.197 16.852 66.6579 17.0551 67.0982 17.2767C68.0344 17.748 68.6144 18.5005 68.7415 19.5604C68.8592 20.5413 68.707 21.4689 68.1238 22.2908C67.6086 23.0168 66.8877 23.4624 66.0596 23.7479C65.3122 24.0055 64.5389 24.117 63.7505 24.1477C61.9744 24.2166 60.2492 23.9434 58.5609 23.4025C58.4262 23.3594 58.377 23.3002 58.378 23.1547C58.3847 22.15 58.3814 21.1451 58.3818 20.1403C58.3818 20.0878 58.3863 20.0353 58.3896 19.9617C58.444 19.9845 58.4875 19.9967 58.5247 20.0192C59.606 20.6748 60.7786 21.0718 62.0321 21.2087C62.9065 21.3042 63.7861 21.3333 64.6556 21.1461C64.8025 21.1145 64.95 21.0529 65.0787 20.9747C65.3793 20.7918 65.4159 20.4066 65.1477 20.1808C65.0156 20.0697 64.8532 19.9705 64.6884 19.9266C63.9716 19.7355 63.2528 19.5487 62.5274 19.3946C61.6609 19.2106 60.7956 19.0349 60.0001 18.6212C58.9971 18.0997 58.4168 17.2938 58.3048 16.1571C58.2362 15.4605 58.256 14.777 58.5336 14.1224C58.9047 13.2476 59.5776 12.6795 60.423 12.296C61.123 11.9786 61.8653 11.8271 62.6265 11.7458C63.4402 11.6588 64.2529 11.6651 65.0643 11.7518C66.0704 11.8593 67.0559 12.0574 67.9919 12.4608C68.1524 12.5301 68.223 12.6182 68.2209 12.8046C68.2107 13.7384 68.2163 14.6723 68.2163 15.6062C68.2163 15.675 68.2163 15.7439 68.2163 15.825Z" fill="#FFB81C"/>
<path d="M25.8424 5.31623C25.4468 5.04761 25.0128 4.88171 24.5196 4.78314C24.6991 4.71534 24.8537 4.66207 25.0043 4.59917C26.1872 4.10497 26.5847 3.0409 26.331 1.96143C26.1617 1.24089 25.6518 0.804526 25.0083 0.510048C24.2279 0.152883 23.3934 0.0243697 22.5459 0.0133191C21.0865 -0.00578068 19.6267 0.00922578 18.1671 1.6962e-05C17.9818 -0.00114267 17.9436 0.0569744 17.9438 0.230714C17.9488 3.39227 17.9474 6.55383 17.9475 9.71538C17.9475 9.94833 17.9481 9.94929 18.181 9.94936C19.3688 9.9497 20.5569 9.96491 21.7444 9.94356C22.421 9.93141 23.1007 9.89144 23.7715 9.80549C24.5448 9.70645 25.2741 9.45719 25.9048 8.96899C27.0477 8.08413 27.1057 6.17395 25.8426 5.31637L25.8424 5.31623ZM20.3019 3.5349C20.3099 3.19875 20.3083 2.86225 20.3026 2.52603C20.3006 2.4087 20.3308 2.35672 20.4596 2.35734C21.3624 2.36177 22.2652 2.35515 23.168 2.363C23.5532 2.36634 23.7675 2.62289 23.7658 3.04261C23.7642 3.44827 23.547 3.69459 23.1649 3.70162C22.7166 3.70987 22.268 3.70353 21.8196 3.70353V3.70462C21.3712 3.70462 20.9227 3.7008 20.4743 3.70701C20.3436 3.70885 20.2988 3.66772 20.3019 3.5349ZM23.7647 6.83187C23.7496 7.1655 23.5283 7.41079 23.2009 7.41973C22.7411 7.43221 22.2807 7.42287 21.8205 7.42287C21.3721 7.42287 20.9235 7.41877 20.4752 7.42546C20.3462 7.42737 20.298 7.39237 20.3018 7.2569C20.3106 6.94442 20.3044 6.63152 20.3046 6.31883C20.3047 6.08438 20.305 6.0837 20.5327 6.08363C21.2997 6.08329 22.0668 6.08315 22.8339 6.08377C22.9799 6.0839 23.1285 6.07129 23.2715 6.09339C23.6165 6.14666 23.784 6.40731 23.7648 6.83193L23.7647 6.83187Z" fill="#FFB81C"/>
<path d="M34.9885 11.9027C34.778 12.4187 34.579 12.9096 34.3777 13.3998C33.6025 15.2873 32.8422 17.1812 32.0384 19.0566C31.8638 19.4639 31.5636 19.8317 31.2667 20.1699C30.0217 21.5873 28.4666 22.4781 26.6113 22.8448C26.4413 22.8784 26.3973 22.8153 26.3441 22.6852C25.1551 19.7817 23.9632 16.8795 22.7718 13.977C22.5143 13.3497 22.2562 12.7225 21.9993 12.0949C21.9753 12.0365 21.9578 11.9755 21.9272 11.8864H22.1421C23.2236 11.8864 24.305 11.8896 25.3863 11.8828C25.5428 11.8819 25.6115 11.933 25.6643 12.0793C26.5439 14.5198 27.4294 16.9582 28.3136 19.3969C28.3257 19.4302 28.3319 19.4671 28.3508 19.4959C28.3805 19.5411 28.4186 19.5807 28.4531 19.6227C28.4875 19.5808 28.5363 19.5441 28.554 19.4961C28.8407 18.7158 29.1235 17.934 29.4071 17.1527C30.0227 15.4567 30.6387 13.7609 31.2531 12.0646C31.2914 11.959 31.3266 11.8822 31.4696 11.883C32.5923 11.8893 33.7152 11.8864 34.838 11.8871C34.8784 11.8871 34.9188 11.8952 34.9885 11.9027Z" fill="#FFB81C"/>
<path d="M27.6263 4.97103C27.6263 3.39318 27.6262 1.81534 27.6264 0.237493C27.6264 0.00515761 27.6271 0.00447648 27.8583 0.00447648C30.3994 0.00434005 32.9405 0.00631744 35.4816 0.000246445C35.6646 -0.000162836 35.71 0.053863 35.7073 0.22999C35.6974 0.868059 35.6976 1.50647 35.7072 2.1446C35.7098 2.3193 35.6506 2.36289 35.4841 2.36234C33.8412 2.35716 32.1984 2.3592 30.5555 2.35934C30.3897 2.35934 30.3068 2.44288 30.3066 2.60996C30.3065 2.89359 30.3065 3.17729 30.3066 3.46092C30.3067 3.62308 30.386 3.70435 30.5445 3.70471C31.9805 3.70492 33.4166 3.70478 34.8526 3.70478C35.1098 3.70478 35.2384 3.83255 35.2384 4.08807C35.2384 4.66721 35.2386 5.24634 35.2384 5.82547C35.2382 6.05883 35.2378 6.05951 35.0089 6.05951C33.5138 6.05971 32.0187 6.0621 30.5236 6.05623C30.3575 6.05555 30.2964 6.09539 30.3026 6.2707C30.3156 6.63666 30.3159 7.00372 30.3025 7.36962C30.296 7.54718 30.344 7.5997 30.5275 7.59881C32.1644 7.59138 33.8014 7.59336 35.4383 7.59533C35.8244 7.59581 35.7716 7.54431 35.7736 7.93633C35.7766 8.53907 35.7702 9.14194 35.7772 9.7446C35.7789 9.89419 35.7416 9.95245 35.5806 9.95224C32.9923 9.94808 30.4039 9.94795 27.8155 9.95238C27.6482 9.95265 27.6237 9.88314 27.624 9.73996C27.6278 8.15032 27.6264 6.5606 27.6264 4.97096L27.6263 4.97103Z" fill="#FFB81C"/>
<path d="M41.2178 0.00434381C42.6477 0.00434381 44.0776 0.00700448 45.5075 0.000865274C45.6802 0.000114926 45.7431 0.0381788 45.7396 0.225015C45.7275 0.862947 45.7298 1.50129 45.7384 2.13929C45.7407 2.30832 45.6909 2.36385 45.519 2.36248C44.6269 2.35532 43.7346 2.359 42.8424 2.35935C42.6086 2.35941 42.6078 2.3601 42.6078 2.59161C42.6076 4.94921 42.6076 7.3068 42.6076 9.66439C42.6076 9.85412 42.5144 9.94911 42.3282 9.94939C41.5719 9.94959 40.8155 9.94448 40.0593 9.95307C39.881 9.95512 39.8285 9.9028 39.829 9.72251C39.8347 7.35311 39.8328 4.98372 39.8327 2.61426C39.8327 2.44445 39.7453 2.35946 39.5705 2.35928C38.6901 2.35914 37.8096 2.35553 36.9293 2.36248C36.7638 2.36378 36.7031 2.32292 36.7058 2.14645C36.7158 1.50258 36.716 0.858309 36.7057 0.214442C36.7028 0.0374967 36.7628 0.000320532 36.9279 0.00100267C38.3578 0.00693724 39.7878 0.00441251 41.2176 0.00441251L41.2178 0.00434381Z" fill="#FFB81C"/>
<path d="M21.0966 22.2223C20.8824 22.1131 20.7022 22.0286 20.5289 21.9318C19.5916 21.4086 18.7477 20.7541 17.9295 20.0652C17.8747 20.019 17.8469 19.9129 17.8464 19.8344C17.8405 19.025 17.8427 18.2155 17.8427 17.406C17.8427 15.6511 17.8427 13.8964 17.8427 12.1415C17.8427 11.9717 17.9247 11.8867 18.0886 11.8864C19.028 11.8862 19.9676 11.8901 20.9069 11.8828C21.0727 11.8815 21.1168 11.9361 21.1167 12.0955C21.1131 15.3984 21.114 18.7012 21.1133 22.0041C21.1133 22.0611 21.1048 22.1181 21.0966 22.2224L21.0966 22.2223Z" fill="#FFB81C"/>
<path d="M68.7989 23.0988C68.8307 23.0226 68.8751 22.959 68.9324 22.9018C68.9896 22.8446 69.0595 22.8001 69.1358 22.7683C69.212 22.7366 69.2946 22.7175 69.3773 22.7175C69.4663 22.7175 69.5426 22.7366 69.6189 22.7683C69.6951 22.8001 69.7587 22.8446 69.8159 22.9018C69.8731 22.9591 69.9176 23.0226 69.9494 23.0988C69.9811 23.1751 70.0002 23.2577 70.0002 23.3467C70.0002 23.4357 69.9811 23.5184 69.9494 23.5946C69.9176 23.6709 69.8731 23.7345 69.8159 23.7916C69.7586 23.8489 69.6951 23.8933 69.6189 23.9251C69.5426 23.9569 69.46 23.9696 69.3773 23.9696C69.2883 23.9696 69.212 23.9569 69.1358 23.9251C69.0595 23.8933 68.9896 23.8489 68.9324 23.7916C68.8751 23.7344 68.8307 23.6709 68.7989 23.5946C68.7671 23.5184 68.748 23.4357 68.748 23.3467C68.748 23.2577 68.7671 23.1751 68.7989 23.0988ZM68.9006 23.5628C68.926 23.6264 68.9642 23.6836 69.0086 23.7345C69.0531 23.7853 69.1103 23.8171 69.1739 23.8489C69.2375 23.8743 69.3074 23.887 69.3773 23.887C69.4472 23.887 69.5172 23.8743 69.5807 23.8489C69.6443 23.8234 69.6951 23.7853 69.746 23.7345C69.7905 23.6836 69.8286 23.6328 69.8541 23.5628C69.8795 23.4993 69.8922 23.4293 69.8922 23.3467C69.8922 23.2705 69.8795 23.2005 69.8541 23.137C69.8286 23.0734 69.7905 23.0162 69.746 22.9717C69.7015 22.9272 69.6443 22.8891 69.5807 22.8573C69.5172 22.8319 69.4536 22.8192 69.3773 22.8192C69.3011 22.8192 69.2375 22.8319 69.1739 22.8573C69.1103 22.8827 69.0532 22.9209 69.0086 22.9717C68.9642 23.0162 68.926 23.0734 68.9006 23.137C68.8751 23.2005 68.8624 23.2705 68.8624 23.3467C68.8624 23.423 68.8751 23.4993 68.9006 23.5628ZM69.4218 22.9844C69.5108 22.9844 69.5743 23.0035 69.6124 23.0352C69.6569 23.067 69.676 23.1242 69.676 23.1941C69.676 23.2576 69.6569 23.3085 69.6188 23.3403C69.5807 23.372 69.5362 23.3911 69.479 23.3975L69.6887 23.7216H69.568L69.371 23.4038H69.2502V23.7216H69.1358V22.9907H69.4219L69.4218 22.9844ZM69.3709 23.3085H69.4408C69.4663 23.3085 69.4853 23.3022 69.5044 23.2958C69.5235 23.2895 69.5362 23.2767 69.5489 23.2577C69.5616 23.2387 69.568 23.2196 69.568 23.1878C69.568 23.1623 69.5616 23.1433 69.5553 23.1306C69.5489 23.1178 69.5362 23.1051 69.5172 23.0988C69.5045 23.0924 69.4854 23.0861 69.4663 23.0797C69.4472 23.0797 69.4282 23.0733 69.4091 23.0733H69.2566V23.3085H69.371H69.3709Z" fill="#FFB81C"/>
</svg>
