<svg width="117" height="20" viewBox="0 0 117 20" fill="none" xmlns="http://www.w3.org/2000/svg">
<g clip-path="url(#clip0_6523_1212)">
<path d="M63.9052 9.29906C63.8305 8.34366 63.4882 7.50135 62.888 6.79398C62.2994 6.10148 61.4664 5.56475 60.4133 5.20064C59.3873 4.84646 57.7844 4.66589 56.3415 4.66589C54.9888 4.66589 53.7999 4.85142 52.8099 5.21652C51.7917 5.59154 50.9946 6.14017 50.4399 6.84656C49.8717 7.56981 49.5827 8.43791 49.5827 9.42605V9.43994C49.5827 10.2515 49.7776 10.8319 50.1636 11.4321C50.5447 12.0254 51.1119 12.5115 51.8499 12.8756C52.5587 13.2268 53.4557 13.4759 54.5146 13.6157L58.2014 14.0205C59.3369 14.1654 59.8538 14.3926 60.0875 14.5573C60.3687 14.7557 60.4996 15.1684 60.4996 15.5652V15.5791C60.4996 15.9184 60.3929 16.1893 60.1641 16.4304C59.9149 16.6933 59.5231 16.9006 58.9995 17.0465C58.439 17.2022 57.7408 17.2816 56.9224 17.2816C55.5502 17.2816 54.8385 17.106 54.1141 16.7607C53.4479 16.4433 53.061 16.0018 52.9301 15.4125L52.8555 15.092H49.1279L49.1832 15.5643C49.3034 16.5623 49.6933 17.1824 50.341 17.8898C50.9762 18.5833 51.8586 19.116 52.965 19.4732C53.9095 19.7787 55.0363 19.9524 56.3212 19.9901C56.5015 19.995 56.6858 19.998 56.8719 19.998C57.0475 19.998 57.573 19.995 57.7427 19.9891C58.9549 19.9484 60.0225 19.7649 60.9233 19.4414C61.9784 19.0624 62.8084 18.5029 63.3883 17.7806C63.9837 17.0385 64.2853 16.4016 64.2853 15.4025V15.3886C64.2853 14.1356 63.879 13.3032 63.0761 12.6087C62.312 11.947 61.0678 11.4976 59.3796 11.2714L55.43 10.8527C54.8375 10.7852 54.3565 10.6781 53.9997 10.5352C53.6807 10.4073 53.4518 10.2515 53.318 10.0719C53.1919 9.90326 53.1338 9.55701 53.1338 9.31692V9.30303C53.1338 8.96968 53.2336 8.55398 53.4479 8.32183C53.6816 8.06785 54.0462 7.86645 54.533 7.7216C55.0538 7.56683 55.5919 7.48846 56.3667 7.48846C57.5759 7.48846 58.5418 7.671 59.238 8.03114C59.8819 8.3635 60.2203 8.93198 60.3018 9.49153L60.3522 9.81595H63.942L63.9052 9.29708V9.29906Z" fill="white"/>
<path d="M80.4853 9.29906C80.4106 8.34366 80.0683 7.50135 79.468 6.79398C78.8794 6.10148 78.0465 5.56475 76.9934 5.20064C75.9674 4.84646 74.3645 4.66589 72.9216 4.66589C71.5689 4.66589 70.38 4.85142 69.39 5.21652C68.3718 5.59154 67.5747 6.14017 67.02 6.84656C66.4518 7.56981 66.1628 8.43791 66.1628 9.42605V9.43994C66.1628 10.2515 66.3577 10.8319 66.7436 11.4321C67.1247 12.0254 67.692 12.5115 68.43 12.8756C69.1388 13.2268 70.0358 13.4759 71.0947 13.6157L74.7815 14.0205C75.917 14.1654 76.4338 14.3926 76.6675 14.5573C76.9488 14.7557 77.0797 15.1684 77.0797 15.5652V15.5791C77.0797 15.9184 76.973 16.1893 76.7442 16.4304C76.4949 16.6933 76.1032 16.9006 75.5795 17.0465C75.0191 17.2022 74.3209 17.2816 73.5024 17.2816C72.1303 17.2816 71.4186 17.106 70.6942 16.7607C70.028 16.4433 69.6411 16.0018 69.5102 15.4125L69.4355 15.092H65.708L65.7633 15.5643C65.8835 16.5623 66.2733 17.1824 66.9211 17.8898C67.5563 18.5833 68.4387 19.116 69.5451 19.4732C70.4896 19.7787 71.6164 19.9524 72.9012 19.9901C73.0816 19.995 73.2658 19.998 73.452 19.998C73.6275 19.998 74.1531 19.995 74.3228 19.9891C75.5349 19.9484 76.6026 19.7649 77.5034 19.4414C78.5585 19.0624 79.3885 18.5029 79.9684 17.7806C80.5638 17.0385 80.8654 16.4016 80.8654 15.4025V15.3886C80.8654 14.1356 80.4591 13.3032 79.6562 12.6087C78.892 11.947 77.6479 11.4976 75.9597 11.2714L72.0101 10.8527C71.4176 10.7852 70.9366 10.6781 70.5798 10.5352C70.2607 10.4073 70.0319 10.2515 69.8981 10.0719C69.772 9.90326 69.7138 9.55701 69.7138 9.31692V9.30303C69.7138 8.96968 69.8137 8.55398 70.028 8.32183C70.2617 8.06785 70.6263 7.86645 71.1131 7.7216C71.6338 7.56683 72.172 7.48846 72.9468 7.48846C74.156 7.48846 75.1218 7.671 75.8181 8.03114C76.462 8.3635 76.8004 8.93198 76.8819 9.49153L76.9323 9.81595H80.5221L80.4853 9.29708V9.29906Z" fill="white"/>
<path d="M16.7467 12.3974V12.3945V12.2079V11.9639H16.738C16.6546 9.92509 15.9739 8.17898 14.7608 6.90014C13.346 5.40999 11.1224 4.62225 8.55274 4.62225C6.32147 4.62225 4.41795 5.57468 3.47249 6.64418V0H0V19.6131H3.47055V18.2112C4.7234 19.375 6.59201 19.9643 8.66814 19.9643C10.9023 19.9643 13.3363 19.4097 14.7598 17.8967C15.9709 16.6099 16.6517 14.8757 16.736 12.8687H16.7438L16.7457 12.6226V12.4252V12.4123V12.4014V12.3984L16.7467 12.3974ZM8.31614 17.1893C7.29698 17.1893 6.53189 16.9969 5.7348 16.6C4.21722 15.846 3.47152 14.1951 3.47152 12.3955C3.47152 10.2227 4.68171 8.14028 6.67347 7.67101C7.2165 7.54303 7.69165 7.47854 8.31614 7.47854C9.77747 7.47854 11.008 7.92797 11.8749 8.77821C12.738 9.62449 13.1966 10.9896 13.2005 12.4163C13.1928 15.2706 11.2301 17.1893 8.31614 17.1893Z" fill="white"/>
<path d="M99.1651 12.4093V12.4054V12.2189V11.9748H99.1534C99.0536 10.0402 98.3321 8.27322 97.1103 6.97851C95.6383 5.41891 93.2771 4.59546 90.7277 4.59546C88.1784 4.59546 85.9413 5.41594 84.4741 6.96958C83.2455 8.27024 82.5202 10.0402 82.4193 11.9748H82.4096L82.4067 12.2208V12.4212V12.4331V12.4421V12.4451V12.448V12.6345V12.8786H82.4193C82.5221 14.7845 83.2484 16.2875 84.4761 17.5792C85.7396 18.9067 87.6063 19.7034 89.6931 19.9147C89.7163 19.9167 89.7386 19.9206 89.7619 19.9226C89.888 19.9345 90.015 19.9434 90.143 19.9514C90.176 19.9534 90.208 19.9563 90.2409 19.9583C90.4019 19.9663 90.5638 19.9712 90.7277 19.9732C90.7277 19.9732 90.7277 19.9732 90.7287 19.9732C90.7287 19.9732 90.7287 19.9732 90.7297 19.9732C90.7481 19.9732 90.7655 19.9722 90.784 19.9712C90.9285 19.9692 91.1883 19.9653 91.3299 19.9583C91.3871 19.9553 91.4414 19.9504 91.4977 19.9464C91.6014 19.9395 91.7042 19.9335 91.806 19.9236C91.8487 19.9196 91.8894 19.9137 91.9311 19.9097C92.0485 19.8968 92.1648 19.8839 92.2792 19.868C92.2909 19.8661 92.3025 19.8641 92.3142 19.8621C94.2109 19.5893 95.9224 18.8134 97.0967 17.5792C98.3757 16.2339 99.1098 14.6386 99.1631 12.6405L99.167 12.455V12.451V12.447V12.4232V12.4143V12.4103L99.1651 12.4093ZM95.7071 12.9828V12.9858L95.7062 12.9927C95.4579 15.466 93.4574 17.1556 90.7277 17.1983C87.9941 17.1556 86.109 15.4641 85.8608 12.9887C85.792 12.4222 85.8162 11.4906 86.0295 10.7714V10.7664L86.0324 10.7614L86.0441 10.7208C86.5794 8.71273 88.2104 7.41703 90.7248 7.41703C93.2392 7.41703 95.0148 8.73158 95.5365 10.7694V10.7743L95.5394 10.7793C95.7517 11.4926 95.775 12.4222 95.7071 12.9838V12.9828Z" fill="white"/>
<path d="M115.41 6.38423C114.355 5.27704 112.52 4.71649 110.653 4.71649C109.395 4.71649 108.111 4.82662 106.389 5.73936C105.818 6.04195 105.21 6.55388 104.801 7.00232V4.99131H101.282V19.6319H104.801V12.0641C104.801 11.2376 104.973 10.4033 105.311 9.80008C105.648 9.20084 106.337 8.59069 106.95 8.26627C108.084 7.66604 109.153 7.52219 109.99 7.52219C111.158 7.52219 111.922 7.83569 112.495 8.45477C113.071 9.07782 113.481 10.0233 113.481 11.2644V19.6309H117V10.9787C117 9.03714 116.465 7.49143 115.41 6.38423Z" fill="white"/>
<path d="M46.5483 16.8113C45.5292 17.0832 44.6642 17.0991 44.4538 17.0991H44.3306C42.558 17.0991 42.5658 16.3768 42.5658 15.7468V7.96468H47.2029V5.00322H42.5658V0H39.0952V5.00422H35.3735V7.96567H39.0952V16.0464C39.0952 17.3878 39.5549 18.1884 40.4615 18.9097C41.3488 19.6161 42.6279 19.9742 44.2647 19.9742C44.2676 19.9742 44.2725 19.9742 44.2793 19.9742C44.4897 19.9712 46.9217 19.9246 48.1493 19.3244L48.4354 19.1756L46.8664 16.729L46.5503 16.8133L46.5483 16.8113Z" fill="white"/>
<path d="M22.307 12.8955H34.9567V12.6376C34.9548 12.5453 34.9538 12.459 34.9519 12.4104C34.8986 10.6007 34.5562 8.58378 32.8952 6.89521C31.4561 5.43184 28.964 4.59351 26.6726 4.59351C25.2016 4.59351 23.8857 4.86534 22.7628 5.40307C22.3293 5.61042 21.9162 5.86341 21.5351 6.15608C21.3877 6.26918 21.2559 6.37832 21.1337 6.48745C20.8234 6.76623 20.5344 7.08172 20.2736 7.424C20.2096 7.50833 20.1475 7.59366 20.0893 7.67898C19.842 8.03713 19.6258 8.41909 19.4483 8.81296C19.0217 9.75547 18.7705 10.8438 18.7152 11.9728H18.7065L18.7036 12.2189V12.4193V12.4312V12.4401V12.4431V12.4461V12.6326V12.8767H18.7152C18.7162 12.8975 18.7182 12.9173 18.7191 12.9382L18.7259 13.0453C18.7288 13.0949 18.7317 13.1455 18.7356 13.1951C18.7395 13.2437 18.7453 13.2933 18.7502 13.342L18.7618 13.4511C18.7657 13.4878 18.7696 13.5255 18.7744 13.5632C18.7822 13.6217 18.7909 13.6803 18.7996 13.7388L18.8142 13.836C18.818 13.8658 18.8229 13.8975 18.8277 13.9283C18.8403 14.0017 18.8539 14.0741 18.8685 14.1466L18.882 14.217C18.8859 14.2398 18.8908 14.2646 18.8956 14.2894C18.915 14.3817 18.9373 14.474 18.9577 14.5543L18.9654 14.5861C18.9703 14.6059 18.9742 14.6267 18.98 14.6466C19.0042 14.7418 19.0323 14.8371 19.0585 14.9264L19.0653 14.9512C19.0692 14.9651 19.074 14.9819 19.0789 14.9978C19.1119 15.1059 19.1468 15.2101 19.1739 15.2875L19.1904 15.3381C19.2243 15.4343 19.2622 15.5325 19.3068 15.6437L19.3194 15.6774C19.3611 15.7806 19.4047 15.8808 19.458 15.9969L19.4629 16.0088C19.5123 16.1139 19.5637 16.2191 19.619 16.3252L19.6229 16.3332C20.9388 18.8412 23.4794 19.9752 26.7793 19.9752C30.0791 19.9752 32.9669 18.9454 34.5931 16.5336L34.7609 16.2846L32.2067 14.6377L32.0389 14.8222C30.7298 16.2588 29.6564 17.2003 26.7793 17.2003C26.7647 17.2003 26.7502 17.2003 26.7356 17.2003H26.7259L26.6784 17.1993C25.4934 17.1814 24.7962 16.8471 23.9933 16.233C23.9342 16.1873 23.8818 16.1457 23.8285 16.1C23.7732 16.0534 23.7237 16.0088 23.6723 15.9611C23.6219 15.9145 23.5773 15.8699 23.5347 15.8252L23.5269 15.8173C23.4765 15.7647 23.4348 15.7201 23.395 15.6744L23.3853 15.6635C23.3368 15.6079 23.3 15.5633 23.2612 15.5147L23.2525 15.5038C23.2147 15.4552 23.1788 15.4085 23.1439 15.3609L23.1264 15.3361C23.0925 15.2885 23.0605 15.2419 23.0285 15.1932L23.0091 15.1615C22.978 15.1139 22.949 15.0672 22.9208 15.0196L22.8995 14.9809C22.8723 14.9333 22.8462 14.8877 22.821 14.84L22.7967 14.7924C22.7725 14.7458 22.7502 14.7012 22.7279 14.6555L22.6988 14.592L22.6939 14.5811C22.6765 14.5434 22.659 14.5047 22.6425 14.466L22.6096 14.3837C22.594 14.345 22.5795 14.3083 22.565 14.2706C22.5601 14.2567 22.5562 14.2448 22.5514 14.2319L22.53 14.1694L22.5281 14.1634C22.5174 14.1317 22.5058 14.1009 22.4961 14.0692C22.4913 14.0553 22.4874 14.0414 22.4835 14.0285L22.4816 14.0206L22.4602 13.9491L22.4573 13.9392C22.4496 13.9144 22.4428 13.8896 22.435 13.8648C22.4302 13.8459 22.4253 13.8261 22.4205 13.8063L22.402 13.7309C22.3953 13.7041 22.3885 13.6793 22.3827 13.6535C22.3778 13.6317 22.373 13.6098 22.3691 13.587L22.3516 13.5037C22.3468 13.4789 22.3419 13.458 22.338 13.4382C22.3322 13.4074 22.3274 13.3767 22.3225 13.3459C22.3225 13.3459 22.3022 13.1902 22.3022 13.0175H22.3031V12.8985L22.307 12.8955ZM22.7443 9.78126C22.8462 9.55903 22.9674 9.34771 23.1031 9.15127C23.139 9.09968 23.1788 9.04512 23.2214 8.98956C23.2913 8.89928 23.3669 8.81098 23.4454 8.72665C23.523 8.64331 23.6064 8.56295 23.6917 8.48755C23.746 8.43993 23.8004 8.39429 23.8537 8.35262C23.877 8.33377 23.9012 8.31591 23.9254 8.29805C24.1203 8.15221 24.3347 8.02324 24.5635 7.91411C24.6275 7.88335 24.6925 7.85359 24.7594 7.82581C25.4013 7.55695 25.8115 7.42004 26.6736 7.42004C28.3298 7.42004 29.7019 8.0907 30.5368 9.31001C30.7599 9.63542 30.9606 10.1841 31.1012 10.5849C31.1158 10.6275 31.1313 10.6692 31.1439 10.7079H22.4845C22.4903 10.6722 22.499 10.6295 22.5087 10.5849C22.563 10.3319 22.6639 9.95687 22.7443 9.78126Z" fill="white"/>
</g>
<defs>
<clipPath id="clip0_6523_1212">
<rect width="117" height="20" fill="white"/>
</clipPath>
</defs>
</svg>
