<svg width="126" height="33" viewBox="0 0 126 33" fill="none" xmlns="http://www.w3.org/2000/svg">
<path d="M111.813 8.47212C110.367 9.89507 108.033 9.89507 106.587 8.47212C105.14 7.04917 105.14 4.70818 106.587 3.28523C108.033 1.86228 110.367 1.86228 111.813 3.28523C113.26 4.75408 113.26 7.04917 111.813 8.47212Z" fill="#D60000"/>
<path d="M121.707 4.98358L104.44 14.7147L107.94 11.2721L96.6936 4.98358L103.787 17.377L96.6936 29.7705L109.2 22.7475L121.707 29.7705L114.614 17.377L121.707 4.98358Z" fill="#D60000"/>
<path d="M11.5735 20.7738C13.7202 20.7738 15.2602 19.3049 15.2602 17.3311C15.2602 15.4492 13.7202 13.8426 11.7135 13.8426C9.75349 13.8426 8.30683 15.3574 8.30683 17.377C8.30683 19.3049 9.80016 20.7738 11.5735 20.7738ZM8.30683 22.8393L4.24683 24.4V5.80981H8.44683V11.9147C9.33349 10.7672 10.5935 10.1246 12.4135 10.1246C14.1868 10.1246 15.8202 10.7672 17.1268 12.0524C18.6202 13.4754 19.4135 15.2656 19.4135 17.2852C19.4135 19.4885 18.5735 21.3705 16.9402 22.7934C15.6802 23.8951 14.2335 24.4459 12.5068 24.4459C10.8268 24.4918 9.56683 24.0328 8.30683 22.8393Z" fill="white"/>
<path d="M31.2669 15.9082C30.7536 14.4852 29.5869 13.7049 27.9069 13.7049C26.1802 13.7049 24.9202 14.577 24.6402 15.9082H31.2669ZM34.7669 20.3606C33.4136 23.2984 31.0336 24.7672 27.8602 24.7672C25.7136 24.7672 23.9402 24.0328 22.4936 22.518C21.1402 21.0951 20.3936 19.3049 20.3936 17.3311C20.3936 15.3574 21.1402 13.5672 22.5402 12.1902C23.9869 10.7672 25.8536 9.98688 27.7669 9.98688C32.2936 9.98688 35.3736 13.2 35.3736 18.4328V18.8918H24.7802C25.1536 20.3606 26.2269 21.1869 28.0469 21.1869C28.8869 21.1869 29.5869 20.9574 30.1936 20.4065H34.7669V20.3606Z" fill="white"/>
<path d="M48.5336 20.2229V20.3607C48.5336 21.141 49.1869 21.6918 50.0736 21.6918C50.9602 21.6918 51.5202 21.2328 51.5202 20.4525C51.5202 19.3049 50.4002 19.3508 48.6269 18.8C46.1536 18.0197 44.9869 16.7344 44.9869 14.6229C44.9869 11.8688 47.0402 9.94098 50.4002 9.94098C53.3402 9.94098 55.2069 11.5934 55.3469 14.2557H51.5669C51.4269 13.3377 51.0536 12.9246 50.3069 12.9246C49.4669 12.9246 49.0002 13.3836 49.0002 14.0721C49.0002 15.0361 49.8869 15.2656 51.3336 15.6787C54.2269 16.459 55.6736 17.5607 55.6736 19.9016C55.6736 22.7016 53.4336 24.7672 49.9802 24.7672C46.8069 24.7672 44.8469 23.0688 44.5669 20.2229H48.5336Z" fill="white"/>
<path d="M64.3534 20.7738C66.1268 20.7738 67.6668 19.3049 67.6668 17.377C67.6668 15.3574 66.1734 13.8426 64.2134 13.8426C62.2534 13.8426 60.7134 15.4492 60.7134 17.3311C60.6668 19.259 62.2068 20.7738 64.3534 20.7738ZM67.6201 22.8393C66.3601 24.0328 65.1001 24.4918 63.4201 24.4918C61.6934 24.4918 60.2468 23.941 58.9868 22.8393C57.3534 21.4164 56.5134 19.5344 56.5134 17.3311C56.5134 15.3115 57.3068 13.5213 58.8001 12.0983C60.1068 10.8131 61.7401 10.1705 63.5134 10.1705C65.2401 10.1705 66.5468 10.7213 67.4801 11.9606V10.4H71.6334V24.4459L67.6201 22.8393Z" fill="white"/>
<path d="M73.7803 9.84918C73.7803 6.81967 75.4136 5.48853 78.9136 5.48853C79.1003 5.48853 80.6403 5.58033 80.8736 5.58033V8.42623C80.8269 8.42623 79.4736 8.38033 79.4736 8.38033C78.2136 8.38033 77.9336 8.79344 77.9336 10.0787V10.4H79.9869V13.5213H77.9336V24.4459H73.8269V9.84918H73.7803Z" fill="white"/>
<path d="M36.7268 5.85571H40.8335V10.4H42.8868V13.4754H40.8335V20.177C40.8335 21.4623 41.1135 21.8754 42.3735 21.8754C42.4202 21.8754 43.7735 21.8295 43.7735 21.8295V24.6754C43.5402 24.6754 42.0002 24.7672 41.8135 24.7672C38.3135 24.7672 36.6802 23.3901 36.6802 20.4065C36.7268 20.2688 36.7268 5.85571 36.7268 5.85571Z" fill="white"/>
<path d="M91.2803 15.9082C90.7669 14.4852 89.6003 13.7049 87.9203 13.7049C86.1936 13.7049 84.9336 14.577 84.6536 15.9082H91.2803ZM94.8269 20.3606C93.4736 23.2984 91.0936 24.7672 87.9203 24.7672C85.7736 24.7672 84.0003 24.0328 82.5536 22.518C81.2003 21.0951 80.4536 19.3049 80.4536 17.3311C80.4536 15.3574 81.2003 13.5672 82.6003 12.1902C84.0469 10.7672 85.9136 9.98688 87.8269 9.98688C92.3536 9.98688 95.4336 13.2 95.4336 18.4328V18.8918H84.747C85.1203 20.3606 86.1936 21.1869 88.0136 21.1869C88.8536 21.1869 89.5536 20.9574 90.1603 20.4065H94.8269V20.3606Z" fill="white"/>
</svg>
