<svg viewBox="0 0 45 36" fill="none" xmlns="http://www.w3.org/2000/svg"><g clip-path="url(#a)"><path d="M2.636 2.636C0 5.272 0 9.515 0 18c0 8.485 0 12.728 2.636 15.364C5.272 36 9.515 36 18 36h9c8.485 0 12.728 0 15.364-2.636C45 30.728 45 26.485 45 18c0-8.485 0-12.728-2.636-15.364C39.728 0 35.485 0 27 0h-9C9.515 0 5.272 0 2.636 2.636Z" fill="#01B93C"/><mask id="b" style="mask-type:alpha" maskUnits="userSpaceOnUse" x="0" y="0" width="46" height="36"><path d="M2.645 2.636C0 5.272 0 9.515 0 18c0 8.485 0 12.728 2.645 15.364C5.29 36 9.548 36 18.063 36h9.032c8.515 0 12.772 0 15.418-2.636 2.645-2.636 2.645-6.879 2.645-15.364 0-8.485 0-12.728-2.645-15.364C39.867 0 35.61 0 27.095 0h-9.032C9.548 0 5.29 0 2.645 2.636Z" fill="#068946"/></mask><g mask="url(#b)"><path fill-rule="evenodd" clip-rule="evenodd" d="M45.158-4.5H0V45h13.684c0-4.53.815-9.017 2.396-13.203 1.582-4.185 3.9-7.988 6.823-11.192 2.922-3.204 6.392-5.745 10.21-7.479A29.094 29.094 0 0 1 45.159 10.5v-15Z" fill="url(#c)"/></g><path d="M21.256 32c-1.55 0-2.95-.197-4.204-.59-1.23-.394-2.255-.984-3.075-1.771-.82-.81-1.39-1.794-1.71-2.951-.318-1.181-.352-2.547-.102-4.098.16-.949.354-1.967.581-3.055l.718-3.125c.501-2.014 1.276-3.727 2.324-5.14a9.89 9.89 0 0 1 3.998-3.194C21.404 7.36 23.295 7 25.46 7c1.459 0 2.814.185 4.067.556 1.253.37 2.313.925 3.178 1.666a6.054 6.054 0 0 1 1.914 2.64c.41 1.018.49 2.187.24 3.506a.94.94 0 0 1-.308.52.69.69 0 0 1-.513.21H29.39c-.297 0-.525-.059-.684-.174-.137-.14-.228-.382-.273-.73.022-1.203-.285-2.037-.923-2.5-.638-.463-1.481-.694-2.53-.694-1.252 0-2.334.359-3.246 1.076-.911.695-1.56 1.864-1.948 3.507a77.476 77.476 0 0 0-1.23 5.834c-.273 1.643-.125 2.824.444 3.541.57.695 1.47 1.042 2.7 1.042 1.071 0 2.017-.232 2.837-.694.843-.463 1.538-1.297 2.084-2.5.183-.348.365-.58.547-.695.182-.139.422-.208.718-.208h4.647c.206 0 .365.07.479.208.114.139.148.313.102.52a11.227 11.227 0 0 1-1.503 3.508 10.093 10.093 0 0 1-2.495 2.639c-1.002.717-2.164 1.273-3.486 1.666-1.298.37-2.756.556-4.374.556Z" fill="#000" fill-opacity=".4"/><path d="M20.256 30c-1.55 0-2.95-.189-4.204-.567-1.23-.377-2.255-.944-3.075-1.7a6.18 6.18 0 0 1-1.71-2.833c-.318-1.133-.352-2.444-.102-3.933a72.3 72.3 0 0 1 .581-2.934c.251-1.044.49-2.044.718-3 .501-1.933 1.276-3.577 2.324-4.933 1.048-1.356 2.38-2.378 3.998-3.067C20.404 6.344 22.295 6 24.46 6c1.459 0 2.814.178 4.067.533 1.253.356 2.313.89 3.178 1.6.889.69 1.527 1.534 1.914 2.534.41.977.49 2.1.24 3.366a.895.895 0 0 1-.308.5.704.704 0 0 1-.513.2H28.39c-.297 0-.525-.055-.684-.166-.137-.134-.228-.367-.273-.7.022-1.156-.285-1.956-.923-2.4-.638-.445-1.481-.667-2.53-.667-1.252 0-2.334.344-3.246 1.033-.911.667-1.56 1.79-1.948 3.367a71.79 71.79 0 0 0-1.23 5.6c-.273 1.578-.125 2.711.444 3.4.57.667 1.47 1 2.7 1 1.071 0 2.017-.222 2.837-.667.843-.444 1.538-1.244 2.084-2.4.183-.333.365-.555.547-.666.182-.134.422-.2.718-.2h4.648c.205 0 .364.066.478.2.114.133.148.3.102.5a10.557 10.557 0 0 1-1.503 3.366 9.866 9.866 0 0 1-2.495 2.534c-1.002.689-2.164 1.222-3.486 1.6-1.298.355-2.756.533-4.374.533Z" fill="#fff"/><path d="M.75 18c0-4.264.002-7.386.323-9.775.318-2.368.938-3.903 2.093-5.059 1.156-1.155 2.69-1.775 5.059-2.093C10.614.752 13.736.75 18 .75h9c4.264 0 7.386.002 9.776.323 2.367.318 3.902.938 5.058 2.093 1.155 1.156 1.775 2.69 2.093 5.059.321 2.389.323 5.511.323 9.775s-.002 7.386-.323 9.776c-.318 2.367-.938 3.902-2.093 5.058-1.156 1.155-2.69 1.775-5.059 2.093-2.389.321-5.511.323-9.775.323h-9c-4.264 0-7.386-.002-9.775-.323-2.368-.318-3.903-.938-5.059-2.093-1.155-1.156-1.775-2.69-2.093-5.059C.752 25.387.75 22.265.75 18Z" stroke="#034B26" stroke-opacity=".2" stroke-width="1.5"/></g><defs><linearGradient id="c" x1="22.579" y1="-4.5" x2="22.579" y2="45" gradientUnits="userSpaceOnUse"><stop offset=".212" stop-color="#019931"/><stop offset="1" stop-color="#01CA41" stop-opacity="0"/></linearGradient><clipPath id="a"><path fill="#fff" d="M0 0h45v36H0z"/></clipPath></defs></svg>
