<svg xmlns="http://www.w3.org/2000/svg" fill="none" viewBox="0 0 150 30"><!----><path fill="white" d="M16.734 16.014s-7.02-.738-.156 10.278c0 0-6.264-3.288-6.264-11.298 0-8.448 6.264-11.484 6.264-11.484-7.86 11.076.186 10.53.186 10.53l11.304-.906C27.57 4.362 24.876 0 14.028 0S0 4.422 0 15s3.588 15 14.064 15 13.434-4.464 13.992-13.32l-11.328-.666zM68.892.486h-8.76c-6.966 0-9.78 2.91-9.78 7.992s2.502 6.534 14.238 13.068c-12.3-4.632-13.956-4.05-13.956-4.05l1.32 9.876c.144 1.218 1.17 2.136 2.376 2.136h7.692c8.64 0 9.168-4.08 9.168-8.106 0-4.938-.732-6.39-13.206-12.924 12.678 4.26 13.302 3.606 13.302 3.606V2.916c0-1.344-1.074-2.43-2.394-2.43M47.574 2.592A2.406 2.406 0 0 0 45.198.486L33.174.498a2.4 2.4 0 0 0-2.37 2.106l-3.18 24.156c-.192 1.452.924 2.748 2.37 2.748h6.486L39.702 3.39c-.318 23.034.294 26.124 5.976 26.124h2.7c1.446-.006 2.562-1.302 2.37-2.754l-3.18-24.168zM118.506.486h-4.728c-3.402 0-5.646 0-6.684 17.904C106.074.486 103.62.486 100.278.486h-4.65c-1.326 0-2.394 1.086-2.394 2.43v24.162c0 1.344 1.074 2.43 2.394 2.43h4.284c3.666 0 5.712-.39-4.404-10.086 0 0 9.582 7.242 11.67 7.242s11.178-7.032 11.178-7.032c-8.916 9.246-8.25 9.882-4.434 9.882h4.584c1.32 0 2.394-1.086 2.394-2.43V2.916c0-1.344-1.074-2.43-2.394-2.43M89.874.492l-2.07.012c-2.844 0-3.564-.012-5.454 21.42C81.222.714 80.622.486 77.052.486h-2.424c-1.32 0-2.394 1.086-2.394 2.43v19.698c0 3.12 3.066 6.9 10.11 6.9s9.924-2.916 9.924-6.252V2.922c0-1.344-1.074-2.43-2.4-2.43zM135.894 0c-11.166 0-14.028 4.422-14.028 15s3.588 15 14.064 15 14.064-4.422 14.064-15-2.928-15-14.1-15m.426 25.776s-1.326-3.024-1.326-10.77 1.326-10.77 1.326-10.77 1.56 4.236 1.56 10.77-1.56 10.77-1.56 10.77"></path><!----></svg>