<?xml version="1.0" encoding="UTF-8"?>
<svg id="Layer_1" data-name="Layer 1" xmlns="http://www.w3.org/2000/svg" version="1.1" viewBox="0 0 469 111.2">
  <defs>
    <style>
      .cls-1 {
        fill: #79c000;
        stroke-width: 0px;
      }
    </style>
  </defs>
  <path class="cls-1" d="M55.8,83.1c-4,6.4-9.1,9.6-15.2,9.6-11.9,0-20.8-9.3-20.8-21.7s6.9-21.7,20-21.7,13.9,6.5,16,10.1l.3.6h22l-.5-1.5c-6.8-20.3-24.6-27.5-37.8-27.5s-20.2,4.1-27.7,11.3C4.3,49.8,0,60,0,70.9c0,24.9,20.7,40.3,39.9,40.3s31.5-10.1,37.6-26.9l.6-1.6h-22l-.3.4ZM123.7,30.9c-22.2,0-39.9,17.9-39.9,40.1s17.7,40.1,39.7,40.1,40.1-18,40.1-40.1-17.9-40.1-39.9-40.1M123.9,92c-11.3,0-20.3-9-20.3-20.3s9-20.3,20.3-20.3,20.3,9,20.3,20.3-9.2,20.3-20.3,20.3M230.2,39c-4.5-3.8-12.1-8.1-21.5-8.1-21.7,0-38.5,17.9-38.5,40.1s17.9,40.1,39.9,40.1,40.1-18,40.1-40.1V0h-20v39h0ZM210,92c-11.3,0-20.3-9-20.3-20.3s9-20.3,20.3-20.3,20.3,9,20.3,20.3-9,20.3-20.3,20.3M310.4,90.8c-9.9,4.2-21.6,1.4-28.1-6.8l56.2-23.8-2.2-5.2c-8.7-20.6-29.9-30.5-51.9-21.2s-31.4,32.1-22.7,52.7,33.2,29.1,55.3,19.7c10.2-4.3,18.5-12,23-20.9l-16.3-8.3c-2.8,7.1-7.2,11.3-13.3,13.8M291,49.3c8.3-3.5,16.5-1.1,21.9,4.1l-35.3,14.9c.4-8.2,5.2-15.5,13.4-19M452.6,77.1c-2.7,7-7.2,11.1-13.2,13.7-9.9,4.2-21.6,1.4-28.1-6.8l56.2-23.8-2.2-5.2c-8.7-20.6-29.9-30.5-51.9-21.2s-31.4,32.1-22.7,52.7,33.2,29.1,55.3,19.7c10.2-4.3,18.5-12,23-20.9l-16.4-8.2ZM419.9,49.3c8.3-3.5,16.5-1.1,21.9,4.1l-35.3,14.9c.5-8.2,5.3-15.5,13.4-19M348.3,66.1v42.9h19.8v-40.5c0-12.1,6.9-18,16.6-18v-17.9c-22.5,0-36.4,15.3-36.4,33.5"/>
</svg>