<svg fill="none" height="25" viewBox="0 0 208 25" width="208" xmlns="http://www.w3.org/2000/svg"><path d="m90.3331 24.9892h-9.0989c-5.5329 0-10.0342-4.5053-10.0342-10.043v-14.9295245h5.5099v14.9295245c0 2.497 2.0295 4.5282 4.5243 4.5282h9.0989zm-56.582 0h-1.8198c-5.5328 0-10.0341-4.5053-10.0341-10.043v-4.8866c0-5.53771 4.5013-10.0429245 10.0341-10.0429245h1.8198c5.5329 0 10.0342 4.5052145 10.0342 10.0429245v4.8866c0 5.5377-4.5013 10.043-10.0342 10.043zm-1.8198-19.45781c-2.4947 0-4.5242 2.03126-4.5242 4.52821v4.8866c0 2.497 2.0295 4.5282 4.5242 4.5282h1.8198c2.4948 0 4.5243-2.0312 4.5243-4.5282v-4.8866c0-2.49695-2.0295-4.52821-4.5243-4.52821z" fill="#17beff"/><path d="m112.227 6.41681c0-3.58916-3.332-6.4001345-7.583-6.4001345h-11.5467v24.9725245h11.5467c4.251 0 7.583-2.811 7.583-6.4002v-2.4433c0-1.3634-.482-2.6149-1.311-3.6428.829-1.0279 1.311-2.2794 1.311-3.64276zm-13.6198-.88542h6.0368c1.382 0 2.073.71692 2.073.88542v2.44333c0 .16851-.691.88542-2.073.88542h-6.0368zm8.1098 13.05761c0 .1685-.691.8854-2.073.8854h-6.0368v-4.2141h6.0368c1.382 0 2.073.7169 2.073.8854z" fill="#ff8f04"/><path d="m58.4018 24.9892h-1.8198c-5.5328 0-10.0341-4.5053-10.0341-10.043v-4.8866c0-5.53771 4.5013-10.0429245 10.0341-10.0429245h1.8198c5.5329 0 10.0341 4.5052145 10.0341 10.0429245v4.8866c0 5.5377-4.5012 10.043-10.0341 10.043zm-1.8198-19.45781c-2.4948 0-4.5242 2.03126-4.5242 4.52821v4.8866c0 2.497 2.0294 4.5282 4.5242 4.5282h1.8198c2.4948 0 4.5242-2.0312 4.5242-4.5282v-4.8866c0-2.49695-2.0294-4.52821-4.5242-4.52821z" fill="#17beff"/><path d="m125.024 5.53139h9.099v-5.5147145h-9.099c-1.572 0-3.122.3707115-4.524 1.0830245-3.266 1.65902-5.51 5.05057-5.51 8.9599v4.8866c0 3.9094 2.244 7.3009 5.51 8.9599 1.401.7135 2.952 1.0847 4.524 1.0831h9.099v-5.5148h-9.099c-2.389 0-4.351-1.8627-4.512-4.2141h8.1v-5.51474h-8.1c.162-2.34988 2.123-4.21417 4.512-4.21417z" fill="#ff8f04"/><path d="m156.022.0166755h-19.135v5.5147145h2.299c2.49.00613 4.514 2.03432 4.514 4.52821v14.9296h5.509v-14.9296c0-1.62838-.391-3.16638-1.082-4.52821h7.895z" fill="#e11d00"/><path d="m19.1331 24.9892h-9.099c-5.53283 0-10.0341-4.5053-10.0341-10.043v-4.8866c0-5.53771 4.50127-10.0429245 10.0341-10.0429245h9.099v5.5147145h-9.099c-2.49473 0-4.52421 2.03126-4.52421 4.52821v4.8851c0 2.497 2.02948 4.5282 4.52421 4.5282h9.099z" fill="#70c62a"/><path d="m205.948 10.6249c-.593-.2237-1.148-.5576-1.67-1.00188-1.147-.99419-2.59-1.40013-3.862-1.65595-2.176-.47948-4.242-.50552-6.266-1.59008-1.065-.5959-2.25-1.35417-3.404-1.51348-.596-.08119-1.271-.02604-2.021.16237.283-.96201-3.721 1.48438-2.812 1.06465-3.28 1.34345-6.327 1.06312-8.279 2.82936-2.242 1.75241-4.135 4.27391-4.135 4.27391.624-.5898 1.4-.9927 2.329-1.2132 1.032-.239 2.276-.0858 3.084-.792.801-.5561 1.252-1.19487 1.995-1.73562.003-.00307.006-.0046.009-.0046 1.07-.67708 2.057-.71844 2.671.33242.244 1.1841.137 2.6302-.325 4.3367-.003.0184-.006.0352-.012.0521-.413 1.515-.885 2.6563-1.188 4.2708-.104.8456.04 1.5242.126 2.3897.069.8594-.329 1.6591.044 2.4786.47.7996 1.417 1.5166 2.229 1.6223.939.0153 5.012.3094 3.703-.4458-.335-.6664-.771-.6664-1.357-.4136-.741.1225-1.482.0551-2.088-.4948-.252-1.1673-.015-2.5628-.108-3.7117-.12-1.3787.394-2.8784 1.544-4.4976.733-1.034 2.99-2.9749 2.294-4.064-.638-1.0555-1.446-2.27025-1.053-3.49728.419-.69087 1.131-1.19792 1.824-1.53646 1.225-.58977 2.201-.46569 2.93.36918.989.96661 2.092 1.24234 3.376 1.78922 1.468.78585 3.187 1.20711 4.678 1.35417 1.244.14859 2.205.34927 3.374.64947 1.038.4719 2.065.9008 3.106.3891-.233-.0413-.545-.1302-.735-.1976z" fill="#17beff"/><path d="m165.603 9.87884c-.386 1.15656-.282 2.15686-.684 3.33336-.192.5469-.533 1.1473-1.021 1.8015-.545.7291-1.062 1.2178-1.552 1.4644-.41.2156-.804.4608-1.179.7338-1.022.7659-1.297 1.3082-1.466 1.6789-.154.2972-.272.6557-.597.8655-.176.1134-.283.3324-.324.6572.092.7338.407 1.4323.738 2.0435.567 1.0401 1.172 1.7111 1.815 2.0113.323.0858.779.1976 1.053 0 .159-.0873.265-.1011.427-.1225-1.183-2.379-.916-4.1284.964-5.4427 2.955-1.8413 5.221-3.724 6.796-5.6496 1.065-1.3005 1.848-2.6899 2.35-4.1651.899-2.67464 1.785-4.09162 5.094-4.48224 2.737-.08272 5.072.36918 7.425-.77513 1.288-.64032 2.615-.92371 3.979-.84712.996.05208 1.86.26655 2.59.64492 1.022.40441 5.185 1.91789 5.624 1.44608.542-.53003 1.095.21293 1.39.67555.135.16544.976.41361 2.525.74602l2.282.45496c.274-.28186.642-.21752.867-.01991.099.08732.185.19148.251.30791.333.03523.551.00765.887-.02451l-.029-.43046c-.263-.5193-.975-.87929-1.458-1.09069-1.191-.57138-2.454-1.05852-3.603-1.45987-.123-.04289-.242-.11182-.361-.2022-.201-.09957-.616-.216-1.245-.34927-.988-.2114-1.971-.44884-2.946-.71385-1.053-.28952-1.768-.5239-2.14-.70466-.786-.36765-1.541-.63572-2.338-.8364-.756-.18688-1.263-.28186-1.517-.28492-.289 0-.888.0965-1.795.28799-.198.04289-.902-.00307-2.112-.14247-1.099-.12254-1.765-.20986-1.995-.26348-1.201-.280328-2.262-.594361-3.468-.799631-1.543-.2650129-3.01-.2956504-4.405-.093444-1.898.350797-3.661 1.104475-5.228 2.008275-2.175 1.26532-3.505 2.5766-3.992 3.93384-.349 1.39246-1.181 2.51072-1.604 3.80515z" fill="#e11d00"/><path d="m197.438 12.218c-.182-.6128-.467-1.3741.203-1.6008-2.496.1225-5.94-2.70069-6.596-2.20283-.087.36305.04.48254 1.015 1.4951.537.67863 1.881.79353 2.294 1.20403-1.822.2283-1.385.0919-2.428 1.1596.212.4443.516.8885.79 1.2133.755.8869 1.704 1.5288 2.85 1.9271 1.706 1.4001 2.288 3.6535 3.428 5.5285.452.7567.911 1.3664 1.349 1.6452.984.3355 2.254-.3462 3.068.2972-.211.7307-2.83.0321-3.358.7506.296.4182.735.7261 1.138.7981 1.29-.0383 2.505-.0153 3.494-.2972.179-.2313.448-.2987.548-.5545.082-.3569-.314-.4672-.314-.4672-.295-.7032-.609-.8947-1.576-.8885-1.543-.1639-1.849-1.0386-2.42-2.304-.559-.4687-1.24-1.4736-2.043-3.0177-.398-.8226-.749-1.4553-1.066-2.284.19-.887-.128-1.7402-.376-2.4051z" fill="#70c62a"/><path d="m176.118 14.044c-.048.7169-.303 1.5625-.851 1.9516-.362.2435-.461 1.0999-.296 2.5674.109.9819.225 2.0251.475 3.0101.264.7353.563.9253 1.438 1.2485.591.3554.697 1.1535.329 1.5089 1.004.0122 1.73-.023 2.745-.1823.567-.4335-.317-1.2148-.583-1.5043l-1.419-.1624-.912-.8318c-.095-.7276-.143-1.5089 0-2.2105.303-.9911.211-2.3652.71-3.3057.37-.5408.422-.9605.519-1.5901-.763-.0613-1.551-.3171-2.152-.4979z" fill="#bf6b03"/><path d="m173.5 13.1969c.541.1823 1.082.36 1.626.5361.813.2466 1.581.5178 2.42.7062 1.204.2221 2.572.1118 3.595 0 .785-.0873 1.37-.1823 2.123-.3171.462-1.7065.571-3.151.324-4.3367-.15-.54535-.479-.625-.794-.75827-.761-.16085-1.32-.04596-1.884.43045-1.006.76902-2.07 2.01132-3.178 2.24262-.647.0919-1.236.1241-1.901.2834-.93.2191-1.706.6235-2.331 1.2133z" fill="#118fbf"/><path d="m195.571 15.415c-1.147-.3968-2.096-1.0401-2.85-1.9271-.346-.4059-.554-.7583-.79-1.2132-.436.4473-.892.8103-1.35 1.132.025.2512.093.4688.207.6526.617.7169 1.379 1.2883 1.937 1.9623.608 1.3894 1.436 2.6073 2.484 3.6505.756.7337 1.549 1.3465 2.285 1.927.558.4872 1.644 1.1643 1.459 1.7847.063.5453.851.9099 1.488 1.083.246-.0077.497-.0184.754-.0291v-.0046c-.623-.2007-1.469-.8563-.587-.9972.896-.1517 1.604-.0567 2.537-.2513.335-.0704.426-.17.271-.3002-.343-.2834-.891-.3937-1.645-.3278-.444.0153-1.053.1807-1.439-.0613-.438-.2788-.882-.7966-1.333-1.5533-.265-.4412-.646-1.1857-1.143-2.235-.596-1.0202-1.111-2.8585-2.285-3.2935z" fill="#549520"/><path d="m198.402 9.47749c-.43-.10876-1.391-.40595-2.885-1.04627-1.185-.56525-2.296-.75367-3.376-1.78921-.73-.83487-1.707-.95895-2.93-.36919-1.408.7062-2.364 1.42158-1.95 3.12808.299 1.08 1.655 1.8045 1.179 2.8799-.658 1.1535-1.471 1.9516-2.294 3.0913-1.148 1.6192-1.663 3.1189-1.545 4.4976.062 1.1152-.408 2.909.109 3.7117.534.5407 1.446.6709 2.088.4948.783-.3187 1.056-.0613 1.357.4136.107.1807.112.3201.012.4182.671-.0536 1.064-.1318 1.184-.2313.142-.3753-.307-1.0003-.564-1.2378-.851-.0092-2.892.2528-2.779-.8364.099-.5162.213-.8333.376-1.3541.033-.5546.112-1.1643.239-1.8291.259-1.3281.631-2.2672 1.114-2.8186.505-.5913.868-1.1045 1.333-1.7402.816-1.0968 1.989-1.5043 2.899-2.4311 1.222-1.3986.833-1.0018 2.458-1.3235-.696-.527-1.748-.5638-2.369-1.19336-.975-1.0141-1.26-1.5288-.851-1.54565 2.45 1.01256 4.42 2.48931 6.797 2.23041.707.1777 1.847.2053 3.421.0812l2.144-.2436c-1.726-.7598-3.638-.60048-5.167-.95741z" fill="#118fbf"/><path d="m172.46 16.8013c-.156.3708-.202 1.1673-.138 2.3897.064 1.2899.063 2.0619-.005 2.3162-.139.7415-.145 1.3511 0 2.0481l1.378.6495c1.204.1257 2.375.1257 3.514.1257.248-.2237.353-.4305.315-.6158-.19-.6067-.488-.9896-1.158-1.1643-.47-.2711-.758-.6158-.864-1.0386-.246-.9696-.424-1.9546-.535-2.9488-.166-1.4691-.066-2.3239.295-2.5674.7-.5132.79-1.2301.851-1.9516-.877-.2712-1.751-.5546-2.622-.8471-.64.6985-1.288 1.4231-1.957 2.0281.26.4826.924 1.005.924 1.5779z" fill="#ff8f04"/><path d="m205.84 7.21339c-.434.03982-.581.05667-.887.02451-.184.14552-.449.13174-.632.08884-.262-.06433-.359-.18688-.487-.37684l-2.282-.45496c-1.547-.33241-2.389-.58211-2.525-.74602-.193-.47335-1.226-1.39859-1.392-.67555-.358.36611-3.89-.84406-5.624-1.44608-2.244-1.16269-4.699-.81496-6.569.2022-2.36 1.11367-5.209.68628-7.425.77513-3.301.00306-4.483 2.03432-5.094 4.48224-.502 1.47674-1.285 2.86464-2.35 4.16664-1.575 1.9256-3.841 3.8083-6.796 5.6496-.478.3048-.95.6908-1.24 1.1274-1.019 1.3435-.918 2.5092.276 4.3153.411.0168.834-.0598.871-.5071l-.467-.7506c.056-.0858.214-.9053.122-1.1765-.147-.3737 1.592-2.0205 2.432-2.7497 1.745-1.5119 3.078-2.4433 4.001-2.7941 1.552-.6985 2.626-1.9378 3.721-3.1725 0 0 1.895-2.5214 4.135-4.27388 2.493-1.95007 4.707-1.26073 8.279-2.83089 1.651-.69087 3.242-1.42617 4.833-1.22703 2.679.57598 2.876 1.88113 6.647 2.57201 2.443.48866 4.921.60815 6.885 2.18597.522.44422 1.077.77662 1.669 1.00182.268.0904.49.1532.734.1992.33-.1731.534-.337.705-.6618.407-.0689.476-.3125.62-.64951-.721-.76594-1.44-1.5334-2.16-2.29934z" fill="#a91600"/><path d="m203.958 7.10768c.105.11336.228.18689.369.21906.177.04289.336.04136.477-.00766l.155-.08119c-.066-.11642-.152-.22059-.251-.30791-.364-.27879-.553-.25582-.866.01992l.117.15778z" fill="#fff"/></svg>