<?xml version="1.0" encoding="UTF-8"?>
<svg width="281px" height="65px" viewBox="0 0 281 65" version="1.1"
  xmlns="http://www.w3.org/2000/svg" xmlns:xlink="http://www.w3.org/1999/xlink">
  <!-- Generator: Sketch 51.1 (57501) - http://www.bohemiancoding.com/sketch -->
  <desc>Created with Sketch.</desc>
  <defs></defs>
  <g id="Page-1" stroke="none" stroke-width="1" fill="none" fill-rule="evenodd">
    <g id="dafabet">
      <path
        d="M99.665,22.4 C97.4756289,21.0502316 94.9509574,20.3430047 92.379,20.359 C84.009,20.359 77.686,26.544 77.686,34.71 C77.686,43.597 84.852,49.541 95.511,49.541 C100.991,49.541 107.133,47.98 108.699,46.118 C109.361,45.337 109.542,44.318 109.542,41.975 L109.542,9.609 C109.542,7.628 109.181,6.967 108.157,6.967 C106.723791,7.1460378 105.323787,7.53030622 104,8.108 C102.641654,8.53401986 101.330223,9.09725863 100.086,9.789 C99.4175981,10.1493977 98.9841175,10.830852 98.941,11.589 C98.9514298,11.9755888 99.0122772,12.3591624 99.122,12.73 C99.303,13.571 99.483,14.111 99.483,14.351 C99.6252431,15.1635824 99.685878,15.9883518 99.664,16.813 L99.664,22.4 L99.665,22.4 Z M99.665,40.053 C98.3603466,40.8506636 96.85812,41.266409 95.329,41.253 C91.415,41.253 88.529,38.611 88.529,35.128 C88.529,31.766 91.179,29.244 94.852,29.244 C96.5337925,29.2846451 98.1830132,29.71638 99.669,30.505 L99.669,40.052 L99.665,40.053 Z M132.065,46.958 L132.126,47.138 C132.190486,47.8308081 132.536036,48.4669339 133.082121,48.8981331 C133.628205,49.3293323 134.327124,49.5179391 135.016,49.42 C137.34329,49.2801442 139.636778,48.7944842 141.821,47.979 C142.37137,47.8741442 142.773096,47.3981633 142.784,46.838 C142.73444,46.2587624 142.592302,45.691222 142.363,45.157 C141.941,43.896 141.881,43.416 141.881,39.757 L141.881,29.364 C141.881,25.281 141.038,23.419 138.509,21.978 C135.56183,20.56309 132.322413,19.8634719 129.054,19.936 C124.860497,19.9465154 120.688262,20.5323107 116.654,21.677 C116.026237,21.8222037 115.45868,22.157848 115.029,22.638 C114.796086,23.1663029 114.693211,23.742743 114.729,24.319 C114.729,26.781 115.874,28.819 117.259,28.819 C117.566493,28.8058204 117.870091,28.7451008 118.159,28.639 C118.4,28.579 118.881,28.399 119.725,28.099 C122.161284,27.1211856 124.748525,26.572746 127.372,26.478 C130.203,26.478 132.009,27.859 132.009,30.078 L132.009,31.999 L131.768,31.879 C129.623541,30.5327091 127.131431,29.8446669 124.6,29.9 C117.254,29.9 112.557,33.743 112.557,39.747 C112.557,45.631 117.133,49.534 123.938,49.534 C126.855718,49.5833544 129.70973,48.6784836 132.066,46.957 L132.065,46.958 Z M132.005,41.674 C130.442324,42.4412774 128.742731,42.8903099 127.005,42.995 C124.656,42.995 122.905,41.495 122.905,39.452 C122.905,37.29 124.531,35.969 127.005,35.969 C128.803243,36.0111957 130.546497,36.5972776 132.005,37.65 L132.005,41.673 L132.005,41.674 Z M146.822,27.924 L146.822,55.964 C146.822,57.885 147.003,58.364 147.906,58.364 C148.506,58.364 149.231,58.124 151.881,57.164 C153.205,56.684 154.289,56.264 155.193,55.843 C155.908809,55.5204834 156.424692,54.8719978 156.578,54.102 C156.643912,53.6048941 156.663997,53.1027823 156.638,52.602 L156.638,27.923 L160.853,27.923 C162.238,27.923 162.961,26.542 162.961,24.08 C162.985094,23.0798169 162.75782,22.0895772 162.3,21.2 C161.917615,20.7898455 161.349463,20.608037 160.8,20.72 L156.645,20.72 L156.645,18.676 C156.645,15.554 158.145,14.233 161.824,14.113 C164.654,14.053 165.256,13.753 165.256,12.492 C165.244541,11.7792605 165.01335,11.0874326 164.594,10.511 L163.45,8.529 C162.727,7.208 162.125,6.908 160.077,6.908 C155.982,6.908 152.369,8.049 150.077,10.03 C147.849,12.012 146.825,14.83 146.825,19.037 L146.825,20.718 L143.513,24.981 C143.082678,25.4151863 142.8259,25.9916913 142.791,26.602 C142.816246,26.9990162 143.006188,27.3674384 143.314952,27.6182853 C143.623716,27.8691321 144.023228,27.9795968 144.417,27.923 L146.825,27.923 L146.822,27.924 Z M183.136,46.958 L183.196,47.138 C183.260486,47.8308081 183.606036,48.4669339 184.152121,48.8981331 C184.698205,49.3293323 185.397124,49.5179391 186.086,49.42 C188.41329,49.2801442 190.706778,48.7944842 192.891,47.979 C193.441561,47.8742093 193.843619,47.3983297 193.855,46.838 C193.804934,46.2587382 193.662465,45.6912251 193.433,45.157 C193.012,43.896 192.951,43.416 192.951,39.757 L192.951,29.364 C192.951,25.281 192.108,23.419 189.579,21.978 C186.632182,20.5631005 183.393091,19.8634788 180.125,19.936 C175.931491,19.9464398 171.759246,20.5322365 167.725,21.677 C167.096974,21.8222584 166.529113,22.1578763 166.099,22.638 C165.866161,23.1663257 165.76329,23.7427475 165.799,24.319 C165.799,26.781 166.943,28.819 168.328,28.819 C168.635503,28.8059006 168.939113,28.7451786 169.228,28.639 C169.469,28.579 169.951,28.399 170.794,28.099 C173.230633,27.1211889 175.818202,26.5727516 178.442,26.478 C181.272,26.478 183.078,27.859 183.078,30.078 L183.078,31.999 L182.838,31.879 C180.693493,30.5328175 178.201416,29.8447844 175.67,29.9 C168.323,29.9 163.626,33.743 163.626,39.747 C163.626,45.631 168.202,49.534 175.007,49.534 C177.925335,49.5833519 180.779981,48.6785028 183.137,46.957 L183.136,46.958 Z M183.075,41.674 C181.512371,42.4414026 179.812752,42.890442 178.075,42.995 C175.727,42.995 173.98,41.495 173.98,39.452 C173.98,37.29 175.606,35.969 178.075,35.969 C179.873243,36.0111957 181.616497,36.5972776 183.075,37.65 L183.075,41.673 L183.075,41.674 Z M207.287,22.219 L207.287,9.609 C207.287,7.628 206.925,6.967 205.902,6.967 C204.469448,7.14610286 203.070114,7.53037247 201.747,8.108 C200.388342,8.53404107 199.076581,9.09727747 197.832,9.789 C197.164121,10.1497988 196.731103,10.8311209 196.688,11.589 C196.697924,11.9756353 196.758782,12.3592747 196.869,12.73 C197.05,13.571 197.23,14.111 197.23,14.351 C197.372243,15.1635824 197.432878,15.9883518 197.411,16.813 L197.411,41.913 C197.411,45.213 197.832,46.113 199.759,47.077 C203.272427,48.7555374 207.126652,49.5981892 211.02,49.539 C221.498,49.539 228.484,43.595 228.484,34.588 C228.477051,30.7732943 227.061898,27.0954624 224.51,24.26 C222.101,21.56 219.151,20.36 214.996,20.36 C212.312601,20.332815 209.664303,20.9711826 207.288,22.218 L207.287,22.219 Z M207.287,39.812 L207.287,30.5 C208.850474,29.6880171 210.58333,29.2560022 212.345,29.239 C213.94205,29.1370922 215.508741,29.7089863 216.664573,30.8157871 C217.820404,31.922588 218.459629,33.4630344 218.427,35.063 C218.427,38.606 215.838,41.008 212.104,41.008 C210.421058,41.043048 208.759023,40.6303001 207.288,39.812 L207.287,39.812 Z M241.434,36.93 L257.814,36.93 C260.584,36.93 261.306,36.39 261.306,34.288 C261.306,26.422 254.923,20.358 246.613,20.358 C238.303,20.358 231.313,27.083 231.313,35.069 C231.313,43.355 238.178,49.54 247.392,49.54 C251.968,49.54 257.328,47.619 258.592,45.577 C259.1452,44.2045107 259.411667,42.7333284 259.375,41.254 C259.375,39.933 258.893,39.154 258.111,39.154 C257.759715,39.1831655 257.414661,39.2640376 257.087,39.394 L254.558,40.594 C252.58398,41.4694086 250.45412,41.9390456 248.295,41.975 C244.687,41.973 241.8,39.872 241.435,36.929 L241.434,36.93 Z M242.034,31.53 C242.641582,29.3344181 244.697482,27.859316 246.972,27.987 C249.17771,27.8287617 251.149402,29.3550244 251.549,31.53 L242.034,31.53 Z M275.334,20.722 L275.334,15.022 C275.334,13.041 274.973,12.322 273.949,12.322 C272.468337,12.5219152 271.014222,12.8844378 269.613,13.403 C268.376931,13.6601542 267.181623,14.0843826 266.06,14.664 C265.603487,15.0946077 265.398996,15.72883 265.518,16.345 L265.518,20.728 L262.266,24.991 C261.823723,25.4232101 261.547003,25.9968212 261.484,26.612 C261.518837,27.0051417 261.711359,27.3674307 262.017689,27.6163002 C262.324019,27.8651697 262.718057,27.9794153 263.11,27.933 L265.518,27.933 L265.518,41.793 C265.518,45.035 265.88,46.476 266.963,47.557 C268.581486,48.946903 270.674925,49.6567801 272.805,49.538 C274.992738,49.5353541 277.166627,49.1908654 279.248,48.517 C280.633,47.977 280.994,47.076 280.994,44.434 C280.994,41.734 280.694,40.651 279.794,40.651 C279.312712,40.7120389 278.855848,40.8982326 278.469,41.191 C278.016768,41.5236606 277.464979,41.6928996 276.904,41.671 C275.82,41.671 275.398,41.191 275.398,39.75 L275.338,38.25 L275.338,27.923 L278.77,27.923 C280.155,27.923 280.938,26.542 280.938,24.08 C280.961608,23.07911 280.734009,22.0882618 280.276,21.198 C279.885224,20.7972438 279.320607,20.617286 278.77,20.718 L275.338,20.718 L275.334,20.722 Z"
        id="dafabet.com" fill="#FFFFFF"></path>
      <path
        d="M66.9,22.365 C66.95,22.2 55.913,-4.618 23.892,2.274 C17.793,3.566 -1.683,12.427 0.12,36.18 C0.509,51.508 19.948,70.844 45.82,63.325 C73.287,53.94 67.591,30.211 67.591,30.211 C67.591,30.211 70.132,49.733 51.373,58.533 C66.344,49.4 68.111,37.365 65.686,26.673 C66.552,35.6 62.705,39.2 62.705,39.2 C62.705,39.2 61.92,50.6 44.5,57.451 C36.878,59.905 27.883,59.1 22.1,56.1 C0.65,45.73 6.981,25.473 6.981,25.473 C6.981,25.473 10.5,8.9 30.511,4.443 C46.858,1.324 61.5,12.653 66.9,22.365 Z M12.491,7.135 C23.7628956,-0.337572219 38.0638745,-1.55673755 50.438,3.9 C52.656,5.272 64.824,10.376 70.8,29.98 C70.887,30.057 68.03,11.632 50.614,3.135 C44.754,0.243 26.474,-3.665 12.491,7.135 Z"
        id="Shape" fill="#F9E530"></path>
      <path
        d="M9.656,34.151 C26.544,10.151 53.178,6.599 59.049,20.782 C65.313,37.082 44.364,55.131 21.277,51.882 C21.083,51.797 14.867,51.494 15.75,47.682 C17.416,32.016 28.389,21.86 28.389,21.86 L37.175,18.869 C37.175,18.869 27.256,28.442 22.937,46.021 C42.401,49.53 57.337,32.321 54.221,23.139 C53.488,19.331 37.633,6.423 9.656,34.151 Z"
        id="Shape" fill="#F9E530"></path>
    </g>
  </g>
</svg>
