<svg xmlns="http://www.w3.org/2000/svg" xmlns:xlink="http://www.w3.org/1999/xlink" viewBox="0 0 882.55 153.13"><defs><style>.cls-1{fill:#ee2428;}.cls-2{fill:url(#linear-gradient);}.cls-3{fill:url(#linear-gradient-2);}.cls-4{fill:#fff;}</style><linearGradient id="linear-gradient" x1="790.93" y1="152.9" x2="819.16" y2="133.02" gradientUnits="userSpaceOnUse"><stop offset="0.03" stop-color="#ee2428"/><stop offset="0.3" stop-color="#eb2327"/><stop offset="0.48" stop-color="#e32125"/><stop offset="0.62" stop-color="#d41d20"/><stop offset="0.75" stop-color="#c0181a"/><stop offset="0.86" stop-color="#a51013"/><stop offset="0.97" stop-color="#850809"/><stop offset="1" stop-color="#7b0506"/></linearGradient><linearGradient id="linear-gradient-2" x1="815.35" y1="153.24" x2="815.66" y2="153.02" xlink:href="#linear-gradient"/></defs><g id="Layer_2" data-name="Layer 2"><g id="logomark"><circle class="cls-1" cx="827.54" cy="47.89" r="19.6"/><path class="cls-1" d="M881.7,38.33A55.11,55.11,0,0,0,856.92,1.42a9.14,9.14,0,1,0-9.77,15.46,36.74,36.74,0,1,1-48.62,8.6A9.15,9.15,0,0,0,784.05,14.3a55.3,55.3,0,0,0-6.73,11.26,55.08,55.08,0,0,0,5.45,54.26h0s36.45,51.12,38.4,53.84c5.29,7.39,10.92,14.41,5.53,18.08-1.63,1.11-3.3,1.13-5.92,1.2-4.41.11-9.31.19-9.31.19h3.79c13.51,0,16.23-.06,21.21-7.87l39-70.3h0A54.64,54.64,0,0,0,881.7,38.33Z"/><path class="cls-2" d="M826.69,151.74c5.39-3.67-.24-10.69-5.53-18.08l-12.38-17.35-20.41,36.82h23.09s4.9-.08,9.31-.19C823.39,152.87,825.06,152.85,826.69,151.74Z"/><path class="cls-3" d="M815.25,153.13h0Z"/></g><g id="logotype"><polygon class="cls-4" points="131.84 55.27 113.08 103.74 94.16 55.27 72.92 55.27 102.12 125.88 123.87 125.88 153.07 55.27 131.84 55.27"/><path class="cls-4" d="M219.36,64.81c-7-9.2-16.73-14.07-27.59-14.07a40.19,40.19,0,0,0-10.35,1.41,38.86,38.86,0,0,0-13.18,6.38C155.6,68,150.75,82.34,155,98c3.73,13.94,12.63,20.6,17.59,23.33a37.77,37.77,0,0,0,28.12,3.18c13-3.49,21.69-10.63,25.84-21.23H207.19a20.21,20.21,0,0,1-10.54,6.25c-8.19,2.19-16.4-1.92-20.92-10.49l-1-1.83,52.64-14.1-1.13-4.23A42.39,42.39,0,0,0,219.36,64.81Zm-47.2,21.62.08-2.23a18.13,18.13,0,0,1,13.27-16.79c7.58-2,14.93,1.08,19.18,8.12l1.14,1.88Z"/><path class="cls-4" d="M65.89,64.81c-7-9.2-16.73-14.07-27.59-14.07A40.19,40.19,0,0,0,28,52.15a38.86,38.86,0,0,0-13.18,6.38C2.13,68-2.72,82.34,1.48,98,5.21,112,14.1,118.61,19.07,121.34a37.77,37.77,0,0,0,28.12,3.18C60.2,121,68.88,113.89,73,103.29H53.72a20.21,20.21,0,0,1-10.55,6.25c-8.18,2.19-16.39-1.92-20.91-10.49l-1-1.83,52.64-14.1-1.13-4.23A42.39,42.39,0,0,0,65.89,64.81ZM18.69,86.43l.08-2.23A18.12,18.12,0,0,1,32,67.41c7.58-2,14.93,1.08,19.18,8.12l1.14,1.88Z"/><path class="cls-4" d="M260.55,68.74l-3.06,5V55.42H237.28v70.46h20.21V104.47c0-19.43,9.11-29.29,27.07-29.29h1.67V54.45c-.55,0-1.1-.06-1.67-.06C274.51,54.39,266.43,59.22,260.55,68.74Z"/><path class="cls-4" d="M487.55,51a38.12,38.12,0,0,0-16.2,3.15c-8.16,3.82-13.23,9.32-15.46,16.76h20.85c2.33-3.16,6.12-4.7,11.54-4.7,7,0,12.09,5,12.09,11.94v3.12H479.91c-18.2,0-29.06,8.28-29.06,22.16,0,13.42,10.38,22.44,25.82,22.44,8.28,0,15.33-2.43,21-7.24l2.73-2.33v7.37H519.7V78.6a29.9,29.9,0,0,0-2.22-11.77C513.06,56.48,502.71,51,487.55,51Zm12.82,45.22a13.39,13.39,0,0,1-2.78,8.52,17.77,17.77,0,0,1-14.3,6.81c-7,0-11.94-3.83-11.94-9.3S476,93,482.55,93h17.82Z"/><path class="cls-4" d="M625.45,53.21c-13,0-20.66,6.45-24.85,11.85l-1.45,1.88-1.26-2c-4.58-7.34-13.07-11.72-22.7-11.72-8.7,0-15.41,2.76-20.52,8.42l-2.88,3.2V55.42H531.58v70.46h20.21V91.39c0-12.73,5.89-20.32,15.76-20.32,8.06,0,14.14,6.58,14.14,15.32v39.49H601.9V91.39c0-12.54,6.15-20.32,16.06-20.32,8,0,14,6.59,14,15.32v39.49H652V81.39a32.07,32.07,0,0,0-2-11.46C646,59.46,636.82,53.21,625.45,53.21Z"/><path class="cls-4" d="M684.75,99.05l-1-1.83,52.64-14.1-1.13-4.23a42.39,42.39,0,0,0-6.92-14.08c-7-9.2-16.73-14.07-27.59-14.07a40.19,40.19,0,0,0-10.35,1.41,38.86,38.86,0,0,0-13.18,6.38C664.62,68,659.77,82.34,664,98c3.73,13.94,12.62,20.6,17.59,23.33a37.76,37.76,0,0,0,28.12,3.18c13-3.49,21.69-10.62,25.83-21.23h-19.3a20.25,20.25,0,0,1-10.55,6.25C697.47,111.74,689.27,107.62,684.75,99.05Zm-3.57-12.62.08-2.23a18.12,18.12,0,0,1,13.27-16.79c7.58-2,14.93,1.08,19.18,8.12l1.14,1.88Z"/><polygon class="cls-4" points="310.06 153.13 331.41 153.13 373.69 55.11 352.42 55.11 332.92 100.09 314.65 55.11 293.41 55.11 322.77 123.72 310.06 153.13"/><path class="cls-4" d="M420.66,54.75v6.79l-2.73-2.34c-5.15-4.42-12.26-6.66-21.11-6.66a34.07,34.07,0,0,0-12.53,2.38L365.24,99.14A33.9,33.9,0,0,0,396.82,121c8.85,0,16-2.24,21.11-6.66l2.73-2.33v5.65c0,11.71-8.05,19.58-20,19.58a20.9,20.9,0,0,1-10.13-2.26,26.05,26.05,0,0,1-5.51-4.25l-14.44,12.1c7.21,6.78,17.62,10.35,30.22,10.35a54.38,54.38,0,0,0,16-2.27c10.79-3.33,23.67-11.46,23.67-31.34V54.75ZM401.81,105c-11.17,0-19.29-7.81-19.29-18.56s8.12-18.4,19.29-18.4c10.57,0,18.85,8.08,18.85,18.4A18.51,18.51,0,0,1,401.81,105Z"/></g></g></svg>