<svg xmlns="http://www.w3.org/2000/svg" width="116" height="36" fill="none"><path fill="#fff" fill-rule="evenodd" d="M53.3 10.376c.751 0 .876.244.751.916-.063.244-.125.488-.187.793.312-.06.625-.06.875-.122 2.062-.305 4.125-.183 6 .977 2 1.282 3.064 3.174 3.377 5.433.437 2.808 0 5.494-1.626 7.874-1.813 2.747-4.501 4.09-7.751 4.09-1 0-2.064-.244-3.063-.427-.125 0-.25-.061-.438-.122-.125 1.099-.313 2.136-.438 3.174-.124.794-.374 1.038-1.124 1.038h-3.877c-.75 0-.938-.244-.812-.916 1-6.898 1.938-13.857 3.25-20.755.063-.427.125-.793.25-1.22.188-.489.438-.733 1-.733H53.3Zm14.128 4.883c3.251-3.967 8.814-4.334 11.94-2.014 1.688 1.22 2.563 2.93 2.876 5.006.187 1.404.125 2.747-.126 4.212-.125.61-.312.793-.937.793H70.866a2.942 2.942 0 0 0 2.314 3.113c1.624.367 3.187.123 4.75-.366.813-.244 1.688-.61 2.5-.915.125-.062.313-.123.5-.184v.428c-.249 1.098-.436 2.258-.687 3.357 0 .244-.25.488-.438.61-3.062 1.344-6.25 1.588-9.438.611-2.939-.977-4.689-3.052-5.189-6.165-.437-3.175.25-5.983 2.25-8.486Zm-54.26-1.16c2.751-2.502 7.252-3.052 10.315-1.22 2.25 1.343 3.25 3.48 3.438 6.043.063 1.099-.063 2.198-.125 3.296-.063.733-.313.916-1.062.916H15.606c-.187.977.563 2.564 1.876 2.991 1.063.367 2.187.305 3.313.183 1.438-.122 2.813-.732 4.188-1.22.187-.062.375-.123.688-.245-.125.489-.188.855-.188 1.16l-.563 2.564c-.062.244-.25.55-.5.672-3.313 1.465-6.751 1.709-10.127.366-2.624-1.038-4.063-3.113-4.5-5.86-.062-.489-.188-.61-.687-.61H5.417c-.25 0-.438 0-.75-.062.187-.244.312-.488.438-.671.625-.855 1.188-1.649 1.875-2.442.187-.183.563-.366.875-.428.5-.06 1-.06 1.5 0 .438.062.563-.122.688-.488.563-1.953 1.626-3.601 3.126-4.944Zm99.456-5.371c.375 0 .5.183.437.61-.187.916-.374 1.832-.562 2.808h2.876c.437 0 .625.244.625.61a54.134 54.134 0 0 1-.625 3.053c-.126.427-.438.61-.876.61h-2.75l-1.126 5.494a9.179 9.179 0 0 0-.187 1.832c0 .915.563 1.343 1.501 1.281.937-.06 1.749-.488 2.562-.976.188-.122.376-.244.688-.428 0 .55-.063.977-.063 1.404l-.187 3.114c0 .55-.25.915-.75 1.16-2.001.976-4.064 1.465-6.252.732-2-.671-3.187-2.075-3.375-4.212-.063-1.038.062-2.137.25-3.174.251-1.893.625-3.724 1.001-5.616 0-.183 0-.306.062-.55h-5.251c.125-.244.188-.427.312-.55.875-1.159 1.688-2.319 2.626-3.418.125-.183.5-.366.812-.366.563-.06 1.188 0 1.813 0 .313 0 .438-.122.5-.427a33.04 33.04 0 0 0 .5-2.442c.125-.366.25-.55.689-.55h4.75ZM90.37 8.667c.687 0 .812.122.687.793-.437 3.113-.874 6.288-1.312 9.401-.063.183-.063.366-.063.55.063 0 .063.06.125.06l.938-1.098c1.438-1.77 2.938-3.602 4.439-5.433.437-.55.937-.794 1.687-.794h4.938c.126 0 .313.061.439.122-.064.122-.064.305-.188.428-2.188 2.624-4.314 5.25-6.502 7.874-.312.428-.374.672-.062 1.1 1.876 2.685 3.751 5.31 5.688 7.996.126.122.126.244.251.427-.251 0-.438.061-.625.061h-4.689c-.625 0-1-.244-1.375-.732-1.626-2.442-3.313-4.823-5-7.265-.126-.183-.251-.305-.439-.549l-.625 4.029c-.187 1.22-.374 2.503-.563 3.724-.062.488-.312.732-.812.732H82.84c-.608-.007-.717-.091-.597-.732a2187.287 2187.287 0 0 0 3.062-19.9c.125-.672.313-.794.938-.794h4.126Zm-56.698 3.418c.438 0 .688.183.875.55.625 1.22 1.25 2.502 1.875 3.723.063.183.189.366.313.61.876-1.098 1.688-2.075 2.5-3.113.313-.366.564-.793.938-1.16.188-.244.563-.488.876-.488h5.626c.124 0 .25 0 .437.061-.313.428-.562.794-.875 1.1-.547.64-1.098 1.277-1.65 1.912l-3.326 3.804-1.65 1.914c-.187.244-.125.427 0 .671l.586.964 1.172 1.933a235.02 235.02 0 0 0 2.93 4.734c.126.122.188.366.312.61-.25.061-.436.122-.625.122h-4.438c-.563 0-.938-.244-1.188-.732-.75-1.343-1.437-2.686-2.188-4.03-.062-.121-.124-.183-.25-.366-.437.55-.874.977-1.25 1.465-.874 1.1-1.688 2.137-2.625 3.175-.25.305-.625.488-1 .488h-5.626c-.126 0-.188 0-.375-.06.437-.55.812-.978 1.187-1.405 2.314-2.564 4.563-5.128 6.876-7.692.25-.244.126-.427 0-.671l-4.312-7.142c-.126-.244-.25-.55-.376-.855.313-.06.625-.122.938-.122h4.313Zm21.004 3.968c-1.063.061-1.376 0-1.562 1.343-.188 1.648-.5 3.235-.751 4.883-.125.855-.25 1.77-.375 2.625-.062.367 0 .733.437.794 2.25.366 4.44-.55 5.314-2.991.438-1.099.562-2.32.438-3.54-.25-2.015-1.438-3.114-3.501-3.114Zm20.692-.061c-.876-.244-1.689-.122-2.376.61-.75.794-1.188 1.832-1.626 2.93h5.126c.063 0 .25-.244.25-.366 0-.427 0-.915-.062-1.282-.125-.854-.438-1.648-1.312-1.892ZM21.17 17.396c-.375-1.587-2.25-2.076-3.439-.977-.937.855-1.312 1.954-1.812 3.052h5.5c-.124-.732-.061-1.404-.25-2.075ZM13.9 2c.057.183.1.459.1.773 0 .367-.058.787-.23 1.154L11.51 8.502c-.806 1.468-1.512 2.202-3.657 2.831l-.519-1.455c.965-.328 1.599-.734 2.074-1.376h-.648l-.965-6.187 2.03-.262.533 4.758 1.469-3.185c.13-.315.172-.577.172-.813 0-.197-.028-.38-.071-.55L13.899 2ZM5.448 2c.89 0 1.218.496 1.218 1.328 0 .228-.014.416-.069.751l-.82 4.588H3.846l.794-4.44c.014-.08.028-.148.028-.202 0-.134-.069-.187-.26-.187-.357 0-1.205.348-1.726.617L1.93 8.667H0l1.136-6.372 1.698-.282-.013.725C3.86 2.255 4.682 2 5.449 2ZM17.38 2c.718 0 1.662.119 2.62.396l-1.14 6.14h-1.677l-.057-.555a3.68 3.68 0 0 1-2.183.686c-1.493 0-1.789-.843-1.521-2.28l.323-1.725C14.027 3.133 14.675 2 17.38 2Zm-.366 1.581c-1.028 0-1.155.475-1.283 1.094l-.351 1.91c-.057.342.028.474.38.474.507 0 1.056-.277 1.507-.632l.522-2.78a4.204 4.204 0 0 0-.775-.066Z" clip-rule="evenodd"/></svg>