<svg width="99" height="26" viewBox="0 0 99 26" fill="none" xmlns="http://www.w3.org/2000/svg">
<path fill-rule="evenodd" clip-rule="evenodd" d="M50.9021 5.74606C51.0691 5.74606 51.1891 5.91306 51.1321 6.06606C49.2511 11.0561 46.5471 18.2241 45.0671 22.1461C44.4151 23.8761 42.7991 25.0331 40.9171 25.1191L31.4951 25.5431C30.7684 25.5862 30.0417 25.6305 29.3151 25.6761C29.2762 25.6789 29.2372 25.6719 29.2017 25.6559C29.1661 25.6398 29.1352 25.615 29.1116 25.5839C29.088 25.5528 29.0726 25.5163 29.0668 25.4778C29.0609 25.4392 29.0648 25.3998 29.0781 25.3631L29.8501 23.2061C29.8807 23.1194 29.9363 23.0438 30.0097 22.9886C30.0832 22.9335 30.1714 22.9013 30.2631 22.8961C32.0241 22.7941 35.1081 22.6361 37.5311 22.5121C37.8038 22.4983 38.0666 22.4053 38.2873 22.2443C38.5079 22.0834 38.6767 21.8616 38.7731 21.6061L44.6551 6.03406C44.6873 5.94896 44.7448 5.87578 44.8199 5.82445C44.8951 5.77312 44.9841 5.74611 45.0751 5.74706L48.1361 5.74606H50.9021ZM13.9201 5.74606C14.0841 5.74606 14.1971 5.90906 14.1401 6.06206L11.5701 12.7601L15.1661 12.6421L17.6261 6.05206C17.6591 5.96195 17.719 5.88417 17.7978 5.82925C17.8765 5.77434 17.9701 5.74495 18.0661 5.74506H23.4481C23.6101 5.74506 23.7231 5.90606 23.6681 6.05806L18.1881 20.6401C18.1561 20.7253 18.1 20.7994 18.0267 20.8534C17.9534 20.9073 17.866 20.9388 17.7751 20.9441C15.8731 21.0551 14.0441 21.1681 12.2901 21.2821C12.2512 21.2845 12.2122 21.2771 12.1769 21.2605C12.1416 21.244 12.1109 21.2189 12.0878 21.1874C12.0647 21.1559 12.0499 21.1192 12.0447 21.0805C12.0395 21.0419 12.0441 21.0025 12.0581 20.9661L14.1561 15.3461L10.5191 15.4961L8.30011 21.2781C8.26791 21.3617 8.2125 21.4343 8.14039 21.4875C8.06828 21.5406 7.98249 21.572 7.89311 21.5781C5.80811 21.7241 3.85511 21.8681 2.04311 22.0081C2.00364 22.0111 1.96404 22.004 1.92807 21.9874C1.8921 21.9709 1.86094 21.9455 1.83752 21.9136C1.8141 21.8816 1.7992 21.8443 1.79423 21.805C1.78926 21.7657 1.79439 21.7258 1.80911 21.6891L4.08811 15.7581C2.53711 15.8191 1.23311 15.8681 0.241113 15.9001C0.2025 15.9014 0.164158 15.8931 0.12954 15.876C0.094921 15.8588 0.0651119 15.8333 0.0427959 15.8018C0.0204798 15.7702 0.00635719 15.7336 0.00169939 15.6953C-0.00295841 15.6569 0.00199478 15.618 0.0161131 15.5821L0.863113 13.3711C0.89639 13.2845 0.954654 13.2097 1.0305 13.1563C1.10635 13.1029 1.19637 13.0732 1.28911 13.0711C2.32911 13.0451 3.63911 13.0091 5.16211 12.9631L7.82011 6.04506C7.89011 5.86506 8.06311 5.74506 8.25711 5.74506L13.9201 5.74606ZM85.5221 5.74606C87.8321 5.75406 92.8521 5.76006 96.9441 5.76506C97.2468 5.76536 97.5449 5.83902 97.8129 5.97973C98.0809 6.12045 98.3108 6.32401 98.483 6.57301C98.6551 6.822 98.7643 7.10901 98.8012 7.40944C98.8382 7.70987 98.8018 8.01478 98.6951 8.29806L95.7671 16.0601C95.5843 16.5449 95.2891 16.9795 94.9058 17.3282C94.5225 17.6769 94.062 17.9298 93.5621 18.0661L96.0371 21.3521C96.064 21.3878 96.08 21.4306 96.0833 21.4752C96.0866 21.5198 96.0771 21.5644 96.0559 21.6037C96.0346 21.6431 96.0025 21.6755 95.9634 21.6972C95.9243 21.7189 95.8798 21.7289 95.8351 21.7261L90.3711 21.3761C90.2984 21.3717 90.2278 21.3505 90.1648 21.314C90.1018 21.2775 90.0481 21.2269 90.0081 21.1661L88.1421 18.3141C88.0611 18.1912 87.9524 18.089 87.8248 18.0157C87.6971 17.9425 87.5541 17.9001 87.4071 17.8921L86.5791 17.8461L85.4771 20.9061C85.4601 20.9539 85.4279 20.9949 85.3855 21.0229C85.3431 21.0508 85.2928 21.0642 85.2421 21.0611L79.9401 20.7171C79.9037 20.7148 79.8682 20.7041 79.8367 20.6857C79.8051 20.6673 79.7783 20.6418 79.7584 20.6111C79.7384 20.5805 79.726 20.5457 79.7219 20.5094C79.7179 20.4731 79.7224 20.4363 79.7351 20.4021L85.0841 6.05006C85.1171 5.96033 85.177 5.88292 85.2555 5.82836C85.3341 5.7738 85.4275 5.74472 85.5231 5.74506L85.5221 5.74606ZM41.7881 5.74606C41.9521 5.74606 42.0651 5.90906 42.0081 6.06206L36.8861 19.6201C36.8541 19.7049 36.7981 19.7786 36.725 19.8322C36.6518 19.8858 36.5647 19.9171 36.4741 19.9221C34.7841 20.0151 32.6131 20.1551 31.2601 20.2221C31.2218 20.2239 31.1837 20.2162 31.1491 20.1997C31.1144 20.1832 31.0844 20.1584 31.0617 20.1276C31.0389 20.0967 31.0241 20.0607 31.0186 20.0228C31.0131 19.9848 31.0171 19.9461 31.0301 19.9101L32.9261 14.6071L29.2471 14.7431L27.2721 20.1231C27.2403 20.2093 27.1838 20.2842 27.1096 20.3385C27.0355 20.3927 26.9469 20.4239 26.8551 20.4281C25.8801 20.4731 22.8471 20.6121 21.3261 20.6911C21.2873 20.6929 21.2486 20.6851 21.2136 20.6683C21.1785 20.6515 21.1482 20.6262 21.1254 20.5948C21.1026 20.5633 21.0879 20.5266 21.0828 20.4881C21.0777 20.4496 21.0823 20.4104 21.0961 20.3741L26.5071 6.04806C26.5408 5.95894 26.6009 5.88221 26.6793 5.82808C26.7578 5.77395 26.8508 5.74499 26.9461 5.74506L41.7881 5.74606ZM70.4911 5.74606C71.5841 5.74606 73.6771 5.74906 75.8841 5.75106H76.2681L82.8361 5.75606C82.9991 5.75606 83.1101 5.91906 83.0531 6.07106L82.2801 8.13606C82.2462 8.22634 82.1853 8.30396 82.1056 8.35836C82.026 8.41276 81.9315 8.44129 81.8351 8.44006L75.1631 8.35306L73.8141 11.9281L78.0361 12.0111C78.0736 12.0117 78.1103 12.0214 78.1432 12.0392C78.1762 12.057 78.2044 12.0824 78.2254 12.1134C78.2465 12.1444 78.2598 12.1799 78.2643 12.2171C78.2688 12.2543 78.2642 12.292 78.2511 12.3271L77.5191 14.2811C77.4847 14.3728 77.4224 14.4515 77.341 14.506C77.2595 14.5605 77.1631 14.5882 77.0651 14.5851L72.8651 14.4471L71.6251 17.7341L78.2361 18.0691C78.273 18.0708 78.3089 18.0812 78.3409 18.0995C78.373 18.1178 78.4002 18.1433 78.4205 18.1741C78.4408 18.205 78.4535 18.2401 78.4576 18.2768C78.4617 18.3134 78.4571 18.3505 78.4441 18.3851L77.7481 20.2451C77.7132 20.3385 77.6493 20.4183 77.5659 20.473C77.4824 20.5277 77.3837 20.5543 77.2841 20.5491L65.1991 19.9091C65.1622 19.9072 65.1263 19.8967 65.0943 19.8783C65.0623 19.8599 65.035 19.8342 65.0149 19.8033C64.9947 19.7724 64.9821 19.7371 64.9781 19.7004C64.9742 19.6637 64.979 19.6266 64.9921 19.5921L70.0631 6.04106C70.0958 5.95396 70.1543 5.87892 70.2308 5.82602C70.3073 5.77311 70.3981 5.74486 70.4911 5.74506V5.74606ZM54.0691 5.74606C54.9401 5.75206 61.2591 5.76306 65.4861 5.77006C65.7889 5.77064 66.087 5.84457 66.355 5.98552C66.6229 6.12647 66.8528 6.33025 67.0248 6.57942C67.1968 6.82859 67.3059 7.11572 67.3427 7.41625C67.3795 7.71678 67.3429 8.02175 67.2361 8.30506L64.8741 14.5701C64.6329 15.2088 64.1984 15.7564 63.6313 16.1365C63.0642 16.5167 62.3926 16.7106 61.7101 16.6911L55.6041 16.5191L54.6421 19.1931C54.6094 19.2838 54.5495 19.3623 54.4706 19.4178C54.3917 19.4732 54.2976 19.503 54.2011 19.5031H48.9591C48.9212 19.5032 48.8839 19.4941 48.8503 19.4767C48.8167 19.4592 48.7879 19.4338 48.7662 19.4028C48.7446 19.3717 48.7308 19.3358 48.7261 19.2983C48.7214 19.2607 48.7258 19.2225 48.7391 19.1871L53.6411 6.03506C53.674 5.94859 53.7327 5.87436 53.8093 5.82247C53.8859 5.77057 53.9766 5.74355 54.0691 5.74506V5.74606ZM92.1501 8.55106H89.9241L87.5091 15.2601L89.6701 15.3551C89.8701 15.3639 90.0677 15.3084 90.234 15.1969C90.4002 15.0853 90.5264 14.9235 90.5941 14.7351L92.5911 9.17806C92.6164 9.10733 92.6244 9.03154 92.6143 8.95709C92.6042 8.88264 92.5764 8.8117 92.5331 8.75025C92.4899 8.6888 92.4326 8.63863 92.3659 8.60396C92.2993 8.5693 92.2253 8.55116 92.1501 8.55106ZM60.8411 8.14606H58.6181L56.4711 14.1111C57.1511 14.1211 57.8861 14.1331 58.6681 14.1511C58.8647 14.1553 59.0577 14.0977 59.2198 13.9865C59.382 13.8753 59.5052 13.716 59.5721 13.5311L61.2821 8.77206C61.3072 8.70138 61.315 8.62571 61.3048 8.55139C61.2946 8.47707 61.2668 8.40628 61.2236 8.34496C61.1804 8.28364 61.1231 8.23357 61.0566 8.19896C60.99 8.16436 60.9161 8.14622 60.8411 8.14606ZM35.1931 8.27206H31.6231L30.1991 12.1521C31.4321 12.1121 32.6521 12.0751 33.8451 12.0391L35.1931 8.27206ZM47.3161 6.45032e-05L53.1161 0.0350644C53.2841 0.0350644 53.4041 0.204064 53.3461 0.357064C53.1691 0.830064 52.5381 2.38806 52.1321 3.46806C52.0997 3.55352 52.0419 3.62697 51.9664 3.67848C51.891 3.72999 51.8015 3.75707 51.7101 3.75606L45.8901 3.75806C45.7221 3.75806 45.6011 3.58806 45.6601 3.43406L46.8911 0.287064C46.9239 0.201394 46.9823 0.127899 47.0584 0.0765549C47.1344 0.0252113 47.2244 -0.00149366 47.3161 6.45032e-05Z" fill="#39F589"/>
</svg>
