<svg width="102" height="24" viewBox="0 0 102 24" fill="none" xmlns="http://www.w3.org/2000/svg">
<path d="M62.6973 0.00292969C66.7718 0.00292969 68.624 2.153 68.624 5.09473C68.624 7.88501 65.9266 10.5672 63.333 11.1279L63.3281 11.1914C64.2371 11.7567 65.4403 13.4859 65.4404 15.7695C65.4404 17.0516 65.3027 18.2527 65.3027 19.3154C65.3028 20.1656 65.8659 20.7402 66.6143 20.7402V20.7471C67.1681 20.747 67.5595 20.631 67.8398 20.4434L68.418 22.9531C67.7442 23.5207 66.8062 24 65.4473 24C63.0348 24 61.3303 22.6417 61.3301 20.4102C61.3301 18.3751 61.8135 17.4245 61.8135 15.5342C61.8133 13.7322 60.6441 12.1634 59.3779 11.8242L57.4561 19.1611H53.4766L57.4111 4.11816C56.7192 4.45056 55.9162 4.63091 55.1836 4.6377C54.9643 4.63995 54.7428 4.62905 54.5303 4.60645L55.2061 2.0332C57.0736 2.0332 58.0822 1.25312 58.9346 0.00292969H62.6973ZM94.7969 7.79004H94.8223C95.6001 6.92413 96.7602 6.35156 98.0264 6.35156C100.152 6.35171 101.366 7.72902 101.366 9.36816C101.366 12.2037 98.5661 14.0105 96.332 14.4424V14.4697C97.241 15.1142 97.918 16.5864 97.918 18.0312C97.918 18.524 97.8945 18.8634 97.8945 19.2861C97.8946 20.0502 98.1911 20.4589 98.9688 20.459V20.4619C99.3349 20.4619 99.776 20.324 99.9863 20.1748L100.529 22.6641C99.9663 23.1593 98.9169 23.4941 97.9355 23.4941C95.8666 23.4941 94.5059 22.2816 94.5059 20.3936C94.5059 19.4033 94.6572 18.7428 94.6572 17.6621C94.6571 16.3191 93.7701 15.3919 92.8408 15.2607L91.8213 19.1592H87.9209L92.9248 0H96.8164L94.7969 7.79004ZM21.0469 6.32715C22.3106 6.32715 23.2375 7.11376 23.5859 7.87109H23.6133L23.9463 6.56055H27.7627L25.4902 15.2568C25.4541 15.415 25.4336 15.5528 25.4336 15.6748L25.4355 15.6729C25.4356 16.0254 25.6395 16.2265 26.0645 16.2266C26.3788 16.2266 26.6073 16.1814 26.8086 16.1045L26.1055 18.7998C25.7121 19.1163 25.1692 19.3652 24.1045 19.3652C23.1051 19.3652 22.0126 18.7656 21.7119 17.4541H21.6865C21.0896 18.3857 20.0859 19.3242 18.4014 19.3242C16.493 19.3242 14.7003 17.4635 14.7002 14.9131C14.7002 10.3365 17.6235 6.32724 21.0469 6.32715ZM46.6973 19.1611H43.4189L43.8193 17.5947H43.7939C43.1993 18.4493 42.1617 19.3261 40.6289 19.3262C38.7205 19.3262 36.9268 17.4656 36.9268 14.915C36.9268 10.3384 39.8488 6.3291 43.2744 6.3291C44.4547 6.32917 45.3865 6.91729 45.7822 7.625H45.8047L47.8008 0.00292969H51.7012L46.6973 19.1611ZM73.9092 6.32715C76.6313 6.32745 78.5664 8.3195 78.5664 11.5889C78.5664 15.6499 75.593 19.3262 71.584 19.3262C69.1103 19.3261 67.0957 17.2595 67.0957 14.3291C67.0959 10.0382 70.0028 6.32819 73.9092 6.32715ZM86.2725 6.3291C87.5227 6.3291 88.7685 6.83112 89.3633 7.25391L88.6377 10.0605C88.1923 9.61513 87.4507 9.09969 86.5576 9.09961C84.8097 9.09961 83.1797 11.0941 83.1797 14.0088C83.1798 15.6478 83.9733 16.4395 85.1807 16.4395C86.0759 16.4394 86.6075 16.3076 87.1094 15.9775L86.3447 18.9404C85.9151 19.1235 85.1893 19.3261 84.1562 19.3262C81.5243 19.3262 79.4688 17.2121 79.4688 14.1641C79.4689 10.2818 82.5236 6.32913 86.2725 6.3291ZM37.0293 6.35645C37.3682 6.35651 37.6617 6.42924 37.8877 6.52637L36.9268 10.1982C36.6419 10.0288 36.233 9.89265 35.7969 9.89258C34.2797 9.89258 33.2956 11.6182 32.8818 13.2236L31.3242 19.1611H27.4189L30.7041 6.56445H34.5117L34.0693 8.33105H34.1025C34.6655 7.42212 35.8303 6.35463 37.0264 6.35449L37.0293 6.35645ZM7.01172 7.53223H10.6338L12.5811 0H16.5605L11.5566 19.1592H7.57715L9.80859 10.6934H6.18652L3.97949 19.1592H0L3.93457 4.11621C3.24041 4.44858 2.43737 4.62896 1.70703 4.63574C1.48776 4.638 1.2662 4.6271 1.05371 4.60449L1.72949 2.03125C3.59495 2.03125 4.6036 1.25042 5.45605 0H8.9834L7.01172 7.53223ZM73.6104 9.12402C72.0118 9.12402 70.8087 11.6407 70.8086 14.1641C70.8086 15.5796 71.3514 16.3848 72.041 16.3848L72.043 16.3828C73.5466 16.3828 74.8691 13.6036 74.8691 11.3809C74.8691 10.1148 74.4287 9.12423 73.6104 9.12402ZM43.6611 9.37109C42.0647 9.37109 40.8096 11.8808 40.8096 14.2324C40.8096 15.5436 41.2278 16.285 41.9873 16.2852C43.5768 16.2852 44.8641 13.5384 44.8643 11.3926C44.8643 10.1423 44.3665 9.37128 43.6611 9.37109ZM21.4316 9.36816C19.8354 9.36816 18.5802 11.878 18.5801 14.2295C18.5801 15.541 19.001 16.2832 19.7607 16.2832C21.3479 16.2828 22.6348 13.5353 22.6348 11.3896C22.6347 10.1395 22.1369 9.36834 21.4316 9.36816ZM96.8867 9.06055C95.5006 9.06055 93.8384 10.9875 93.4473 12.9434C95.8757 12.9433 97.8115 11.3941 97.8115 9.95605C97.8114 9.39104 97.4743 9.06066 96.8867 9.06055ZM61.7363 2.80176L60.1309 8.96387H60.9297C63.3693 8.96372 64.5762 7.1678 64.5762 5.21875C64.576 3.88712 63.95 2.80176 62.2656 2.80176H61.7363Z" fill="#EDEDF2"/>
</svg>
