<?xml version="1.0" encoding="UTF-8"?><svg xmlns="http://www.w3.org/2000/svg" viewBox="0 0 1697.88 1000"><defs><style>.d,.e{fill:#fff;}.f{fill:#be181b;}.g{fill:#d3b271;}.e{fill-rule:evenodd;}</style></defs><g id="a"/><g id="b"><g id="c"><g><path class="d" d="M1140.96,332.62c83.77-12.49,102.11-55.94,102.11-130.35V123.86c0-82.41-65.93-123.86-198.27-123.86s-198.27,41.45-198.27,123.86v92.4c0,64.93,14.37,98.89,90.71,111.87-76.33,16.98-90.71,64.43-90.71,133.85v101.39c0,83.41,65.93,124.86,198.27,124.86s198.27-41.45,198.27-124.86v-100.39c0-76.41-18.34-119.86-102.11-130.35Zm-97.15-43.45c-29.24,0-43.62-13.98-43.62-41.45V115.87c0-26.97,14.38-39.96,43.62-39.96s44.61,13.48,44.61,39.96V247.72c0,27.47-14.87,41.45-44.61,41.45Zm0,319.14c-29.24,0-43.62-13.98-43.62-41.45v-149.33c0-28.47,14.38-42.45,43.62-42.45s44.61,13.98,44.61,42.45v149.33c0,27.47-14.87,41.45-44.61,41.45Z"/><path class="d" d="M1595.66,332.62c83.83-12.49,102.19-55.94,102.19-130.35V123.86c0-82.41-65.98-123.86-198.44-123.86s-198.43,41.45-198.43,123.86v92.4c0,64.93,14.38,98.89,90.78,111.87-76.4,16.98-90.78,64.43-90.78,133.85v101.39c0,83.41,65.97,124.86,198.43,124.86s198.44-41.45,198.44-124.86v-100.39c0-76.41-18.36-119.86-102.19-130.35Zm-97.23-43.45c-29.28,0-43.66-13.98-43.66-41.45V115.87c0-26.97,14.38-39.96,43.66-39.96s44.64,13.48,44.64,39.96V247.72c.49,27.47-14.38,41.45-44.64,41.45Zm0,319.14c-29.28,0-43.66-13.98-43.66-41.45v-149.33c0-28.47,14.38-42.45,43.66-42.45s44.64,13.98,44.64,42.45v149.33c.49,27.47-14.38,41.45-44.64,41.45Z"/><path class="d" d="M307.23,994.51v-12.82c-28.46-2.93-30.28-5.49-31.01-39.19l-3.28-136.97c-.73-30.4,.73-33.33,29.92-36.26v-12.82h-73.34l-71.52,160.41-70.42-160.41H12.04v12.82c31.38,2.93,33.93,8.06,31.01,49.81l-5.84,72.15c-2.55,38.45-5.47,57.5-7.66,69.22-2.19,12.81-9.12,19.41-29.56,21.24v12.82H87.57v-12.82c-24.08-2.2-31.38-5.49-32.84-21.97-1.46-11.35-1.46-28.57,0-58.96l4.38-95.58h1.46l74.44,186.77h10.22l80.64-190.44h1.82l.73,141c.36,33.7-1.82,36.25-29.19,39.19v12.82h108Z"/><path class="d" d="M568,994.51v-12.82c-22.99-2.93-27.73-7.69-40.14-39.92-23.72-62.99-46.34-126.72-69.69-190.81l-18.61,4.76-74.8,188.24c-12.04,30.76-16.42,34.79-40.5,37.72l-.36,12.82h81.73v-12.82c-26.64-3.3-27.37-8.43-22.26-26,4.38-14.65,9.12-27.83,13.14-39.19h70.06c5.47,15.02,10.95,30.4,14.59,41.38,5.84,16.11,4.01,20.5-17.51,23.81v12.82h104.36Zm-108.37-97.42h-56.92c9.49-26,18.61-52.37,28.83-79.11h1.09l27,79.11Z"/><path class="d" d="M839.13,756.46h-89.03v12.82c26.64,1.46,34.3,7.69,36.12,23.44,.73,10.62,2.92,27.83,2.92,60.06v64.46h-1.46l-139.38-160.77h-67.5v12.82c15.33,1.46,23.72,4.39,30.28,13.18,6.93,8.42,7.66,15.38,7.66,39.19v76.54c0,32.23-2.19,48.34-3.65,60.43-1.46,15.75-9.85,21.61-30.28,23.07v12.82h89.4v-12.82c-27-1.1-33.2-8.06-35.03-24.17-1.09-10.99-2.92-27.1-2.92-59.33v-82.4h1.09l151.79,182.38h17.51v-145.39c0-32.23,2.19-49.44,3.28-60.79,1.82-16.85,9.49-21.61,29.19-22.71v-12.82Z"/><path class="d" d="M1006.33,813.22c-2.92-22.71-5.47-38.82-6.94-52.37-6.56-2.56-27.36-9.89-50.71-9.89-51.81,0-83.56,31.5-83.56,71.78,0,35.16,25.91,54.93,63.49,73.98,27.37,14.65,43.42,28.2,43.42,49.81,0,23.07-14.23,38.45-36.48,38.45-35.03,0-56.56-41.01-63.85-64.45l-12.77,4.03c2.55,22.34,7.3,53.11,10.58,62.26,5.11,2.2,12.04,5.13,22.26,8.06,10.95,3.29,23.72,5.13,36.85,5.13,53.27,0,88.67-32.6,88.67-74.34,0-36.26-26.27-56.76-64.59-75.44-32.11-16.11-45.25-27.83-45.25-47.98s14.96-36.26,35.39-36.26c29.92,0,43.42,27.1,51.08,50.17l12.41-2.93Z"/><path class="d" d="M1147.97,994.51v-12.82c-27.01-2.57-30.29-5.13-30.29-35.89v-140.27c0-31.13,3.28-33.69,30.29-36.26v-12.82h-109.47v12.82c27.01,2.56,30.29,5.13,30.29,36.26v140.27c0,30.77-3.28,33.32-30.29,35.89v12.82h109.47Z"/><path class="d" d="M1302.37,750.97c-83.56,0-128.07,61.89-128.07,124.88,0,70.32,50.71,124.15,123.69,124.15,68.6,0,125.15-47.98,125.15-127.08,0-72.51-54.36-121.95-120.77-121.95Zm-6.57,15.38c41.97,0,71.53,43.95,71.53,116.83,0,67.39-28.1,101.44-62.76,101.44-46.71,0-74.44-53.1-74.44-115.72s28.83-102.54,65.68-102.54Z"/><path class="d" d="M1697.88,756.46h-89.03v12.82c26.64,1.46,34.31,7.69,36.13,23.44,.72,10.62,2.92,27.83,2.92,60.06v64.46h-1.46l-139.38-160.77h-67.5v12.82c15.32,1.46,23.72,4.39,30.28,13.18,6.93,8.42,7.66,15.38,7.66,39.19v76.54c0,32.23-2.19,48.34-3.65,60.43-1.46,15.75-9.86,21.61-30.29,23.07v12.82h89.4v-12.82c-27.01-1.1-33.2-8.06-35.03-24.17-1.1-10.99-2.92-27.1-2.92-59.33v-82.4h1.1l151.79,182.38h17.52v-145.39c0-32.23,2.18-49.44,3.28-60.79,1.82-16.85,9.49-21.61,29.19-22.71v-12.82Z"/><path class="g" d="M10.62,9.92C10.62,4.44,15.05,0,20.53,0H778.7c5.47,0,9.91,4.44,9.91,9.92V683.13c0,5.48-4.44,9.92-9.91,9.92H20.53c-5.47,0-9.91-4.44-9.91-9.92V9.92Z"/><path class="f" d="M49.04,48.42c0-5.48,4.44-9.92,9.91-9.92H740.28c5.47,0,9.91,4.44,9.91,9.92V644.63c0,5.48-4.44,9.92-9.91,9.92H58.95c-5.47,0-9.91-4.44-9.91-9.92V48.42Z"/><path class="e" d="M311.19,343.84v218.3c0,4.76-1.23,7.75-5.47,7.75s-6.02-2.99-6.02-7.75v-28.82h-10.81c-7.77,0-32.8,19.25-48.71,31.49h0c-5.1,3.92-9.26,7.13-11.62,8.74-17.51-10.19-39.26-20.39-55.54-25.83-2.92,2.72-5.59,5.19-8.01,7.42h0c-5.07,4.69-9.04,8.35-11.82,11.2-1.04,1.03-1.93,1.96-2.71,2.76-2.41,2.5-3.75,3.9-5.09,3.9-3.01,0-6.7-3.53-6.7-6.66s6.7-10.19,37.48-41.59c21.07-21.61,29.55-47.44,29.55-87.13,0-65.52-28.32-121.52-60.88-121.52-10.81,0-16.28,4.21-18.06,15.09-.55,5.44-3.01,7.2-5.47,7.2-4.79,0-7.25-7.88-7.25-21.07,0-30.04,21.07-54.1,47.06-54.1,12.07,0,20.26,5.3,27.33,9.88,5.99,3.88,11.18,7.24,17.27,6.43v-43.91c0-11.42-4.24-21.07-12.72-28.27-7.25-5.98-44.6-31.26-58.55-31.26-2.67,0-4.62,.55-6.34,1.04-1.36,.39-2.59,.73-3.92,.73-1.78,0-2.46-.54-2.46-1.77,0-1.57,.97-2.71,3.67-5.88h0c.34-.41,.72-.84,1.12-1.32l47.61-46.89c.44-.31,.83-.61,1.2-.89,1.7-1.28,2.8-2.11,4.82-2.11,9.62,0,36.3,18.09,58.12,32.88,15.1,10.24,27.88,18.9,31.07,18.9,5.77,0,22.89-10.64,41.43-22.17,21.86-13.59,45.68-28.4,55.16-28.4,4.5,0,9.11,3.72,40.04,28.61l.15,.12c1.96,1.57,4.02,3.23,6.19,4.98,1.49,1.18,3.36,2.74,5.48,4.51h0c6.44,5.38,15.29,12.77,23.52,17.78,9.71,5.98,10.26,7.2,10.26,18.62,6.02-1.22,12.72-5.98,50.62-36.7,10.81-8.97,42.82-34.93,45.28-34.93,3.01,0,29.55,10.87,68.81,27.05,11.49,4.76,13.27,5.98,13.27,13.18V474.47c0,10.19,1.23,13.86,5.47,17.4,18.06,15.63,29,21.61,35.02,21.61,1.78,0,4.24-.68,6.02-2.45,3.01-4.21,3.69-4.76,5.47-4.76s3.69,2.45,3.69,4.76c0,3.67-27.09,37.24-54.86,58.99-16.83-5.98-45.83-25.83-62.11-42.68-5.47-5.98-6.57-7.2-6.57-17.4v-222.65c0-25.83,8.35-43.36,38.58-83.6,15.73-20.39,16.83-26.51,13.82-26.51-1.47,0-15.12,9.41-27.45,17.9-8.37,5.77-16.13,11.11-19.06,12.82-1.31-.75-2.58-1.48-3.82-2.19-29.53-16.91-39.16-22.42-55.96-22.42-9.58,0-16.28,4.76-16.28,10.87v369.86c0,4.76-2.46,8.43-6.02,8.43-3.01,0-4.79-2.99-4.79-7.75v-27.73c-16.99,2.75-31.88,16.54-41.83,25.77-5.27,4.89-9.16,8.49-11.25,8.49-6.57,0-45.83-46.89-45.83-50.56v-176.84h-70.59Zm-10.94-153.33c0-12.1-1.23-16.18-3.56-16.18-5.33,0-24.76,12.1-24.76,16.18v166.51c0,80.79-9.21,90.45-30.09,112.34-.41,.43-.82,.86-1.24,1.3-9.71,10.19-12.04,12.64-19.29,21.07,12.72,17.4,54.86,25.28,79.07,24.06V190.52h-.14Zm81.53,96.24h-70.59v-100.99c0-7.88,3.56-12.1,10.26-12.1,15.05,0,60.33,34.25,60.33,46.89v66.2Zm98.91-85.5c0-1.22-.55-1.77-2.46-1.77-1.78,0-4.79,1.22-6.7,2.45l-13.82,8.43c-7.8,4.76-10.26,7.2-10.26,10.87v60.08c0,4.21,5.47,7.2,9.71,7.2h23.53v-87.27Zm-22.98,141.36h22.85v174.39c-22.3-1.77-32.56-13.18-32.56-37.24v-123.29c0-8.97,3.15-13.86,9.71-13.86Z"/></g></g></g></svg>