<svg width="40" height="30" viewBox="0 0 40 30" fill="none" xmlns="http://www.w3.org/2000/svg">
<path d="M15.3607 16.6184L14.3128 12.6368C14.0965 11.8173 14.3793 11.2242 15.6411 10.8662L15.0694 8.69324C14.3503 8.88888 13.8596 9.22724 13.6372 9.89537C13.6263 9.92736 13.6166 9.95935 13.6082 9.99134L13.4535 9.39827L11.3384 9.97535L13.2395 17.198L15.3619 16.6184H15.3607Z" fill="white"/>
<path d="M8.41388 18.5165L7.36238 14.5213C7.1122 13.5714 7.35272 12.9759 8.15766 12.7556C8.88646 12.5563 9.35419 12.875 9.65151 14.007L10.6752 17.8976L12.7976 17.3193L11.6228 12.8553C11.0922 10.8386 9.78325 10.1348 8.19875 10.5679C7.22702 10.8325 6.58403 11.5104 6.28792 12.4702C5.62439 11.7725 4.82428 11.4883 3.90331 11.7393C2.99564 11.9866 2.40704 12.5096 2.21487 13.2884L2.18948 13.2958L1.98764 12.528L0.00671387 13.0694L1.90788 20.292L4.03021 19.7125L3.00651 15.8219C2.74303 14.8203 2.97025 14.1719 3.80058 13.9455C4.52938 13.7461 4.99832 14.1768 5.24488 15.1131L6.29275 19.0948L8.41509 18.5165H8.41388Z" fill="white"/>
<path d="M10.4947 24.2456C9.47225 24.5249 8.57183 23.8629 8.30472 22.8491C8.04487 21.8598 8.58633 20.8472 9.53268 20.5888C10.5685 20.3058 11.4834 20.9222 11.7614 21.9755C12.0357 23.0164 11.5305 23.9626 10.496 24.2456M12.9241 17.7526L10.8029 18.3309L10.9806 19.0077L10.9552 19.015C10.4633 18.5499 9.66684 18.39 8.74708 18.641C6.70209 19.1984 5.62279 21.2926 6.20535 23.5049C6.77703 25.6778 8.70115 26.8972 10.7715 26.3324C11.6405 26.0949 12.3306 25.4883 12.4684 24.7119L12.5228 24.9199C12.8685 26.234 12.4056 27.1273 11.3311 27.4201C10.8066 27.5629 10.2857 27.5099 9.90252 27.0424L7.44781 27.7117C7.99048 29.0431 9.59916 29.8453 11.6055 29.2978C13.3821 28.813 14.5738 27.665 14.8216 26.5244C14.9473 25.9608 14.8796 25.1832 14.6222 24.2075L12.9229 17.7526H12.9241Z" fill="white"/>
<path d="M26.2471 17.1304C26.2108 16.317 26.7523 15.6674 27.5198 15.4582C28.338 15.2355 29.1067 15.5554 29.4681 16.2518L26.2471 17.1304ZM23.3657 16.2666C23.3851 16.258 23.3972 16.2371 23.396 16.2026C23.396 16.1768 23.396 16.1497 23.3923 16.1239C23.3778 15.991 23.3379 15.8766 23.2848 15.772C23.228 15.66 23.1615 15.564 23.0938 15.468C23.043 15.3967 22.9947 15.3229 22.9451 15.2503C22.9306 15.2343 22.9186 15.217 22.9077 15.1961C22.8787 15.1383 22.8497 15.0854 22.8279 15.0239C22.817 14.9931 22.8158 14.9636 22.817 14.934C22.8122 14.859 22.8291 14.7802 22.875 14.7113C22.875 14.7101 22.8775 14.7089 22.8787 14.7076C22.8823 14.7015 22.8835 14.6941 22.8871 14.688C22.8871 14.688 22.8883 14.6855 22.8896 14.6843C22.9464 14.4972 23.0032 14.309 23.0624 14.1133C23.1325 14.1712 23.1941 14.2216 23.2787 14.2905C23.4056 14.2253 23.5398 14.1576 23.68 14.0863C23.7682 14.2524 23.8552 14.4173 23.9435 14.5821C23.9737 14.6227 23.9991 14.667 24.0244 14.7101C24.0607 14.7482 24.0909 14.7938 24.1199 14.8393C24.1151 14.8307 24.1199 14.8356 24.1284 14.8479C24.1731 14.8897 24.2118 14.9365 24.2396 14.9906C24.2444 14.9993 24.2505 15.0079 24.2553 15.0165C24.2577 15.0226 24.2589 15.03 24.2625 15.0374H24.265C24.2867 15.0694 24.2928 15.1063 24.2928 15.1469C24.2928 15.1531 24.2964 15.1604 24.2964 15.1666C24.2988 15.2084 24.2903 15.2441 24.2783 15.2773C24.2613 15.3807 24.2444 15.4853 24.2299 15.5886C24.219 15.6612 24.2202 15.7351 24.2287 15.8064C24.2384 15.8889 24.2722 15.9553 24.329 16.007C24.3713 16.0464 24.41 16.0476 24.4559 16.007C24.4692 15.9947 24.4825 15.9811 24.4958 15.9676C24.3399 16.365 24.2444 16.7883 24.2166 17.2214C23.9797 16.8498 23.6933 16.5287 23.3682 16.2641M19.1875 19.0548C19.1513 18.2414 19.6927 17.5918 20.4602 17.3826C21.2785 17.1599 22.0471 17.4798 22.4085 18.1762L19.1875 19.0548ZM22.1668 11.26C22.116 10.9807 22.2284 10.7333 22.3251 10.4811V11.4531C22.2586 11.3719 22.2139 11.3166 22.1668 11.2587M23.8589 5.35513C23.9507 5.21486 24.0003 5.04506 24.074 4.89126C24.0921 4.85312 24.1308 4.82605 24.1755 4.77806C24.4318 5.00569 24.7109 5.19272 24.9176 5.46587C24.6686 5.83623 24.3629 6.07863 23.958 6.2152C23.8963 6.17091 23.8323 6.12415 23.7585 6.07124C23.7416 5.81039 23.7114 5.57661 23.8577 5.35513M34.5467 11.586C33.691 11.8198 33.1362 12.264 32.8836 13.1278L32.8583 13.1351L32.6564 12.3674L30.6755 12.9075L31.3233 15.3684C30.4277 13.8968 28.7514 13.1671 27.0412 13.6335C26.0755 13.8968 25.308 14.5206 24.8173 15.3192C24.8391 15.2195 24.8499 15.1174 24.8487 15.0128C24.8487 15.0017 24.8463 14.9906 24.8463 14.9796H24.8536V14.3078C24.8717 14.3114 24.8898 14.3139 24.9067 14.3176C24.9539 14.1786 25.0143 14.0432 25.0457 13.9017C25.0796 13.7541 25.1388 13.5892 24.9926 13.4821C24.8499 13.4452 24.7303 13.396 24.607 13.3874C24.4789 13.3788 24.3484 13.4083 24.1997 13.4231C23.9205 13.1364 23.6413 12.8275 23.4213 12.4892C23.4769 12.1274 23.5386 11.7878 23.5797 11.4445C23.6304 11.0188 23.6558 10.5894 23.7537 10.171C23.7718 10.0948 23.796 9.96802 23.8057 9.8905C23.8577 9.45001 23.9072 9.00828 23.958 8.56164C23.9592 8.5481 23.9652 8.5358 23.9737 8.52595C24.0244 8.46812 24.0764 8.40783 24.132 8.34508C24.1526 8.32293 24.161 8.29094 24.1574 8.26018C24.1211 8.00548 24.0849 7.75693 24.0535 7.533C24.1175 7.44687 24.1574 7.39396 24.1695 7.37919C24.2033 7.22908 24.2287 7.12326 24.2529 7.01744C24.2674 7.02729 24.2831 7.03713 24.2976 7.04574C24.4172 6.97807 24.5417 6.91778 24.6566 6.84272C24.7931 6.75413 24.9261 6.65816 25.053 6.55603C25.36 6.30872 25.6645 6.06017 25.9643 5.80301C26.0211 5.75379 26.0827 5.66643 26.0815 5.59753C26.0791 5.43388 26.0743 5.25916 25.9655 5.12381C25.6984 4.79405 25.4615 4.436 25.0989 4.19853C25.0204 4.14685 24.9635 4.06195 24.9019 3.98812C24.827 3.89584 24.7605 3.79495 24.6856 3.70266C24.572 3.56362 24.4426 3.43566 24.4185 3.25109C24.41 3.18711 24.3737 3.13174 24.3157 3.1059C24.1791 3.04438 24.0885 3.02839 23.8975 3.00747C23.6486 2.98163 23.4854 2.85859 23.3319 2.67402C23.3766 2.53498 23.3899 2.49438 23.4346 2.35657C23.5313 2.33319 23.622 2.30489 23.715 2.28151C23.9773 2.21876 24.0897 2.00467 23.9809 1.74874C23.9386 1.64661 23.8685 1.55556 23.8093 1.45589C23.7936 0.768084 23.3645 0.453093 22.8219 0.439558C22.7228 0.437098 22.6756 0.44448 22.6031 0.456784C22.3868 0.494928 22.2647 0.653653 22.1728 0.822223C22.006 0.857905 21.826 0.829605 21.7124 0.974796C21.6833 1.01294 21.6858 1.06831 21.7148 1.10891L21.9384 1.41775C21.8985 1.71552 21.9444 2.00713 22.0774 2.26552C21.8816 2.57313 21.6592 2.79707 21.3268 2.89919C21.0887 2.97302 20.8591 3.07637 20.6113 3.17481C20.5823 3.18711 20.5581 3.20926 20.546 3.23879C20.4771 3.40736 20.3986 3.58085 20.3382 3.76172C20.2813 3.93152 20.2487 4.10871 20.2004 4.2822C20.1399 4.49629 20.1436 4.72392 20.0372 4.93309C19.8898 5.22471 19.8849 5.63444 19.7266 5.91867C19.4534 6.40715 19.3169 6.94977 19.1029 7.4604C19.022 7.65358 18.9362 7.84799 18.8866 8.05101C18.8515 8.19743 18.7851 8.31309 18.6618 8.366C18.4007 8.47797 18.2738 8.70191 18.1638 8.94061C18.0865 9.11041 18.0333 9.28636 18.13 9.45124C18.1421 9.47215 18.1481 9.49799 18.1421 9.5226C18.1167 9.62473 18.0962 9.71578 18.0696 9.8056C18.0406 9.90527 18.0067 9.99755 17.9741 10.1034C17.9233 10.2719 17.8726 10.4061 17.8242 10.5734C17.765 10.7444 17.6647 10.897 17.5015 10.9807C17.4568 11.004 17.4278 11.0496 17.4266 11.1C17.4266 11.1468 17.4254 11.1911 17.429 11.2366C17.4423 11.3867 17.4822 11.5368 17.4725 11.6845C17.4628 11.853 17.4181 12.0216 17.3758 12.1865C17.2296 12.7525 16.983 13.9841 16.8513 14.5526C16.7485 14.998 16.6821 15.5148 16.647 16.05C16.6349 16.2272 16.6265 16.2789 16.56 16.525L16.5914 16.5213C16.5975 16.5041 16.6047 16.4881 16.6108 16.4721C16.6265 16.4007 16.6519 16.317 16.7328 16.1189C16.7981 15.9615 16.8839 15.8187 17.0712 15.377C17.3142 14.8048 17.4906 14.2216 17.603 13.6618C17.6562 13.3985 17.7988 12.4633 17.8315 12.1951C17.8484 12.0548 17.8097 11.8715 17.9221 11.7927C18.0817 11.6808 18.2847 11.6143 18.3971 11.4408C18.437 11.3793 18.4322 11.2981 18.3862 11.2415C18.3258 11.1677 18.269 11.0976 18.2206 11.0385C18.1989 11.0114 18.1868 10.9757 18.1892 10.9413C18.2061 10.6608 18.2182 10.4159 18.2376 10.1723C18.2605 9.87943 18.3077 9.70963 18.4563 9.2679C18.4587 9.25929 18.4672 9.25314 18.4757 9.25437C18.6582 9.25437 18.8322 9.20269 18.993 9.32573C19.0002 9.33066 19.0026 9.3405 18.9942 9.36388L18.9253 9.54475C18.8938 9.62596 18.97 9.71578 19.051 9.68625C19.0824 9.67518 19.1102 9.64934 19.1332 9.61489C19.1755 9.54844 19.2033 9.46723 19.2202 9.38972C19.2564 9.22115 19.1815 9.07965 19.1126 8.95414C19.1017 8.93569 19.1017 8.91108 19.1114 8.89139C19.1924 8.72528 19.2661 8.57148 19.3386 8.42014C19.3507 8.39553 19.3664 8.37338 19.387 8.35369C19.4764 8.26633 19.561 8.17405 19.6226 8.06577C19.8475 7.66834 20.065 7.26722 20.2789 6.86364C20.4892 6.46744 20.6488 6.00357 20.7733 5.56431C20.7962 5.4831 20.8482 5.4105 20.8844 5.33544C21.0053 5.39081 20.992 5.47941 20.9969 5.56061C21.021 5.92728 21.0428 6.29518 21.0742 6.66185C21.0887 6.83903 21.1177 7.01621 21.1479 7.24138C21.1528 7.27953 21.1455 7.31767 21.1298 7.35335C21.0271 7.5859 21.0524 7.88982 21.0537 8.19005C21.0537 8.22696 21.0512 8.2651 21.0537 8.30325C21.067 8.50134 21.021 8.68837 20.9787 8.88032C20.9243 9.12886 20.876 9.38233 20.8687 9.6358C20.8518 10.2301 20.8736 10.8269 20.853 11.4212C20.8421 11.7275 20.9618 11.9281 21.1854 12.1127C21.5299 12.3957 21.855 12.702 22.2031 13.0121C22.1886 13.1093 22.1922 13.2102 22.1583 13.2963C21.9758 13.7602 21.9384 14.2315 21.9964 14.7101C21.9976 14.715 22 14.7212 22.0024 14.7261C22.0266 14.8036 22.0338 14.8787 22.0338 14.955C22.0338 14.955 22.0338 14.9562 22.0338 14.9574C22.0338 14.9574 22.0338 14.9586 22.0338 14.9599C22.0338 14.9783 22.0363 14.998 22.0338 15.0165C22.0338 15.0288 22.0375 15.0411 22.0387 15.0546C22.0399 15.0878 22.0387 15.1211 22.0363 15.1543C22.0363 15.1617 22.0338 15.1678 22.0338 15.1752C22.0302 15.2023 22.0266 15.2293 22.0218 15.2552C22.0218 15.265 22.0218 15.2736 22.0193 15.2823C22.0218 15.3622 22.0242 15.4434 22.023 15.5234C22.023 15.5357 22.023 15.5468 22.023 15.5566C21.3812 15.3733 20.6802 15.361 19.9744 15.5542C18.7947 15.8753 17.9112 16.7342 17.464 17.796L17.0858 16.3577C16.3678 16.5533 15.8759 16.8917 15.6535 17.5598C15.6427 17.5905 15.633 17.6238 15.6245 17.6558L15.4698 17.0627L13.3547 17.6398L15.2559 24.8624L17.3782 24.2841L16.3304 20.3024C16.143 19.5925 16.3304 19.0523 17.2042 18.6881C17.1039 19.2602 17.122 19.8607 17.2767 20.4476C17.8423 22.5947 19.9961 23.8067 22.0423 23.2481C23.5374 22.8396 24.5852 21.5636 24.8487 19.8041L22.6756 20.3972C22.4508 20.9472 22.1378 21.2683 21.5625 21.4258C20.6935 21.6633 19.8716 21.3015 19.5417 20.5128L24.5587 19.1446C25.3406 20.8955 27.266 21.8232 29.1031 21.3212C30.5981 20.9139 31.6472 19.6368 31.9095 17.8785L29.7364 18.4715C29.5116 19.0215 29.1986 19.3439 28.6233 19.5002C27.7543 19.7376 26.9324 19.3759 26.6024 18.5872L31.7947 17.171L32.5718 20.1252L34.6942 19.5469L33.6463 15.5653C33.3888 14.5895 33.6209 14.01 34.4766 13.7762C35.2562 13.5633 35.7082 13.9288 35.9656 14.9045L37.0208 18.912L39.1431 18.3325L37.9308 13.7258C37.3688 11.5922 35.8218 11.2329 34.5443 11.5811" fill="white"/>
<path d="M37.6928 10.6083L37.9152 11.4524L38.1883 11.3786L37.966 10.5333L38.175 10.4767L38.111 10.2318L37.4172 10.4213L37.4813 10.6662L37.6928 10.6083Z" fill="white"/>
<path d="M39.0005 9.99136L38.9799 10.7653H38.9763L38.5763 10.107L38.2245 10.203L38.511 11.2919L38.7624 11.223L38.5364 10.3999L38.9848 11.1627L39.1661 11.1135L39.1794 10.2325L39.183 10.235L39.3885 11.052L39.6398 10.9843L39.3534 9.89539L39.0005 9.99136Z" fill="white"/>
</svg>
