<svg fill="none" height="25" viewBox="0 0 131 25" width="131" xmlns="http://www.w3.org/2000/svg"><g fill="#fff"><path d="m20.3041 23.8567-9.9955-11.1046c-.1549-.1872-.46675-.1248-.46675.0936v10.291c0 .2809-.03097.3121-.30967.3121h-4.22252c-.27869 0-.30966-.0312-.30966-.3121v-21.92822c0-.249636.2787-.28084.49768-.06241l9.96462 11.13573c.1548.156.4667.0936.4667-.0936v-10.32218c0-.28085.031-.31205.3097-.31205h4.2225c.2787 0 .3097.0312.3097.31205v21.89698c0 .2809-.25.3121-.4668.0937z"/><path d="m29.9326 23.7941c-4.2226 0-7.4497-3.1606-7.4497-7.2886 0-4.0967 3.1984-7.22616 7.4497-7.22616 4.2534 0 7.4497 3.09596 7.4497 7.22616 0 4.128-3.2294 7.2886-7.4497 7.2886zm0-3.7869c1.8624 0 3.1342-1.4065 3.1342-3.5039 0-2.0016-1.3028-3.4415-3.1342-3.4415-1.8315 0-3.1033 1.4377-3.1033 3.4415-.0022 2.0974 1.2408 3.5039 3.1033 3.5039z"/><path d="m39.3 23.4487c-.2477 0-.3097-.0624-.3097-.312v-13.19976c0-.28085.062-.31205.3097-.31205h3.6629c.2787 0 .3097.0312.3097.31205v1.56476c0 .156.1858.1872.2477.0624.9003-1.4087 2.484-2.28246 4.0677-2.28246.2787 0 .3097.0312.3097.31205v3.59751c0 .2496-.031.3455-.1858.3455-.1239 0-.4977-.0624-.9932-.0624-2.265 0-3.4151 1.5647-3.4151 4.7543v4.9103c0 .2496-.031.312-.3097.312h-3.6939z"/><path d="m54.8783 23.7943c-3.6939 0-6.3636-3.0358-6.3636-7.2886 0-4.1904 2.6697-7.22616 6.3636-7.22616 1.5837 0 3.1365.65754 4.0367 1.65836.0929.1248.2478.0936.2478-.0624v-9.0027c0-.28084.0619-.31428.3096-.31428h3.7558c.2787 0 .3097.03121.3097.31428v21.264c0 .2496-.031.3121-.3097.3121h-3.7558c-.2477 0-.3096-.0625-.3096-.3121v-.9384c0-.1248-.1858-.156-.2478-.0624-.8383 1.032-2.422 1.6583-4.0367 1.6583zm1.2099-3.7869c1.8624 0 3.1343-1.4377 3.1343-3.5039 0-1.9704-1.336-3.4103-3.1343-3.4103-1.8624 0-3.1674 1.4065-3.1674 3.4103.0022 2.0974 1.274 3.5039 3.1674 3.5039z"/><path d="m67.7627 7.71474c-1.3979 0-2.4839-1.12561-2.4839-2.53429 0-1.40646 1.117-2.53429 2.4839-2.53429 1.398 0 2.515 1.12561 2.515 2.53429s-1.0883 2.53429-2.515 2.53429zm-1.8934 15.73406c-.2786 0-.3096-.0624-.3096-.3121v-13.19971c0-.24964.031-.31205.3096-.31205h3.7868c.2787 0 .3097.06241.3097.31205v13.19971c0 .2497-.031.3121-.3097.3121z"/><path d="m78.9041 23.7941c-4.1916 0-7.3259-3.1294-7.3259-7.2886 0-4.1279 3.1033-7.22616 7.3259-7.22616 1.2718 0 2.6697.24964 3.508.59512.2168.09362.2478.15604.2478.31204v3.5663c0 .2496-.1239.3143-.3097.2184-.9002-.6263-1.8005-.9071-2.9794-.9071-2.0792 0-3.4771 1.344-3.4771 3.4414 0 2.1264 1.3647 3.5039 3.4771 3.5039 1.2099 0 2.1101-.312 3.1033-1.0008.1548-.1248.2787-.0312.2787.1873v3.6287c0 .156-.031.2184-.2478.312-.8073.3745-2.2981.6575-3.6009.6575z"/><path d="m85.0089 23.4488c-.2787 0-.3097-.0312-.3097-.3121v-21.27066c0-.28084.031-.31205.3097-.31205h6.5494c4.9967 0 7.4188 1.81436 7.4188 5.56788 0 1.68953-.9622 3.44143-2.2341 4.09673-.1548.0624-.1548.2497 0 .3455 2.1721.8448 3.57 2.8776 3.57 5.2246 0 4.0968-3.1032 6.6623-8.0092 6.6623h-7.2949zm4.8728-13.231h1.4599c1.8624 0 2.7627-.78231 2.7627-2.31358 0-1.53351-.9313-2.34484-2.7627-2.34484h-1.4599c-.2787 0-.3096.03121-.3096.31205v4.03437c0 .2808.0309.312.3096.312zm0 9.1342h2.2341c1.9862 0 3.0413-.9384 3.0413-2.6279 0-1.8768-.9622-2.6279-3.4152-2.6279h-1.8624c-.2787 0-.3096.0312-.3096.312v4.6295c.0022.2831.0331.3143.3118.3143z"/><path d="m109.101 23.7941c-4.346 0-7.481-3.0358-7.481-7.2886 0-4.1904 2.918-7.22616 6.954-7.22616 4.223 0 6.8 2.87756 6.8 7.53826v.7823c0 .3433-.062.4391-.343.4391h-8.691c-.247 0-.34.0625-.34.2809.062 1.2504 1.553 2.1576 3.601 2.1576 1.367 0 2.886-.4057 3.818-1.0632.185-.1248.309-.0312.309.1872v2.8152c0 .156-.062.2496-.278.4079-.81.5616-2.642.9695-4.349.9695zm-2.949-8.6348h4.718c.279 0 .341-.0312.31-.3121-.155-1.3775-1.117-2.22-2.67-2.22-1.46 0-2.546.9072-2.669 2.22-.029.2496.033.3121.311.3121z"/><path d="m118.417 23.4488c-.278 0-.309-.0624-.309-.3121v-9.5398c0-.2808-.031-.312-.31-.312h-1.303c-.281 0-.312-.0624-.312-.3143v-3.0336c0-.24964.031-.31205.312-.31205h1.303c.279 0 .31-.0312.31-.31204v-5.16666c0-.24965.062-.37669.309-.50151l3.725-1.75194c.217-.12482.374-.09362.374.15602v7.26185c0 .28085.031.31206.31.31206h1.862c.281 0 .312.06241.312.31205v3.03362c0 .2496-.031.3142-.312.3142h-1.862c-.279 0-.31.0312-.31.3121v9.5398c0 .2496-.031.3121-.312.3121h-3.787z"/></g></svg>