<svg width="27" height="27" viewBox="0 0 27 27" fill="none" xmlns="http://www.w3.org/2000/svg">
<path fill-rule="evenodd" clip-rule="evenodd" d="M25.7579 10.8414L23.925 25.765C23.8733 26.2072 23.5343 26.4943 23.046 26.4943H15.5651C15.0767 26.4943 14.8296 26.2531 14.8296 25.8626V25.765L16.674 10.6003C16.7717 10.0203 16.8636 9.44611 16.8636 8.86617C16.8636 7.99912 16.7717 7.45936 16.4786 7.07465C16.0937 6.54638 15.4157 6.35689 14.4964 6.35689C13.1921 6.35689 11.4512 6.59806 11.4512 6.59806L9.08393 25.7708C9.03797 26.2129 8.70472 26.5 8.21633 26.5H0.718211C0.241319 26.5 0 26.2588 0 25.8684V25.7708L2.65451 4.22085C2.84412 2.48101 4.63677 1.99867 7.72795 1.41873C10.1411 0.936396 13.5196 0.5 16.5706 0.5C19.8628 0.5 22.4714 0.838781 24.1664 2.14797C25.4189 3.06095 26.1429 4.51369 26.1429 6.7818C26.1429 8.09099 25.8958 9.53224 25.7579 10.8414V10.8414Z" fill="white"/>
</svg>
