<svg xmlns="http://www.w3.org/2000/svg" fill="#004d42" viewBox="0 0 140 26" class="header__logo-icon"><g clip-path="url(#header_desktop_logo_svg__clip0_3613_190690)"><path fill="#004D43" fill-rule="evenodd" d="M13.015 24.971l.665-2.22 4.548-.402 1.004 2.07 3.983-.338-7.948-14.616-.501.044L9.37 25.291l3.644-.32zm2.434-8.6l1.487 3.237h-.006l-2.428.213.947-3.45zm17.94 5.57c2.039-1.611 3.074-3.957 2.823-6.811h-.007v-.02c-.188-2.176-1.122-4.547-3.563-5.77-1.317-.659-3.017-.979-5.294-.778a53.77 53.77 0 00-2.345.264c-.885.119-1.362.213-1.738.288l1.298 14.772c.408 0 .985-.012 1.38-.025.615-.038 1.543-.1 2.49-.182 1.989-.175 3.72-.753 4.956-1.737zm-2.56-9.628c1.03.678 1.6 1.863 1.72 3.218h.012v.019c.157 1.775-.49 3.073-1.462 3.914a4.269 4.269 0 01-2.346.947 8.37 8.37 0 01-.878.019c-.018.006-.044.006-.044-.032l-.752-8.53.067-.013c.242-.043.573-.103.899-.132 1.148-.1 2.082.132 2.785.59zm16.792 8.38c2.04-1.6 3.074-3.945 2.823-6.8v-.012c-.188-2.176-1.123-4.547-3.563-5.783-1.317-.652-3.017-.966-5.294-.765-.715.062-2.716.313-4.077.54l1.286 14.771c.408 0 .985-.012 1.38-.025.615-.038 1.543-.1 2.49-.182 2.001-.175 3.72-.746 4.956-1.744zm-2.552-9.628c1.028.69 1.6 1.863 1.718 3.23h.013v.02c.157 1.774-.49 3.06-1.462 3.9a4.139 4.139 0 01-2.346.967 8.234 8.234 0 01-.878.018c-.019 0-.044 0-.044-.037l-.752-8.543.065-.012c.242-.044.574-.104.907-.133 1.141-.1 2.07.132 2.779.59zm14.301 9.86l-.546-6.329 4.184-9.032-3.776.332-2.471 5.445-3.28-4.943-3.978.351 5.796 8.337.54 6.153 3.531-.314zm7.164-15.719c-.854.063-2.002.226-2.497.326l-.006-.006 1.304 14.872 3.35-.294-.395-4.592c.677-.081 1.386-.2 2.045-.414.59-.182 1.135-.414 1.612-.728a4.817 4.817 0 001.725-2.038c.32-.747.489-1.656.401-2.66-.182-2.126-1.386-3.374-2.779-4.008-.853-.389-1.831-.52-2.66-.546a21.772 21.772 0 00-2.1.088zm3.092 3.155c.57.32.972.904 1.035 1.638v.018c.031.408-.013.766-.138 1.104a1.888 1.888 0 01-.59.81c-.326.263-.79.451-1.298.526a6.49 6.49 0 01-.609.07l-.382-4.36c.232-.038.42-.057.577-.07a2.43 2.43 0 011.405.264zM84.24 18.987c4.51-.401 7.534-4.064 7.145-8.462l-.007-.006V10.5c-.376-4.278-3.87-7.276-8.349-6.88-4.553.4-7.677 4.064-7.3 8.38.363 4.302 4.07 7.376 8.511 6.987zm-1.004-12.1c2.41-.213 4.329 1.562 4.542 4.015v.019c.22 2.49-1.236 4.585-3.764 4.804-2.546.226-4.453-1.549-4.673-4.04-.226-2.546 1.393-4.578 3.895-4.798zm23.19 10.218l.477-.044v-.006l3.237-15.619-3.344.295-1.43 7.182-4.284-6.58-.502.044-3.055 7.29-2.722-6.876-3.644.308 5.99 14.81.47-.045 3.658-9.245 5.149 8.486zM119.311.64l-7.96.696 1.305 14.929 8.035-.709-.257-2.986-4.497.396-.27-3.074 3.901-.339-.257-2.967-3.908.339-.257-2.93 4.422-.388-.257-2.967zm3.776-.364a32.35 32.35 0 00-1.361.2V.49l1.311 14.873 3.369-.295-.508-5.733.345-.032a670.089 670.089 0 014.033 5.432l4.002-.35s-4.705-5.86-4.849-6.041v-.057c.226-.12.577-.445.891-.771.552-.534 1.235-1.8 1.091-3.438-.238-2.76-2.051-3.688-3.375-3.92-.884-.157-1.856-.188-3.086-.082-.52.044-1.442.145-1.863.201zm2.93 2.666c1.154-.1 1.925.527 2.026 1.7h.006v.019c.069.815-.307 1.405-.627 1.668a2.27 2.27 0 01-1.242.496c-.17.018-.364.03-.496.025l-.332-3.814.066-.013c.15-.028.315-.06.599-.081zM2.497 10.795A27.21 27.21 0 000 11.127L1.311 26l3.343-.295-.401-4.591c.69-.082 1.399-.201 2.057-.414a6.583 6.583 0 001.606-.74c.715-.459 1.317-1.149 1.725-2.04.326-.733.495-1.643.408-2.659-.188-2.126-1.393-3.362-2.785-3.995-.853-.39-1.838-.534-2.672-.559-.71-.012-1.5.032-2.095.088zm3.092 3.162c.57.32.96.89 1.022 1.624v.013c.038.42-.006.778-.131 1.116-.113.345-.345.602-.577.797-.327.257-.797.458-1.311.54a5.394 5.394 0 01-.603.075l-.382-4.36c.232-.038.42-.056.564-.069.533-.05 1.01.05 1.418.264z" clip-rule="evenodd"></path><path fill="#45A041" d="M139.533 12.207a2.072 2.072 0 01-2.076 2.082c-1.161 0-2.108-.947-2.102-2.088 0-1.16.948-2.096 2.108-2.096 1.167 0 2.076.948 2.076 2.102h-.006z"></path></g><defs><clipPath id="header_desktop_logo_svg__clip0_3613_190690"><path fill="#fff" d="M0 0h139.534v26H0z"></path></clipPath></defs></svg>