<?xml version="1.0" encoding="UTF-8"?>
<svg width="200px" height="51px" viewBox="0 0 200 51" version="1.1" xmlns="http://www.w3.org/2000/svg" xmlns:xlink="http://www.w3.org/1999/xlink">
    <!-- Generator: Sketch 57 (83077) - https://sketch.com -->
    <title>Logo</title>
    <desc>Created with Sketch.</desc>
    <defs>
        <polygon id="path-1" points="0 0.222044728 24.530424 0.222044728 24.530424 39.9638978 0 39.9638978"></polygon>
        <polygon id="path-3" points="0.25798722 0.17827476 41.7915335 0.17827476 41.7915335 50.798722 0.25798722 50.798722"></polygon>
    </defs>
    <g id="Project" stroke="none" stroke-width="1" fill="none" fill-rule="evenodd">
        <g id="1---Home" transform="translate(-104.000000, -20.000000)">
            <g id="Hero" transform="translate(-44.000000, 0.000000)">
                <g id="Navigation" transform="translate(44.000000, 0.000000)">
                    <g id="Logo" transform="translate(104.000000, 20.000000)">
                        <g id="Group-3" transform="translate(0.000000, 5.572524)">
                            <mask id="mask-2" fill="white">
                                <use xlink:href="#path-1"></use>
                            </mask>
                            <g id="Clip-2"></g>
                            <path d="M11.2103195,21.3984026 L12.3457827,21.3984026 C14.1058466,21.3984026 16.038754,20.2629393 16.7614377,17.3108626 L18.639393,9.64632588 C19.3620767,6.6942492 18.0016933,5.55846645 16.2416294,5.55846645 L15.1061661,5.55846645 C13.9710224,5.55846645 13.9710224,5.55846645 13.6844409,6.6942492 L10.3646326,20.2067093 C10.0745367,21.3984026 10.0745367,21.3984026 11.2103195,21.3984026 L11.2103195,21.3984026 Z M17.6004153,0.222044728 C22.3125559,0.222044728 25.9048882,3.17412141 24.0183067,11.0086262 L22.794345,15.9479233 C20.8505751,23.7833866 15.7563259,26.7354633 11.0441853,26.7354633 L9.34099042,26.7354633 C8.7700639,26.7923323 8.7013738,27.0194888 8.48667732,27.8709265 L5.75472843,38.828754 C5.53971246,39.6801917 5.18444089,39.9638978 4.38955272,39.9638978 L0.983162939,39.9638978 C0.0745367412,39.9638978 -0.137923323,39.6801917 0.0770926518,38.828754 L9.36527157,1.3571885 C9.57996805,0.50543131 9.93587859,0.222044728 10.7876358,0.222044728 L17.6004153,0.222044728 Z" id="Fill-1" fill="#FFFFFF" mask="url(#mask-2)"></path>
                        </g>
                        <path d="M26.4422045,44.4011502 L35.7300639,6.92990415 C35.9450799,6.07814696 36.3006709,5.79444089 37.1524281,5.79444089 L40.5591374,5.79444089 C41.4105751,5.79444089 41.6227157,6.07814696 41.4076997,6.92990415 L33.4815016,39.0075399 C33.1917252,40.1995527 33.1917252,40.1995527 34.383738,40.1995527 L40.6291054,40.1995527 C41.4805431,40.1995527 41.6930032,40.4835783 41.4779872,41.335016 L40.6926837,44.4011502 C40.4779872,45.2525879 40.1792652,45.5366134 39.327508,45.5366134 L27.3482748,45.5366134 C26.4965176,45.5366134 26.2271885,45.2525879 26.4422045,44.4011502" id="Fill-4" fill="#FFFFFF"></path>
                        <path d="M58.7039936,34.0112141 C58.2468051,35.1466773 58.2468051,35.1466773 59.3822684,35.1466773 L62.5618211,35.1466773 C63.6972843,35.1466773 63.6972843,35.1466773 63.8135783,34.0112141 L64.8771565,20.2147284 C64.8921725,19.9310224 64.5515974,19.9310224 64.4228435,20.2147284 L58.7039936,34.0112141 Z M64.0046326,45.5364537 C63.2662939,45.5364537 62.9257188,45.5364537 62.9135783,44.685016 L63.1876997,41.6188818 C63.2474441,40.483738 63.2474441,40.483738 62.2253994,40.483738 L57.1723642,40.483738 C56.09377,40.483738 56.09377,40.483738 55.5800319,41.6188818 L54.2838658,44.685016 C53.9554313,45.5364537 53.6145367,45.5364537 52.8768371,45.5364537 L49.4704473,45.5364537 C48.9023962,45.5364537 48.3346645,45.5364537 48.7260383,44.571278 L65.1819489,6.81632588 C65.5672524,5.96488818 65.8036741,5.79460064 66.7116613,5.79460064 L69.777476,5.79460064 C70.6861022,5.79460064 70.7905751,5.96488818 70.7458466,6.81632588 L68.5969649,44.571278 C68.5464856,45.5364537 67.9784345,45.5364537 67.4110224,45.5364537 L64.0046326,45.5364537 Z" id="Fill-6" fill="#FFFFFF"></path>
                        <path d="M78.1010863,44.4011502 L80.979361,32.8190415 C81.122492,32.2513099 81.5413419,6.92990415 81.5413419,6.92990415 C81.5170607,6.30530351 81.8279233,5.79444089 82.566262,5.79444089 L86.1998083,5.79444089 C87.2215335,5.79444089 87.2065176,6.07814696 87.2186581,6.92990415 L86.5553994,20.6692013 C86.4777636,21.0666454 86.9320767,21.0666454 87.123131,20.6692013 L93.236869,6.92990415 C93.6790415,6.07814696 93.8071565,5.79444089 94.8292013,5.79444089 L98.4627476,5.79444089 C99.2007668,5.79444089 99.2307987,6.30530351 98.9145048,6.92990415 C98.9145048,6.92990415 86.8001278,32.2513099 86.6566773,32.8190415 L83.778722,44.4011502 C83.5637061,45.2525879 83.264984,45.5366134 82.4135463,45.5366134 L79.0068371,45.5366134 C78.1553994,45.5366134 77.8860703,45.2525879 78.1010863,44.4011502" id="Fill-8" fill="#FFFFFF"></path>
                        <path d="M121.741278,5.79450479 L125.147668,5.79450479 C125.999105,5.79450479 126.211246,6.07821086 125.99623,6.92996805 L119.076102,34.9762939 C117.132652,42.8114377 112.038722,45.7638339 107.326581,45.7638339 C102.614121,45.7638339 98.9649201,42.8114377 100.908371,34.9762939 L107.828498,6.92996805 C108.043514,6.07821086 108.399105,5.79450479 109.250863,5.79450479 L112.657252,5.79450479 C113.50869,5.79450479 113.720831,6.07821086 113.506134,6.92996805 L106.224665,36.4526518 C105.445431,39.4047284 106.862045,40.5405112 108.622109,40.5405112 C110.381853,40.5405112 112.258211,39.4047284 113.037764,36.4526518 L120.319233,6.92996805 C120.534249,6.07821086 120.889521,5.79450479 121.741278,5.79450479" id="Fill-10" fill="#00F181"></path>
                        <path d="M138.345335,26.9709265 L139.480799,26.9709265 C141.240863,26.9709265 143.17377,25.8354633 143.896454,22.8833866 L145.774409,15.2188498 C146.497093,12.2667732 145.136709,11.1309904 143.376645,11.1309904 L142.241182,11.1309904 C141.106038,11.1309904 141.106038,11.1309904 140.819457,12.2667732 L137.499649,25.7792332 C137.209553,26.9709265 137.209553,26.9709265 138.345335,26.9709265 L138.345335,26.9709265 Z M144.735431,5.79456869 C149.447572,5.79456869 153.039904,8.74664537 151.153323,16.5811502 L149.929042,21.5204473 C147.985591,29.3559105 142.891342,32.3079872 138.179201,32.3079872 L136.476006,32.3079872 C135.90508,32.3648562 135.83639,32.5920128 135.621693,33.4434505 L132.889744,44.401278 C132.674728,45.2527157 132.319776,45.5364217 131.524569,45.5364217 L128.118179,45.5364217 C127.209872,45.5364217 126.997093,45.2527157 127.212109,44.401278 L136.500288,6.92971246 C136.714984,6.07795527 137.070895,5.79456869 137.922652,5.79456869 L144.735431,5.79456869 Z" id="Fill-12" fill="#00F181"></path>
                        <g id="Group-16" transform="translate(158.146965, 0.141214)">
                            <mask id="mask-4" fill="white">
                                <use xlink:href="#path-3"></use>
                            </mask>
                            <g id="Clip-15"></g>
                            <polygon id="Fill-14" fill="#00F181" mask="url(#mask-4)" points="19.5934505 7.40485623 0.25798722 0.178019169 11.7771565 20.2534185 10.9969649 50.7987859 22.3190096 20.2534185 41.7915335 0.178019169"></polygon>
                        </g>
                    </g>
                </g>
            </g>
        </g>
    </g>
</svg>