<svg id="Logo" xmlns="http://www.w3.org/2000/svg" width="156.832" height="39" viewBox="0 0 156.832 39">
  <path id="Path_1" data-name="Path 1" d="M178.359,516.9a5.9,5.9,0,0,1-5.837.148l4.758-5.724a2.679,2.679,0,0,0,.374-2.859,2.635,2.635,0,0,0-2.41-1.549h-3.626a3.561,3.561,0,0,0-2.743,1.292l-2.889,3.475-2.847-2.411a10.758,10.758,0,0,0-7.954-2.531,10.636,10.636,0,0,0-2.184.427,1.867,1.867,0,0,0-1.311,1.787v2.791a.923.923,0,0,0,1.4.8,5.9,5.9,0,0,1,6.868.556l.384.325-7.409,8.912a1.877,1.877,0,0,0,.228,2.628l4.657,3.943-7.363,8.857a.934.934,0,0,0,.708,1.532h2.216l-1.656,1.992a2.679,2.679,0,0,0-.374,2.859,2.632,2.632,0,0,0,2.41,1.549h3.624a3.558,3.558,0,0,0,2.744-1.292l11.785-14.177a3.641,3.641,0,0,0-.441-5.092l-3.329-2.82,1.161-1.4a10.726,10.726,0,0,0,5.991,1.825q.482,0,.969-.042a10.729,10.729,0,0,0,2.184-.429,1.865,1.865,0,0,0,1.311-1.787V517.7a.923.923,0,0,0-1.4-.8m-8,9.579a1.874,1.874,0,0,1,.228,2.624L158.8,543.28a1.839,1.839,0,0,1-1.414.666h-3.624a.933.933,0,0,1-.707-1.531l11.741-14.123-6.072-5.143,11.486-13.816a1.835,1.835,0,0,1,1.412-.665h3.626a.932.932,0,0,1,.707,1.53L165.7,522.534Z" transform="translate(-150.236 -506.697)" fill="#fff"/>
  <path id="Path_2" data-name="Path 2" d="M192.9,518.272a1.214,1.214,0,0,1-1.191-.932,3.045,3.045,0,0,0-2.9-2.56,2.83,2.83,0,0,0-3,2.677c0,4.461,11.185,4.19,11.185,13.114a7.768,7.768,0,0,1-7.918,7.606h-.616a7.8,7.8,0,0,1-7.957-7.606v-.31a.927.927,0,0,1,.923-.932h3.036a.927.927,0,0,1,.923.932v.31a3.16,3.16,0,0,0,3.152,3.066h.423a3.034,3.034,0,0,0,3.114-2.794c0-5.587-11.147-4.5-11.147-13.036a7.86,7.86,0,0,1,15.669-.552.925.925,0,0,1-.919,1.017Z" transform="translate(-141.099 -505.585)" fill="#fff"/>
  <path id="Path_3" data-name="Path 3" d="M210.177,516.785V519.1a7.013,7.013,0,0,1-1.778,4.349,6.829,6.829,0,0,1,2.056,4.75v2.992c0,4.19-3.637,6.984-7.591,6.984H196.3a1.236,1.236,0,0,1-1.229-1.242V511.482a1.236,1.236,0,0,1,1.229-1.242h6.678c4.191,0,7.2,2.874,7.2,6.545m-10.042-1.875v6.306h2.886a2.1,2.1,0,0,0,2.214-1.957v-2.394a2.1,2.1,0,0,0-2.214-1.956Zm0,18.6h2.729a2.4,2.4,0,0,0,2.49-2.315V528.24a2.5,2.5,0,0,0-2.49-2.355h-2.729Z" transform="translate(-136.703 -505.585)" fill="#fff"/>
  <path id="Path_4" data-name="Path 4" d="M222.626,538.177a13.969,13.969,0,1,1,13.838-13.968,13.92,13.92,0,0,1-13.838,13.968m0-22.8a8.837,8.837,0,1,0,8.755,8.837,8.806,8.806,0,0,0-8.755-8.837" transform="translate(-132.565 -505.585)" fill="#fff"/>
  <path id="Path_5" data-name="Path 5" d="M231.287,510.241h13.868a1.236,1.236,0,0,1,1.23,1.242v2.187a1.236,1.236,0,0,1-1.23,1.242h-4.423v22.025a1.236,1.236,0,0,1-1.23,1.242h-2.6a1.236,1.236,0,0,1-1.23-1.242V514.911h-4.385a1.236,1.236,0,0,1-1.23-1.242v-2.187a1.236,1.236,0,0,1,1.23-1.242" transform="translate(-126.145 -505.585)" fill="#fff"/>
  <path id="Path_6" data-name="Path 6" d="M259.962,530.571a7.758,7.758,0,0,1-7.88,7.606h-.614a7.825,7.825,0,0,1-7.919-7.644V517.845a7.793,7.793,0,0,1,7.919-7.6h.614a7.758,7.758,0,0,1,7.88,7.6Zm-4.843-12.959a2.983,2.983,0,0,0-3.114-2.832h-.423a3.018,3.018,0,0,0-3.152,2.832v13.154a3.05,3.05,0,0,0,3.152,2.871h.385a3.019,3.019,0,0,0,3.152-2.833Z" transform="translate(-122.074 -505.585)" fill="#fff"/>
  <path id="Path_7" data-name="Path 7" d="M267.2,510.241h-6.966a1.236,1.236,0,0,0-1.23,1.24v25.453a1.236,1.236,0,0,0,1.23,1.242h2.613a1.236,1.236,0,0,0,1.23-1.24v-7.819H267.2a6.843,6.843,0,0,0,7.038-6.784v-5.348a6.86,6.86,0,0,0-7.038-6.744m1.9,12.411a1.959,1.959,0,0,1-2.056,1.836h-2.965V514.91h2.965a1.964,1.964,0,0,1,2.056,1.875Z" transform="translate(-117.408 -505.585)" fill="#fff"/>
</svg>
