<svg xmlns="http://www.w3.org/2000/svg" width="108" height="16" viewBox="0 0 108 16" fill="none"><path d="M59.9425 15.6575H55.51V3.4255H59.9425V15.6575ZM39.9419 3.4255H35.5094V15.6575H39.9419V3.4255ZM39.9419 0.916607H35.5094V2.58181H39.9419V0.916607ZM59.9425 0.916607H55.51V2.58181H59.9425V0.916607ZM34.5431 9.54189C34.5431 13.3209 31.8449 15.9571 27.9133 15.9571C23.9816 15.9571 21.2834 13.3209 21.2834 9.54189C21.2834 5.84354 23.896 3.12378 27.9133 3.12595C31.9305 3.12378 34.5431 5.84354 34.5431 9.54189ZM30.1971 9.52736C30.1971 7.89958 29.4215 6.66363 27.9132 6.66363C26.4049 6.66363 25.6293 7.89958 25.6293 9.52736C25.6293 11.1551 26.3764 12.3911 27.9132 12.3911C29.45 12.3911 30.1971 11.1551 30.1971 9.52736ZM77.3459 3.12595C75.1296 3.12595 73.9802 4.675 73.2076 7.02973V7.02849C73.2076 4.9744 71.9539 3.12595 69.7636 3.12595C67.5476 3.12595 66.3982 4.67447 65.6256 7.02849V3.4255H61.1932V15.6575H65.6256V11.2894C65.6295 8.77698 66.7545 7.30558 67.6812 7.30558C68.3981 7.30558 68.7751 7.77975 68.7751 8.85619V15.6575H73.2076V11.3023C73.2076 8.78194 74.3352 7.30558 75.2635 7.30558C75.9804 7.30558 76.3575 7.77975 76.3575 8.85619V15.6575H80.7899V7.02849C80.7899 4.9744 79.5363 3.12595 77.3459 3.12595ZM20.7782 11.9924C20.5652 12.1033 20.3284 12.1428 20.0799 12.1428C19.4586 12.1428 18.93 11.7734 18.93 10.9815V5.79999H20.8769V3.4255H18.93V0.916607L14.4975 1.60289V11.6523C14.4975 14.535 16.1738 15.9571 18.6523 15.9571C19.6406 15.9571 21.0305 15.54 21.6172 15.0848L20.7782 11.9924ZM93.835 8.56488V15.6575H89.4025V13.6094C88.6656 14.9292 87.4256 15.9571 85.5957 15.9571C83.3608 15.9571 81.6693 14.4126 81.6693 12.0121C81.6693 9.53223 83.5833 8.06009 85.9505 8.06009C87.7521 8.06009 89.0654 8.74289 89.4025 9.00147C89.4025 7.54341 88.2367 6.77705 86.5236 6.77705C85.2991 6.77705 84.0158 7.39969 83.4524 7.80763L82.5384 4.4387C84.0015 3.58646 85.8903 3.12595 87.8994 3.12595C91.5254 3.12595 93.835 5.15375 93.835 8.56488ZM89.4025 10.2906C88.9202 10.0727 88.3533 9.90061 87.6413 9.90061C86.7019 9.90061 85.8904 10.5381 85.8904 11.5678C85.8904 12.4676 86.6521 13.0534 87.4539 13.0534C88.9715 13.0534 89.4025 11.5188 89.4025 10.2906ZM9.16886 5.59754C7.79616 5.59754 6.53786 6.24846 6.07524 7.08034H6.81673C8.32535 7.08034 9.15274 8.01963 9.15274 9.23179C9.15274 10.8377 7.48548 11.8994 5.27745 11.8994C3.95503 11.8994 2.16547 11.4566 1.12387 10.7772L0 14.9198C1.55515 15.6372 3.67799 15.9571 5.31628 15.9571C10.4916 15.9571 13.531 13.3945 13.531 10.1291C13.531 7.32431 11.5565 5.59754 9.16886 5.59754ZM47.7259 7.42164C45.8214 7.42164 45.2587 5.13535 45.4378 3.4255H40.9083C40.7146 6.01361 41.8123 8.64452 44.3017 9.82163C44.3017 9.82163 41.6712 10.9815 40.9083 15.6575H45.4378C45.6542 13.4138 46.7622 11.9062 47.7259 11.1863C48.6896 11.9062 49.7977 13.4138 50.014 15.6575H54.5436C53.7806 10.9815 51.1502 9.82163 51.1502 9.82163C53.6395 8.64452 54.7372 6.01361 54.5436 3.4255H50.014C50.1931 5.13535 49.6304 7.42164 47.7259 7.42164ZM103.656 3.12595C101.44 3.12595 100.291 4.67447 99.5181 7.02849V3.4255H95.0856V15.6575H99.5181V11.2894C99.522 8.77698 100.647 7.30558 101.574 7.30558C102.29 7.30558 102.668 7.77975 102.668 8.85619V15.6575H107.1V7.02849C107.1 4.9744 105.846 3.12595 103.656 3.12595ZM4.36211 10.3595C5.73481 10.3595 6.99311 9.70859 7.45573 8.87671H6.71423C5.20562 8.87671 4.37822 7.93742 4.37822 6.72526C4.37822 5.11938 6.04549 4.05768 8.25351 4.05768C9.57593 4.05768 11.3655 4.50049 12.4071 5.17981L13.531 1.03727C11.9758 0.319877 9.85297 0 8.21469 0C3.03935 0 2.4633e-06 2.56254 2.4633e-06 5.82792C2.4633e-06 8.63274 1.97452 10.3595 4.36211 10.3595Z" fill="white"/></svg>