<svg xmlns="http://www.w3.org/2000/svg" fill="none" viewBox="0 1 199 22">
  <g clip-path="url(#a)">
    <path fill="#ffbf00" d="M193.1 23.8 199 1h-65.1L128 24z"/>
    <path fill="#1e1e1e" d="M154 5.8q-.7-.6-3-.5h-12.7l-3.8 14h13.3c2.3 0 3.4-.2 4.3-1q1.6-1.6 1.8-4 0-1.9-2-2 1.4-.3 2-1.2a7 7 0 0 0 1.2-3.3q0-1.4-1-2m-4.4 8.8q-.1 1-.8 1.4c-.4.2-.6.2-1.6.2h-7.6l.6-2.5h8.9q.6.3.5 1m.9-5.2q0 .8-.7 1.2-.3.3-1.6.3H141l.6-2.5h7.1l1.3.1q.5.2.5.9M173 8.5l1-3.2h-15.7l-3.7 14h15.7l.9-3.1h-11.5l.6-2.5h10.8l.7-2.8H161l.6-2.4zM175.6 5.3l-1 3.5h16.9l1-3.5zm2.5 14h4.3l2.7-9.6h-4.3z"/>
    <path fill="#fff" d="M119 10.1h-2.6c.5-1.7 1-2 1.8-1.9 1.3 0 1.2.8.9 2m-9.5.2-1 3.7a7 7 0 0 0-.4 2.6c.3 2 2.5 2.8 8 2.8 2.7 0 5.6-.7 7.6-1.8l1-3.5h-6.9l-.1.5c-.5 1.6-1.3 1.6-1.7 1.5-1.2 0-1.1-.6-.9-1.5l.4-1.3h9.4l.9-3.3c1.1-4.1-1.5-5-6.8-5-7.3 0-8.6 2.3-9.5 5.3M109.2 5h.8l-1.3 4.7c-2.5 0-3.6.5-4.2 2.7l-.4 1.3c-.2.9-.9 1.7.4 2.3l-.9 3H95l.9-3c.4-.2.9-.4 1.3-1.9l1.1-3.9c.3-1.2.4-1.4-.3-1.8l.9-3.2h7.3l-.3 1.1c1.2-1.1 2-1.4 3.3-1.4M86.3 14.2l1-4c.4-1.1.7-2 2-2 .8 0 1.1.4.6 2l-1 4c-.6 2-1.2 2-2 2-1.1 0-1-.7-.6-2m9.5-.4 1-3.6c1-4-.2-5.3-7.1-5.2s-8.1 1.7-9.1 5.2l-1 3.6c-1.3 4.4 0 5.6 6.7 5.6 6.2 0 8.3-1.3 9.5-5.6M73.6 9.8q.2-1 0-1.3t-.8-.3c-1 0-1.4.2-1.8 1.7l-1.2 4.4c-.4 1.6-.1 1.8.7 1.8s1.4-.2 2-2.2l.1-.7H79l-1.2 4.3a16 16 0 0 1-8.5 1.9c-6.8 0-7-2.4-6.3-5.1l1.3-4.6C65.1 6.8 67 5 73.2 5c4 0 6.2.7 7.6 1.7l-1 3.8h-6.4l.1-.5z"/>
    <path fill="#ffbf00" d="m59.6 23.8.9-3.1H42.9l-.9 3.1z"/>
    <path fill="#fff" d="M55.7 4.7A1.7 1.7 0 0 0 54 6.5c.2 1 3.4 1.4 5.2 1.9 3.4 1 3.8 2.6 3.2 5-1 3.7-4 6-10.6 6q-5.3 0-8-2l1.4-4.7h7q0 .8-.3 1.4c-.1.4-.4 1.4 1.1 1.4.5 0 1.4-.2 1.8-1.3.5-1.7-.6-2-3.5-2.5-2.8-.6-5.8-1.2-4.7-5.4Q47.8.8 56.5 1q4.8-.1 8 1.9l-1.2 4.1h-6.7v-.3q.7-2-.9-1.9M37.9 10.7h-2.5c.4-1.7.9-1.9 1.7-1.9 1.2 0 1 .8.8 1.9m-9 .1-1 3.6q-.4 1.5-.3 2.4c.2 2 2.3 2.6 7.5 2.6 2.5 0 5.2-.7 7.1-1.7l1-3.3h-6.5l-.1.5c-.4 1.5-1.2 1.5-1.6 1.4q-1.3-.1-.8-1.4l.3-1.2h8.8l1-3.1c1-4-1.4-4.8-6.5-4.8-6.8 0-8 2.1-8.9 5M24.4 5.7c2.4 0 4.2.8 3.4 3.8l-1.4 4.9c-.3 1.2-.3 1.4.3 1.7l-.8 2.9H19c0-.8-.2-.8.6-3.6l.1-.5 1.1-3.8c.2-.6.4-1.7-1-1.8q-.5 0-1 .2l-1.3 4.9c-.4 1.1-.4 1.4.3 1.7l-.8 2.9H9l.8-3c1-.3 1-.6 1.3-1.6L13.6 6q.5-1.3-.4-1.7l.8-3h7.3l-1.5 5.3c1-.3 2.2-.8 4.6-.8M11.7 6l-.9 3H8.7l-1.4 5c-.4 1.5-.5 1.9 1.5 2L8 19l-3.2.2C.5 19.5-.3 18.3.6 15l1.7-6h-.8l.9-3H3l.7-2.6L10.6 2l-1 4z"/>
  </g>
  <defs>
    <clipPath id="a">
      <path fill="#fff" d="M.3 1H199v22.8H.3z"/>
    </clipPath>
  </defs>
</svg>
